<?xml version="1.0" encoding="utf-8"?>
<!-- Generator: Adobe Illustrator 25.2.3, SVG Export Plug-In . SVG Version: 6.00 Build 0)  -->
<svg version="1.1" xmlns="http://www.w3.org/2000/svg" xmlns:xlink="http://www.w3.org/1999/xlink" x="0px" y="0px"
	 viewBox="0 0 600 600" style="enable-background:new 0 0 600 600;" xml:space="preserve">
<style type="text/css">
	.st0{fill:#F68D88;}
	.st1{fill:none;stroke:#ECBDBB;stroke-linecap:round;stroke-linejoin:round;stroke-miterlimit:10;}
	.st2{fill:#404B7C;}
	.st3{fill:#9AB3DA;}
	.st4{fill:#ECBDBB;}
	.st5{fill:none;stroke:#404B7C;stroke-linecap:round;stroke-linejoin:round;stroke-miterlimit:10;}
	.st6{fill:#FFFFFF;}
	.st7{fill:none;stroke:#9AB3DA;stroke-linecap:round;stroke-linejoin:round;stroke-miterlimit:10;}
	.st8{fill:none;stroke:#F68D88;stroke-linecap:round;stroke-linejoin:round;stroke-miterlimit:10;}
	.st9{fill:none;stroke:#DEEBFF;stroke-linecap:round;stroke-linejoin:round;stroke-miterlimit:10;}
	.st10{fill:#DEEBFF;}
	.st11{fill:none;stroke:#6B81BE;stroke-linecap:round;stroke-linejoin:round;stroke-miterlimit:10;}
	.st12{fill:#E9F3FF;}
</style>
<g id="WOMAN_2_UPPER_LEFT_ARM">
	<g>
		<path class="st0" d="M221.3083191,143.7647858c-12.275589,0-8.0140686,28.4035339-3.4204559,43.7302704
			s12.001236,26.2167969,12.001236,26.2167969l12.9460754-13.3069763l-10.8986816-46.8770294
			c-1.8612366-4.4097443-5.4637299-7.8531189-9.9530029-9.5133667L221.3083191,143.7647858z"/>
		<path class="st1" d="M213.2722168,158.5632172c-0.1130524,9.2498474,2.2055817,20.8906097,4.6156464,28.931839
			c4.5936127,15.3267212,12.001236,26.2167969,12.001236,26.2167969l12.9460754-13.3069763l-10.8986816-46.8770294
			c-1.2396698-2.9371033-3.2517853-5.4454956-5.7838898-7.2838593"/>
	</g>
</g>
<g id="WOMAN_2_HAIR">
	<path class="st2" d="M221.9313202,145.309845c0,0-8.1191101,15.5476227-0.9217377,26.7197723
		c0,0-9.8271484,9.4497375-24.4375916-0.4986877c-14.6104584-9.94841-13.5354156-21.0395203-13.5354156-21.0395203
		s11.1195374,0.5803375,17.3508911-12.3458862C206.6188354,125.2192917,225.7324066,135.0468292,221.9313202,145.309845z"/>
</g>
<g id="WOMAN_2_BODY">
	<g>
		<path class="st0" d="M209.2419128,156.6286926l14.3103943-5.7162476l0.2466583,23.2384644
			c0.0847321,7.9833679-4.1665192,15.3871918-11.1022339,19.341568c-0.9082947,0.5178528-1.7827454,1.0162506-2.5822906,1.4717255
			c-7.7983551,7.3205261-18.437851,20.1001434-18.437851,20.1001434l-1.605835,35.1778259
			c0,0-24.9630737,8.149826-42.8257751-3.3734741c-17.1408844-11.0576324-26.2837067-27.0596313-26.2837067-27.0596313
			s51.0734406-68.6455841,58.0193634-75.1726074C185.9265747,138.109436,209.2419128,156.6286926,209.2419128,156.6286926z"/>
		<path class="st1" d="M196.6152344,247.3410187c0,0-19.3844757,8.2618256-35.5910034,4.1203613
			c-13.5519409-3.463089-27.4955444-19.127594-27.4955444-19.127594"/>
		<path class="st3" d="M208.6565399,157.7577362c9.2068939,5.5778961,5.0160217,14.3592529,1.2053528,18.5514984
			c0,0-1.3950348-4.0242462-6.0293884-8.696167c0,0-3.7423859-1.10495-9.7711792,0.3054504
			C194.0613251,167.9185181,195.5236359,149.8013153,208.6565399,157.7577362z"/>
	</g>
</g>
<g id="WOMAN_2_NECK">
	<g>
		<g>
			<polygon class="st4" points="216.25,152.2600098 214.0200195,156.6400146 210.0200195,164.5100098 207.4299927,165 
				204.8499756,165.4799805 202.4299927,158.3800049 205.3900146,154.0599976 210.210022,147.0299683 212.3300171,143.9500122 			
				"/>
			<path class="st2" d="M216.25,152.2600098l-2.2299805,4.3800049l-4,7.8699951L207.4299927,165
				c-1.9099731-3.1099854-2.1900024-7.5300293-2.039978-10.9400024l4.8200073-7.0300293l2.1199951-3.0799561L216.25,152.2600098z"/>
		</g>
		<path class="st2" d="M212.3261261,143.9499512l-2.1148529,3.0780945
			c-0.1504669,4.9151917,2.5216217,8.2848511,3.8136597,9.6140137l2.228363-4.3796997L212.3261261,143.9499512z"/>
	</g>
</g>
<g id="WOMAN_2_LEFT_ARM_1_">
	<g>
		<g>
			<path class="st4" d="M228.6607056,149.9006805l3.7659454,8.7338715c0.3310242,0.7677002,0.289444,1.6451721-0.1126862,2.3781281
				l-5.039032,9.184494l13.0874023,25.9611969c1.8755341,3.7204437,2.7099152,7.8788605,2.4148102,12.0348511l0,0
				c-0.2432709,3.4259186-2.9294128,6.1729126-6.3490143,6.4928436h-0.0000153
				c-2.9645996,0.2773743-5.781723-1.3454895-7.0289917-4.0492096l-1.5931396-3.4534607
				c-1.1951904-2.5908356-2.0682526-5.3184204-2.5996399-8.1217194l-5.4816589-28.9185944l1.6509857-8.2244415l-3.0441589-6.8781586
				c-0.2222137-0.4629059-0.0437012-1.0187683,0.4065094-1.2657013v-0.0000153
				c0.4275055-0.2344971,0.962738-0.1138306,1.2482758,0.2814178l2.8244324,3.9096069l-2.3494263-5.524292
				c-0.1837616-0.4320831-0.0131531-0.9332428,0.3960876-1.1634521v-0.0000153
				c0.4453278-0.2505188,1.0094757-0.0907288,1.257309,0.3561249l3.2468109,5.8543243l-1.8092041-6.5760345
				c-0.1494293-0.5431213,0.1685333-1.1048126,0.7111206-1.2561951l0,0c0.4856262-0.135498,0.9975281,0.1031799,1.2059326,0.5622559
				l2.9946899,6.5969391l-1.7105255-6.246109c-0.1471252-0.5372467,0.1671143-1.0924835,0.7034607-1.2429047l0,0
				C227.9454193,149.1894531,228.4598541,149.4348755,228.6607056,149.9006805z"/>
			<path class="st5" d="M222.4269257,169.7029724c0,0-0.5506897-1.6485138,0.2958527-3.2970276
				c0.8465271-1.6485138,6.0148468-7.9838104,6.0148468-7.9838104l-0.2735748-1.6066895"/>
		</g>
		<path class="st0" d="M228.6773987,170.6094971l-9.473877,1.6256561l6.009201,32.3762054
			c0.6357727,3.4253845,2.2615814,6.5892792,4.6763763,9.1004791v0.0000153
			c1.5361176,1.5974426,3.7164917,2.4077911,5.9230499,2.2013397l1.8934784-0.1771545
			c2.485733-0.2325592,4.6073456-1.8937836,5.4293518-4.2511597h0.0000153
			c1.5872955-4.552124,1.2626648-9.5531006-0.8998108-13.8618011L228.6773987,170.6094971z"/>
		<path class="st1" d="M238.596283,190.3726501l-9.9188843-19.7631531l-9.473877,1.6256561l6.009201,32.3762054
			c0.6357727,3.4253845,2.2615814,6.5892792,4.6763763,9.1004791v0.0000153
			c1.5361176,1.5974426,3.7164917,2.4077911,5.9230499,2.2013397l1.8934784-0.1771545"/>
		<line class="st1" x1="228.3413086" y1="173.2284088" x2="220.9864197" y2="174.6637878"/>
	</g>
</g>
<g id="WOMAN_2_HEAD">
	<g>
		<g>
			<path class="st4" d="M227.2395172,144.097641c0,0,1.142746,7.5059967-1.9809265,15.286911
				c-3.1236877,7.780899-9.5878754,5.978302-14.6364594,0.7125092c-5.048584-5.2657776-5.0585022-15.7533417-5.0585022-15.7533417
				s0.4876251-8.8403931,7.147934-10.1209717C219.3718719,132.9421539,225.8961945,136.8823853,227.2395172,144.097641z"/>
			<path class="st5" d="M227.398407,149.3234253c-0.1431274,2.7879944-0.6676483,6.3940277-2.1398163,10.0611267
				c-1.0409546,2.5929413-2.4528809,4.1216278-4.0597687,4.8125305"/>
			<path class="st2" d="M212.4341431,136.9692383c0,0,5.41362,10.0235291,17.4290924,10.1434937
				c7.2603149-7.067276-1.5117645-23.6999969-16.3466797-15.6356049
				c-16.8488159-1.4192963-16.7450256,16.3755798-7.5251312,18.1792908
				C205.9914246,149.6564178,211.3624115,146.9911346,212.4341431,136.9692383z"/>
			<g>
				<g>
					<path class="st4" d="M208.7936859,154.7092743l-1.1488953-5.6231537c0,0-1.9394684-4.2540283-5.7546234-3.6842651
						C198.0750275,145.9716034,197.6221619,155.7822723,208.7936859,154.7092743z"/>
					<path class="st5" d="M202.0152588,147.6805725c0,0,3.6182709,1.1429749,5.49086,4.5888824"/>
					<path class="st5" d="M203.3203125,151.9191437c0,0,0.2714539-1.4639893,1.1888123-2.9371338"/>
				</g>
			</g>
		</g>
	</g>
</g>
<g id="WOMAN_2_FACE">
	<g>
		<path class="st2" d="M212.8868103,144.4776611c0,0,1.9399872-3.1720428,4.3448639-1.679306
			c0,0,0.1358795-0.7479095,0.7963867-0.7054596c0.6605225,0.04245,0.541275,2.1101074,0.541275,2.1101074
			S215.5674744,143.682373,212.8868103,144.4776611z"/>
		<path class="st2" d="M226.9053955,147.329422c0,0,0.1003876-3.3989868-1.9355774-2.6366119
			c0,0,0.0060272-0.6285706-0.4111786-0.7369995c-0.7215729-0.1875458-1.0456238,1.7405396-1.0456238,1.7405396
			S225.6152954,145.9235687,226.9053955,147.329422z"/>
		<g>
			
				<ellipse transform="matrix(0.1205374 -0.9927088 0.9927088 0.1205374 40.6874619 345.5971069)" class="st2" cx="215.3931122" cy="149.8352051" rx="1.7259634" ry="1.3959998"/>
			<circle class="st6" cx="215.7724304" cy="149.2644348" r="0.371209"/>
		</g>
		<g>
			
				<ellipse transform="matrix(0.1205374 -0.9927088 0.9927088 0.1205374 46.8831329 354.5730896)" class="st2" cx="223.5568542" cy="150.8264771" rx="1.7259634" ry="1.3959998"/>
			<circle class="st6" cx="223.9361725" cy="150.2556915" r="0.371209"/>
		</g>
		<path class="st5" d="M219.9923096,150.0316162l-0.3815002,3.354248c0,0,2.3960571,0.3103485,1.6943359,1.6116943
			c-0.6893158,1.2783051-2.5015259,0.5847778-2.5015259,0.5847778"/>
		<path class="st6" d="M219.8288116,160.2155609c0,0-3.693634-0.1420288-6.2984314-3.5868683
			c2.9065247,0.9803314,5.599762,1.5653992,7.6666107,0.9897308L219.8288116,160.2155609z"/>
	</g>
</g>
<g id="WOMAN_2_LEFT_ARM">
	<g>
		<path class="st0" d="M182.4011078,143.7647858c-12.275589,0-8.0140839,28.4035339-3.4204712,43.7302704
			c4.5936279,15.3267212,15.2865906,26.7449341,15.2865906,26.7449341l11.1293182-21.3009491l-12.3672638-39.4111938
			c-1.8612366-4.4097443-5.4637299-7.8531189-9.9530029-9.5133667L182.4011078,143.7647858z"/>
		<path class="st1" d="M174.3649902,158.5632172c-0.1130371,9.2498474,2.2055969,20.8906097,4.6156464,28.931839
			c4.5936279,15.3267212,15.2865906,26.7449341,15.2865906,26.7449341l11.1293182-21.3009491l-12.3672638-39.4111938
			c-1.2396698-2.9371033-3.2517853-5.4454956-5.7838898-7.2838593"/>
		<path class="st4" d="M201.5196381,149.5941162l-2.9359741,9.0467072c-0.2580719,0.7951965-0.1349335,1.664978,0.333725,2.3572845
			l5.8726959,8.6751556l-10.6121216,27.0674438c-1.5207977,3.8789825-1.9641876,8.0970459-1.2832184,12.2074738l0,0
			c0.5613556,3.3883667,3.4916992,5.8731842,6.926239,5.8731842h0.0000153c2.9775391,0,5.6312408-1.8782349,6.6212311-4.6863861
			l1.2645111-3.586853c0.9486542-2.6909027,1.5638275-5.4879456,1.8317566-8.3285675l2.7639618-29.3034973l-2.4099426-8.0348663
			l2.3901978-7.1318359c0.1781311-0.4815826-0.0514069-1.0184021-0.522644-1.2223358l0,0
			c-0.4474945-0.1936493-0.969162-0.0236511-1.2166443,0.3964844l-2.4479523,4.1557007l1.8246002-5.7191315
			c0.1427155-0.4473267-0.0738373-0.9304199-0.5027313-1.1215057h-0.0000153
			c-0.4667358-0.2079468-1.0135345,0.0037079-1.2186584,0.4716949l-2.6873474,6.1313171l1.1887512-6.7159729
			c0.0981903-0.5546875-0.2707214-1.0843048-0.8250427-1.184494l0,0c-0.4961395-0.0896606-0.9835815,0.1956635-1.1483154,0.6721649
			l-2.3671417,6.8472137l1.1212463-6.3782959c0.0964508-0.5486145-0.2681732-1.0721741-0.8161774-1.1719666l0,0
			C202.1655731,148.8193359,201.6762238,149.111618,201.5196381,149.5941162z"/>
		<path class="st5" d="M212.3024597,168.9160614l-2.4099426-8.0348663l2.3901978-7.1318359
			c0.1781311-0.4815826-0.0514069-1.0184021-0.522644-1.2223358l0,0c-0.4474945-0.1936493-0.969162-0.0236511-1.2166443,0.3964844
			l-2.4479523,4.1557007l1.8246002-5.7191315c0.1427155-0.4473267-0.0738373-0.9304199-0.5027313-1.1215057h-0.0000153
			c-0.4667358-0.2079468-1.0135345,0.0037079-1.2186584,0.4716949l-2.6873474,6.1313171l1.1887512-6.7159729
			c0.0981903-0.5546875-0.2707214-1.0843048-0.8250427-1.184494l0,0c-0.4961395-0.0896606-0.9835815,0.1956635-1.1483154,0.6721649
			l-2.3671417,6.8472137l1.1212463-6.3782959c0.0964508-0.5486145-0.2681732-1.0721741-0.8161774-1.1719666l0,0"/>
		<path class="st0" d="M203.4321136,170.214447l9.5841217,0.7360535l-2.9671021,32.7952118
			c-0.3139191,3.469696-1.6379242,6.7713013-3.8083038,9.496521v0.0000153
			c-1.3806305,1.7335815-3.4760284,2.7435303-5.6922302,2.7435303h-1.9017487c-2.496582,0-4.7637329-1.4563599-5.8017578-3.7269135
			v-0.0000153c-2.0044556-4.3844604-2.1470947-9.3939362-0.3953857-13.8853455L203.4321136,170.214447z"/>
		<path class="st1" d="M195.3973694,190.8156433l8.0347443-20.6011963l9.5841217,0.7360535l-2.9671021,32.7952118
			c-0.3139191,3.469696-1.6379242,6.7713013-3.8083038,9.496521v0.0000153
			c-1.3806305,1.7335815-3.4760284,2.7435303-5.6922302,2.7435303h-1.9017487"/>
		<line class="st1" x1="204.0107117" y1="172.7906494" x2="211.4673157" y2="173.5346527"/>
	</g>
</g>
<g id="COUCH">
	<g>
		<g>
			<path class="st2" d="M388.5086365,461.8414001h-86.7044373c-12.0511169,0-21.8204651-9.7693787-21.8204651-21.8204651
				v-99.2851868c0-12.0510864,9.7693481-21.8204651,21.8204651-21.8204651h86.7044373
				c12.0511169,0,21.8204651,9.7693787,21.8204651,21.8204651v99.2851868
				C410.3291016,452.0720215,400.5597534,461.8414001,388.5086365,461.8414001z"/>
			<path class="st3" d="M388.5086365,461.8414001h-0.0000305c-12.0511169,0-21.8204651-9.7693787-21.8204651-21.8204651v-99.2851868
				c0-12.0510864,9.7693481-21.8204651,21.8204651-21.8204651h0.0000305c12.0511169,0,21.8204651,9.7693787,21.8204651,21.8204651
				v99.2851868C410.3291016,452.0720215,400.5597534,461.8414001,388.5086365,461.8414001z"/>
			<circle class="st6" cx="388.5086365" cy="340.4957581" r="12.8985691"/>
		</g>
		<g>
			<g>
				<path class="st3" d="M319.8400269,368.1599731c-2.5400391,1.8400269-5.5200195,3.1799927-8.8000488,3.8200073H101.4500122
					L70.3699951,214.2399902H279.960022c1.4599609-0.289978,2.9199829-0.4299927,4.3599854-0.4299927
					c10.5100098,0,19.8999634,7.4199829,22.0100098,18.1199951l1.7799683,9.0100098l20.6199951,104.6699829
					C330.4799805,354.5,326.7299805,363.1900024,319.8400269,368.1599731z"/>
				<path class="st2" d="M319.8400269,368.1599731h-92.7000122l5.9199829-75.5599976c0,0-2.789978-22.6499634-4.7399902-41.2700195
					c-1.9500122-18.6299438,14.5200195-17.7699585,14.5200195-17.7699585l65.2699585,7.3800049l20.6199951,104.6699829
					C330.4799805,354.5,326.7299805,363.1900024,319.8400269,368.1599731z"/>
				<path class="st2" d="M156.2748108,233.5611115c0,0-26.7801056,7.7158661-27.0908813,26.0518646
					c-0.292572,17.2625427-6.9225311,108.5517273-6.9225311,108.5517273h109.8563995l-34.2018433-121.1777649
					L156.2748108,233.5611115z"/>
				<path class="st2" d="M101.4522858,371.9839172H101.45224c-12.1678467,2.3974609-23.9753571-5.5230103-26.3728104-17.6908569
					L52.6812973,240.6152954c-2.3974533-12.1678467,5.5230179-23.9753571,17.6908722-26.372818h0.0000381
					c12.1678543-2.3974609,23.9753647,5.5230103,26.372818,17.6908569l22.3981247,113.6777496
					C121.5406036,357.7789307,113.6201324,369.5864563,101.4522858,371.9839172z"/>
			</g>
			<g>
				<path class="st3" d="M366.6900024,368.3999634v47.7000122c0,4.7700195-3.8599854,8.6300049-8.6300049,8.6300049H155.4000244
					c-4.7700195,0-8.6300049-3.8599854-8.6300049-8.6300049v-47.7000122c0-4.7699585,3.8599854-8.6300049,8.6300049-8.6300049
					h202.6599731C362.8300171,359.7699585,366.6900024,363.6300049,366.6900024,368.3999634z"/>
				<path class="st3" d="M366.6900024,433.3599854v19.8599854c0,4.7600098-3.8599854,8.6199951-8.6300049,8.6199951H155.4000244
					c-4.7700195,0-8.6300049-3.8599854-8.6300049-8.6199951v-19.8599854c0-4.7700195,3.8599854-8.6300049,8.6300049-8.6300049
					h202.6599731C362.8300171,424.7299805,366.6900024,428.5899658,366.6900024,433.3599854z"/>
				<path class="st2" d="M358.0599976,424.7299805c4.7700195,0,8.6300049,3.8599854,8.6300049,8.6300049v19.8599854
					c0,4.7600098-3.8599854,8.6199951-8.6300049,8.6199951h-31.7399902l2.1499634-0.5700073
					c3.0600586-0.8099976,5.3100586-3.3899536,5.7000122-6.5299683l2.7000122-22
					c0.039978-0.3099976,0.0599976-0.6300049,0.0599976-0.9400024c0-3.0300293-1.7799683-5.8200073-4.5999756-7.0700073
					l2.6099854-1.5499878c1.960022-1.1500244,3.3099976-3.1199951,3.6900024-5.3599854L344.3900146,383.75l-48.8300171-23.9800415
					h62.5c4.7700195,0,8.6300049,3.8600464,8.6300049,8.6300049v47.7000122
					C366.6900024,420.8699951,362.8300171,424.7299805,358.0599976,424.7299805z"/>
				<line class="st5" x1="155.3986816" y1="424.7294312" x2="359.210907" y2="424.7294312"/>
			</g>
		</g>
	</g>
</g>
<g id="MAN_LEFT_ARM">
	<g>
		<path class="st3" d="M303.6662903,223.7210541c8.6616821,3.3842163,28.3953552,45.7224884,28.3953552,45.7224884
			l9.1037598-5.0218506c0,0,6.0151672-2.0401001,9.7304382,5.7092896c3.7152405,7.7493896,0,13.5635681,0,13.5635681
			l-19.7866211,9.2512817c-7.289917,3.4084167-15.9635315,0.2803345-19.3999023-6.99646l-19.4028625-41.0870972
			c-3.6533508-7.7362823,0.0925293-16.9422302,8.1094666-19.9299011L303.6662903,223.7210541z"/>
		<circle class="st2" cx="342.157074" cy="284.0057068" r="2.1150148"/>
		<path class="st6" d="M347.7113342,263.7232666l-8.0346375,3.2263184c0,0-5.1751404,11.4025879,8.0346375,14.940918
			l8.1381836-3.8921814C355.8495178,277.9983215,359.151947,266.1963501,347.7113342,263.7232666z"/>
		<path class="st4" d="M355.6417542,261.6040344l-9.7893982,3.7051697c0,0-4.0619812,8.9346313,5.8123169,11.1657104
			l5.7462463-2.289093l6.5697021-0.0352783L355.6417542,261.6040344z"/>
	</g>
</g>
<g id="MAN_RIGHT_LEG">
	<g>
		<g>
			<g>
				<path class="st4" d="M370.4447021,378.8893738c0,0,1.1307678,1.8786316,2.5516968,4.2320862
					c2.3319702,3.911377,5.4560242,9.1278076,5.5133972,9.2763977c0.0896606,0.2321167,5.1667786-0.2135315,5.1667786-0.2135315
					l4.0740051-3.7070923l-3.3775635-7.1991272l-3.1253052-6.6564331L370.4447021,378.8893738z"/>
				<g>
					<path class="st2" d="M417.9822998,389.4933167l-28.6914062,24.0445862c0,0-1.8358459-1.9845886-4.0976257-5.0053101
						c-3.3385925-4.4283752-7.6133728-11.1054077-8.3652039-16.982605c0,0,6.9976501-2.9794617,10.4410095-8.1946106
						c0,0,5.0725403,2.049408,22.1327209-0.0411682c0.052124,0.0184326,0.1114502,0.0308228,0.1635437,0.0492249
						C413.0535278,384.3146973,415.9449158,387.0119324,417.9822998,389.4933167z"/>
					<path class="st7" d="M402.8860168,389.3716736c0,0-10.1164856,2.4117432-19.4254456,0.9160156"/>
					<path class="st0" d="M421.1878357,386.845459l-32.6052246,27.2774658l-4.1195374-4.9871826l15.5480652-13.1877747
						c0,0-6.5530701-7.8292236,1.449707-14.4397583C409.4636841,374.897644,416.1635437,380.7630005,421.1878357,386.845459z"/>
				</g>
				<path class="st2" d="M370.4447021,378.8893738c0,0,1.1307678,1.8786316,2.5516968,4.2320862
					c2.6391907-0.4324036,7.424469-1.1920166,11.3766174-1.8433533l-3.1253052-6.6564331L370.4447021,378.8893738z"/>
			</g>
		</g>
		<g>
			<path class="st0" d="M363.0355225,313.6887512c-2.7076416-5.3531494-7.9119263-8.7822266-13.6209717-9.3527832
				c-3.1802368-0.3178406-6.3186646,0.9342651-8.5833435,3.1895447l-0.0153503,0.0152588
				c-4.3851318,4.3668823-5.5453796,11.0218506-2.896698,16.6150208l6.9508362,14.6779175l24.3792725,44.9161377
				c4.6262512-1.6566162,10.351532-5.594635,18.0032349-12.3920288
				C384.4137878,366.4960632,377.7019348,342.6853333,363.0355225,313.6887512z"/>
			<line class="st1" x1="344.3885803" y1="324.5275574" x2="374.2588806" y2="378.4683838"/>
		</g>
	</g>
</g>
<g id="LEFT_LEG">
	<g>
		<g>
			<g>
				<path class="st4" d="M345.5029907,422.3496094c0,0-0.3919983,2.1573486-0.8797607,4.8628845
					c-0.8328857,4.4769592-1.933136,10.4569397-1.9882202,10.6064148c-0.0860291,0.2334595,4.0201416,3.2526245,4.0201416,3.2526245
					l5.5074158-0.0921021l2.2196045-7.6360474l2.0505371-7.0619202L345.5029907,422.3496094z"/>
				<g>
					<path class="st2" d="M374.1887207,461.7119446l-37.423645-0.9000854c0,0-0.0673828-2.7026367,0.2298584-6.4645691
						c0.4186707-5.5300293,1.6197815-13.3667297,4.9375305-18.2758484c0,0,7.2217712,2.3854065,13.2518616,0.7445374
						c0,0,2.4546204,4.8893127,16.6439514,14.5889587c0.026947,0.0482483,0.063324,0.0967407,0.090271,0.1449585
						C373.9090576,454.5682373,374.2981873,458.5031738,374.1887207,461.7119446z"/>
					<path class="st7" d="M362.9350891,451.6487122c0,0-9.188324-4.8717957-15.18927-12.1438599"/>
					<path class="st0" d="M378.3444214,461.8414307l-42.4975281-1.0581665l0.201416-6.4654541l20.3843994,0.3692322
						c0,0,0.251709-10.206665,10.6266479-9.8834534C377.4343567,445.1268311,378.5900879,453.9560547,378.3444214,461.8414307z"/>
				</g>
				<path class="st2" d="M345.5029907,422.3496094c0,0-0.3919983,2.1573486-0.8797607,4.8628845
					c2.2670593,1.4186707,6.3615112,4.0093079,9.7589417,6.1308899l2.0505371-7.0619202L345.5029907,422.3496094z"/>
			</g>
		</g>
		<g>
			<path class="st0" d="M287.1970215,356.3058777c0,0,52.8412781,14.4711914,65.5639648,19.0773315l-11.3661194,49.8258667
				c4.5675659,1.8121338,11.4673157,2.6374207,21.7019958,2.5884399c1.0802612-5.525177,11.7694092-27.8353271,19.9119873-59.293335
				c2.0037842-7.7414551-1.5813904-15.8464966-8.6754456-19.5370178
				c-13.2924805-6.9151001-55.2886353-34.8528442-78.5402832-42.4262695
				C275.7087708,312.0602417,262.6802063,342.9894409,287.1970215,356.3058777z"/>
			<path class="st1" d="M381.3554993,374.6517639c0.559967-2.0073242,1.1122742-4.057251,1.6533508-6.147583
				c2.0037842-7.7414551-1.5813904-15.8464966-8.6754456-19.5370178
				c-13.2924805-6.9151001-55.2886353-34.8528442-78.5402832-42.4262695"/>
			
				<ellipse transform="matrix(0.9980988 -0.0616346 0.0616346 0.9980988 -21.8215332 23.6862144)" class="st1" cx="373.024292" cy="365.5531311" rx="8.1490269" ry="12.5869741"/>
			<polyline class="st1" points="295.9111938,352.6362915 360.0115356,372.7077637 348.6446838,424.5529785 			"/>
		</g>
	</g>
</g>
<g id="MAN_RIGHT_TIGHT">
	<g>
		<g>
			<path class="st0" d="M342.9465027,304.5534363c-19.9887695,1.377655-61.0461121,2.5506897-81.5501404,8.5129395
				c-13.4938507,15.8670044-6.8531799,48.76474,20.9064636,45.9713745c0,0,51.8210144-17.7820129,64.9295044-21.1362h0.0000305
				c12.7235718-3.2461243,17.2469482-18.9891357,8.1870728-28.4941711l-0.0000305-0.0000305
				C352.1879272,306.0170898,347.6190186,304.2313843,342.9465027,304.5534363z"/>
			<path class="st1" d="M359.3647156,312.3187561c-4.9049072-4.9261169-11.4664612-6.3453369-14.6557617-3.1698303
				c-3.1892395,3.1754761-1.7985229,9.7431641,3.1063232,14.669281c4.9048157,4.9262085,11.4664612,6.3453979,14.6557007,3.1699219
				C365.6602783,323.8126526,364.2695618,317.2449646,359.3647156,312.3187561z"/>
			<path class="st1" d="M293.348999,355.276001c15.9701233-5.4107361,44.6111755-15.0018921,53.8833313-17.3744507h0.0000305"/>
			<line class="st1" x1="272.7148438" y1="343.1359863" x2="336.9942017" y2="323.6453247"/>
		</g>
	</g>
</g>
<g id="MAN_BODY">
	<g>
		<g>
			<g>
				<path class="st3" d="M319.298645,306.0665894c-3.1058044-4.74823-5.9455872-9.9182129-7.3441772-14.6072388
					c-4.0138245-13.4568176,1.1300049-41.5615387-8.2881775-67.7382965c0,0-16.2429504-8.1344604-30.805542-7.7199554
					c-9.1907043,0.2615662-21.994873,5.3472595-30.1907043,9.0637665
					c-4.7895355,2.1718445-7.6113739,7.1980438-6.9930573,12.4205627
					c2.1880646,18.4808502,7.1790771,60.8265533,7.4356079,64.7169342c0.3291168,4.990448-7.2240295,44.345459-7.2240295,44.345459
					s21.3412323,8.3545532,40.8280487,10.4212646l24.5245972-48.8948975L319.298645,306.0665894z"/>
				<path class="st5" d="M304.3527832,225.7090302c4.8308105,14.5876617,5.3540649,29.6408997,5.6342163,42.3193512"/>
			</g>
			<polygon class="st2" points="253.4959869,320.8059082 252.3021545,327.6869812 271.7124329,330.6476746 272.980072,323.675415 
							"/>
			<path class="st5" d="M292.5133057,310.3151245c0,0-6.1331177-15.2148438-9.3918762-33.2120361"/>
		</g>
		<g>
			<path class="st2" d="M271.1211548,213.1382751c0,0,6.4633179,0.1816864,18.2459106,4.2679901
				c0,0,6.5132141,6.0176849,11.1802063,15.8335419l-10.1896667,3.8693695l5.6952515,10.5041656l-13.1723022,24.9430847
				l-25.1007996-19.4252167l0.8442993-13.0715027l-7.7341461-1.6556702c0,0,0.2020569-12.7384796,2.7914581-16.3664856
				C256.2707825,218.4095306,266.1033325,213.3037567,271.1211548,213.1382751z"/>
			<g>
				<path class="st6" d="M272.8607483,216.0010986c5.0180664-0.2922058,10.583252,2.4834747,14.5392761,3.5635376
					c1.5420532,7.0119629,2.4243469,32.7186432-6.0054932,48.0263672c0,0-15.9681702-30.0404663-22.4284058-46.5997314
					C263.4711304,218.8908234,270.8876343,216.1159821,272.8607483,216.0010986z"/>
				<g>
					<path class="st2" d="M271.9842224,253.1365051c0.3689575-5.2090149,0.4698181-11.5186615-0.2419434-26.4966278
						l3.6395874-1.0728302l2.7094116,1.4118958c0,0,6.1694946,11.1168213,9.6878967,28.6963043
						c-2.4597168,6.7118683-3.5525208,8.2601166-6.7841797,13.0717316
						C280.9949951,268.7469788,275.0725403,262.7321777,271.9842224,253.1365051z"/>
					<path class="st7" d="M280.211792,232.9622955c0,0-3.8042297,0.2570801-5.9925537,0.748764"/>
				</g>
			</g>
			<g>
				<path class="st6" d="M274.8221436,227.1353302c0,0,5.2093506,1.4843597,11.0195923,5.5592346
					c0,0-1.7791748-17.6982727-11.3104858-17.8720093s-8.9788818,18.7385559-8.9788818,18.7385559
					S267.5148315,230.710556,274.8221436,227.1353302z"/>
				<path class="st7" d="M268.4632568,218.6629639c-3.1859131,5.4831543-2.9108887,14.8981476-2.9108887,14.8981476
					s1.9624634-2.8505554,9.2697754-6.4257812c0,0,5.2093506,1.4843597,11.0195923,5.5592346
					c0,0-0.9157104-9.1088257-4.9524841-14.3211517"/>
			</g>
		</g>
	</g>
</g>
<g id="MAN_NECK">
	<g>
		<path class="st4" d="M271.9576416,221.68396c0,0,2.7842712,1.6970215,6.35849,0.1158905l0.7217712-9.047287l0.7985535-9.929306
			l-9.2991333-7.0582581l-0.0834961-0.0647736l0.0370789,0.6159668l0.2949829,5.0675049L271.9576416,221.68396z"/>
		<path class="st2" d="M270.7858887,201.3836975c0.6445923,3.9196625,2.5709229,9.4174347,8.2520142,11.368866l0.7985535-9.929306
			l-9.2991333-7.0582581c-0.0270996,0.2110443-0.0362244,0.3910675-0.0464172,0.5511932
			c-0.0297852,0.5003357-0.0118408,0.7983704-0.0106506,0.8182678
			C270.4802551,197.1344604,270.3904114,198.9545898,270.7858887,201.3836975z"/>
	</g>
</g>
<g id="MAN_HEAD">
	<g>
		<g>
			<path class="st4" d="M288.9537659,195.0600281c0,0,2.1312256-3.0222168,4.5662537-1.4634552
				s0.3479614,8.0599976-5.0612793,8.6881561L288.9537659,195.0600281z"/>
			<path class="st5" d="M292.5073242,195.5152435c0,0-1.7693176,0.7183685-3.0914307,3.7007599"/>
		</g>
		<path class="st4" d="M280.6473694,181.3791351c7.9116821-0.9368744,10.3127136,10.4942322,9.729248,18.9890747
			c-0.5834961,8.4948425-7.4151001,14.2398834-14.8166504,8.0569916
			C268.1584167,202.2423248,264.4700928,183.2947845,280.6473694,181.3791351z"/>
		<path class="st2" d="M271.1836548,208.2749023l0.2001038-5.4727325l-0.3623047-5.4130249l0.1851807-3.0540009
			c0,0,6.3207397-0.0726318,3.5280762-7.2310333c0,0,8.4297791,8.3531036,16.1642456,7.1719818
			c7.7368164-1.1713257,12.7336121-10.6817474,11.1620178-13.2271118c-1.494873-2.4393768-4.9151306,0.6409912-5.1870117,0.8911285
			c0.3397827-0.5763092,6.9565735-11.6366882,1.6351013-17.3722076
			c-5.4585266-5.8789825-18.2084045,6.3574371-25.5786438,13.7802277c-1.1286316,1.1343384-2.2340698,2.1908875-3.2923279,3.1846466
			c0.5549011-1.8574066,1.3839722-4.8339081,1.9921265-7.9134369c0.9943237-5.083252-6.3843689-2.9624023-4.7350159,10.3585968
			c0,0-5.908783-6.6931-8.8913574-4.5636597c-2.5164795,1.7817993,2.433197,5.4130402,6.8405762,6.5666046
			c-3.4006653,3.2514801-5.658783,5.9546967-5.6088562,9.1066742
			C259.3200073,200.3612366,271.1836548,208.2749023,271.1836548,208.2749023z"/>
		<g>
			<path class="st4" d="M271.0214539,197.3891449c0,0-1.5111389-3.3057404-5.2995605-2.1978455
				c-3.7884521,1.1079102-1.0346069,9.5057831,6.652771,7.3931885L271.0214539,197.3891449z"/>
			<path class="st5" d="M270.6549377,200.4048767c0,0-1.4510803-3.2337189-4.7260132-3.2376251"/>
			<path class="st5" d="M267.593689,200.3937225c0,0-0.0655518-1.3105774,0.9194641-2.4491272"/>
		</g>
	</g>
</g>
<g id="MAN_FACE">
	<g>
		<path class="st2" d="M275.8196716,194.1371307c0,0,1.3461914-3.2146912,3.7865295-2.1737671
			c0,0,0.0195007-0.7122345,0.6374817-0.7668457c0.617981-0.0546265,0.8015747,1.8779449,0.8015747,1.8779449
			S278.1901245,193.0190582,275.8196716,194.1371307z"/>
		<path class="st2" d="M289.9090576,192.9390411c0,0-1.2425232-2.9351654-2.6792908-1.4901428
			c0,0-0.240448-0.5378876-0.6382751-0.4672699c-0.6880798,0.1221466-0.2108459,1.8914795-0.2108459,1.8914795
			S288.2605896,192.2453156,289.9090576,192.9390411z"/>
		<g>
			
				<ellipse transform="matrix(0.9995041 -0.0314891 0.0314891 0.9995041 -6.1015105 8.9036036)" class="st2" cx="279.6309204" cy="198.1694489" rx="1.308494" ry="1.6177744"/>
			<circle class="st6" cx="279.9011841" cy="197.5867004" r="0.3479404"/>
		</g>
		<g>
			
				<ellipse transform="matrix(0.9995041 -0.0314891 0.0314891 0.9995041 -6.0900464 9.1460876)" class="st2" cx="287.3353271" cy="197.9267273" rx="1.308494" ry="1.6177744"/>
			<circle class="st6" cx="287.6055603" cy="197.3439789" r="0.3479404"/>
		</g>
		<path class="st5" d="M284.7081604,201.3589783c0,0,1.5769958,0.5223846,1.2719727,1.6568909
			c-0.3534546,1.3146057-2.2344055,0.8975525-2.2344055,0.8975525"/>
		<circle class="st5" cx="279.5340881" cy="198.2218781" r="3.6270626"/>
		<circle class="st5" cx="288.4815979" cy="197.7049103" r="3.6270626"/>
		<path class="st5" d="M284.6758423,206.4226379c0,0-2.9012756,1.126709-5.8044739-1.6943359"/>
	</g>
</g>
<g id="MAN_JOYSTICK">
	<path class="st2" d="M326.4706726,252.6749268L326.4706726,252.6749268
		c0.8630676-0.6794281,1.9295654-1.0488586,3.0279846-1.0488586h3.8647156c1.3572388,0,2.6535339,0.5634766,3.5793762,1.5558777
		l0.0817566,0.0876312h13.3277283l0.7251892-0.7251892c0.7792664-0.7792511,1.8361511-1.217041,2.9382019-1.217041h3.4800415
		c0.9490051,0,1.8693848,0.3248444,2.6081543,0.9205017l2.3294678,1.8782349
		c1.581604,1.275238,2.0091553,3.5071564,1.0107727,5.2765961l0,0l-0.8238525,13.5661621
		c-0.1335144,2.1984253-1.9553528,3.9129944-4.1578369,3.9129944h-0.0000305c-1.6585388,0-3.1590271-0.9839172-3.8201904-2.5049744
		l-3.2284241-7.4272766h-13.4298706l-6.7321167,7.7833252c-1.1803589,1.3646851-2.8955994,2.1489258-4.6999207,2.1489258l0,0
		c-4.1763916,0-7.1637573-4.0374756-5.9424438-8.0312805l4.2080688-13.7608185
		C325.1094055,254.1350555,325.6862488,253.2924652,326.4706726,252.6749268z"/>
</g>
<g id="MAN_RIGHT_ARM">
	<g>
		<g>
			<g>
				<path class="st4" d="M335.4306946,267.1877136c0.5360413,1.1713867,0.4268494,2.5412903-0.3078003,3.5935669
					l-0.0992432,0.1489258c-0.228302,0.3374939-0.6154785,0.5360413-1.0224609,0.5360413
					c-0.5757751,0-1.0820618-0.3970337-1.2111206-0.9529724l-2.0549011-3.0178223v-0.0099487
					c-0.0992432,0-0.1985474-0.0098877-0.2977905-0.0297546c-0.7345886-0.1191101-1.389801-0.2084656-1.7372131-0.1885986
					l1.6975403,1.5089111c0.6551514,0.5856628,1.1118164,1.369873,1.3103638,2.2236328l0.6650696,3.0376587
					c0.1687622,0.7445374-0.1687317,1.5187988-0.8239441,1.9059753c-0.2878723,0.1687317-0.5955811,0.2481689-0.9033203,0.2481689
					c-0.6254272,0-1.2310181-0.3276062-1.5585632-0.9231873l-0.8338928-1.5386963
					c-0.2581177,0.0793762-0.4963379,0.1886292-0.7345886,0.317688c-3.3255005,1.8364563-4.2586365,2.5015564-6.6510925,3.8714905
					c-2.0052185,1.1416321-7.266571,1.0920105-7.266571,1.0920105l-9.1427307,4.0899048l-4.9138489-10.9693604l9.0037842-3.4942627
					c0,0,11.0685425-11.9521484,14.0764771-13.78862c2.2236328-1.3500671,8.3883057-2.1541443,11.5053406-2.4817505
					c1.1515808-0.1191254,2.1740112,0.764389,2.1740112,1.9655304c0.0099487,0.933136-0.6948242,1.7174072-1.5982361,1.9357605
					l-4.8641663,1.2111206c0,0,0.0297241,0,0.0793457,0l2.124176,0.2003784
					c1.2483521,0.1177673,2.2854614,1.0126038,2.5848083,2.2302551l0.8263855,3.3616028
					c0.1809387,0.7360535,0.0713196,1.5134888-0.3061218,2.1708069l-0.2955017,0.5145874L335.4306946,267.1877136z"/>
				<path class="st5" d="M326.3173828,270.1309814c0,0-1.1690063-1.6185608-0.1880493-2.4362183
					c0.9809875-0.817627-2.4658813-2.1507568-1.4343262-3.9660034c1.0315552-1.8152771-2.1305237-2.3355713-1.267395-4.2889099
					c0.7411804-1.6774292-1.7386169-1.1661377-1.0801392-3.4685211"/>
				<line class="st5" x1="325.2232971" y1="258.1732483" x2="328.4033813" y2="257.5753174"/>
				<path class="st5" d="M326.4617615,262.4319153l2.2359619-0.2161865h1.6234131
					c0.7948608,0,1.5441589,0.3708496,2.0262451,1.0028076l1.5349731,2.0122986"/>
			</g>
			<polygon class="st6" points="302.2828979,286.881134 309.9261475,283.403656 303.26474,266.0686951 295.5618286,269.1253357 			
				"/>
			<path class="st3" d="M304.8545227,287.7556763c0,0-19.4671936,8.3514404-32.8521118,13.7740784
				c-6.8039551,2.7565002-14.562439-0.3537292-17.5792847-7.0462952
				c-8.5439301-18.9539795-19.759491-46.4668121-19.759491-46.4668121
				c-9.4552155-25.5429077,25.8742676-30.3487549,28.7881775-4.6683807l11.5829163,32.352417l22.9117737-8.8687439
				L304.8545227,287.7556763z"/>
			<path class="st5" d="M248.6873322,226.1442108c6.9958038,1.2984467,13.555191,6.5465088,14.7644806,17.2040558
				l11.5829163,32.352417l22.9117737-8.8687439l6.90802,20.9237366c0,0-19.4671936,8.3514404-32.8521118,13.7740784
				c-6.8039551,2.7565002-14.562439-0.3537292-17.5792847-7.0462952
				c-3.9145355-8.684082-9.3134003-20.8250427-14.0147247-31.4322815"/>
			<circle class="st2" cx="298.0834045" cy="285.8097534" r="2.1150148"/>
		</g>
	</g>
</g>
<g id="WOMAN_1_LEFT_HAND">
	<g>
		<path class="st4" d="M354.8755798,252.6236725v-0.0000153c-0.0307312-1.2132721,0.9281311-2.2216187,2.1414185-2.2519531
			l5.0083008-0.1251984c0.7489319-0.0187225,1.4751892,0.257843,2.0219421,0.7700043l2.2382507,2.0965881
			c0.6757202,0.6329498,1.1185608,1.4750671,1.2570496,2.3905182l0.4142456,2.7381744l0.0523682,0.0801086
			c1.0477905,1.6028442,0.8588257,3.71521-0.4567566,5.1066284v0.0000305l0.2215271,0.4033813
			c0.8335571,1.5177612,0.6351013,3.3938293-0.4975281,4.7036133l0,0l0.1556396,1.0700989
			c0.2230835,1.5335693-0.4588623,3.0581665-1.7507629,3.9140625v0.0000305
			c-0.7897949,0.5232544-1.7395325,0.7495117-2.6804199,0.6385193l-4.3078918-0.5081787l-2.0769653,0.3158264
			c-1.0587769,0.1610107-2.0933228-0.4107971-2.5202637-1.3929749l0,0c-0.5516052-1.2690735,0.1014709-2.7383423,1.413147-3.1791992
			l2.2420044-0.7535095l-3.5950012-0.284729c-1.0144043-0.0803528-1.8690796-0.789093-2.1357727-1.7710876h-0.0000305
			c-0.3768616-1.3875732,0.5371399-2.7944031,1.9581604-3.013916l3.772644-0.5827637l-3.98349-0.4050903
			c-1.2314148-0.1252441-2.1521912-1.1880493-2.100647-2.4247742l0,0c0.0487061-1.1691895,0.9538879-2.1225281,2.118988-2.2317505
			l5.7446289-0.5385437l2.0935059,0.0523376l-1.4654541-2.3551941l-3.3051147-0.3305206
			C355.7512817,254.6439972,354.903595,253.7308044,354.8755798,252.6236725z"/>
		<polyline class="st5" points="358.8570862,263.0511475 362.3954163,263.0511475 366.2286072,263.7232666 		"/>
		<polyline class="st5" points="359.210907,268.2679138 362.938446,267.7283325 366.2286072,268.5627747 		"/>
	</g>
</g>
<g id="WOMAN_1_LEFT_LEG">
	<g>
		<g>
			<path class="st4" d="M246.3652954,422.8112488l-0.5988159,13.7728271c0,0-3.0796356,2.0531006-6.8436432,0l-1.026535-14.7993774
				L246.3652954,422.8112488z"/>
			<g>
				<path class="st2" d="M233.7901154,448.6459351c-0.3686066,3.6062012,0.0801392,8.0881958,1.1120605,13.1954956
					l2.9941254-0.0000305c0,0,1.3687286-8.0626831,2.9085388-11.6555786
					C242.3446655,446.5928955,235.2444,445.480835,233.7901154,448.6459351z"/>
				<path class="st0" d="M237.8963013,434.5309753c0,0,3.2507172,1.6253662,8.8967285,0
					c0,0,9.2389221,15.5692749,12.4040833,18.3923035c3.1651917,2.822998,10.0943909,5.9026184,12.4896545,7.1858215
					c2.3952637,1.2831726-15.9114685,2.2241821-20.188736,1.4542542c-4.2772827-0.7698975-7.8701935-6.1592712-11.4631042-9.0678101
					s-6.244812-3.8495483-6.244812-3.8495483S234.7311096,440.6902466,237.8963013,434.5309753z"/>
			</g>
		</g>
		<path class="st2" d="M247.9950714,340.5299683c5.9502563,2.2342834,9.532547,8.3201599,8.5980072,14.6069641l-0.5980225,4.0230408
			l-6.8099976,64.9299927c0,0-9.6199951,1.8000488-14.1100464-0.6399536c0,0-1.4099731-22.5800171-2.9499512-34.3900146
			c-1.1000366-8.4000244-0.6300049-16.5499878,0.0999756-23.9299927
			c-14.2299805-1.7600098-33.1599731-4.4899902-50.5499878-8.1900024
			c-33.6699829-7.1700439-50.8900146-16.4299927-48.7700195-29.6700439
			c2.1300049-13.2299805,14.5200195-15.6699829,14.5200195-15.6699829s29.6300049,1.9700317,41.1099854,5.7600098
			c11.4700317,3.7800293,59.460022,23.1699829,59.460022,23.1699829H247.9950714z"/>
		<path class="st7" d="M219.2841797,329.0644531c14.6937866,5.8020325,28.7108765,11.4655151,28.7108765,11.4655151h0.0000153
			c4.4626923,1.6756897,7.593399,5.5179443,8.4855804,9.9865723"/>
		<line class="st7" x1="238.580658" y1="356.8556519" x2="180.561676" y2="343.0849609"/>
		<path class="st7" d="M239.4361115,421.3569641c0,0-3.2507324-30.1119995-3.0796356-37.297821
			s2.2241821-27.2034912,2.2241821-27.2034912"/>
	</g>
</g>
<g id="WOMAN_1_RIGHT_LEG">
	<g>
		<g>
			<path class="st4" d="M217.9412231,422.8112488l-0.5988159,13.7728271c0,0-3.0796356,2.0531006-6.8436432,0l-1.0265503-14.7993774
				L217.9412231,422.8112488z"/>
			<g>
				<path class="st2" d="M205.3660278,448.6459351c-0.3685913,3.6062012,0.0801392,8.0881958,1.1120758,13.1954956
					l2.9941101-0.0000305c0,0,1.3687286-8.0626831,2.9085541-11.6555786
					C213.920578,446.5928955,206.8203278,445.480835,205.3660278,448.6459351z"/>
				<path class="st0" d="M209.4722137,434.5309753c0,0,3.2507324,1.6253662,8.8967438,0
					c0,0,9.2389069,15.5692749,12.4040985,18.3923035c3.1651764,2.822998,10.0943604,5.9026184,12.4896393,7.1858215
					c2.3952789,1.2831726-15.9114685,2.2241821-20.188736,1.4542542c-4.2772827-0.7698975-7.8701935-6.1592712-11.4631042-9.0678101
					s-6.2448273-3.8495483-6.2448273-3.8495483S206.3070374,440.6902466,209.4722137,434.5309753z"/>
			</g>
		</g>
		<path class="st2" d="M219.5709839,340.5299683c0,0-47.9899902-19.3899536-59.460022-23.1699829
			c-0.036438-0.0120239-0.0730591-0.0240479-0.1098633-0.0360413c-7.8244324-2.5497437-16.184906,2.0826721-18.3705597,10.01651
			v0.000061c-3.7605286,13.6505432,4.914917,27.6064148,18.8210754,30.2706299
			c16.1797791,3.099823,35.3342743,6.5275269,43.34935,7.5188599c-0.7299805,7.3800049-1.2000122,15.5299683-0.0999756,23.9299927
			c1.539978,11.8099976,2.9499512,34.3900146,2.9499512,34.3900146c4.4900513,2.4400024,14.1100464,0.6399536,14.1100464,0.6399536
			l6.8099976-64.9299927l0.5980225-4.0230713C229.1035156,348.8500977,225.5212402,342.7642212,219.5709839,340.5299683z"/>
		<path class="st7" d="M227.1378021,363.2901917l0.4331818-4.1302185l0.5980225-4.0230713
			c0.9345093-6.2868042-2.6477661-12.3726807-8.5980225-14.6069336c0,0-12.3442688-4.9876099-26.007782-10.396759"/>
		<line class="st7" x1="210.1565857" y1="356.8556519" x2="152.1375885" y2="343.0849609"/>
		<path class="st7" d="M211.0120392,421.3569641c0,0-3.2507324-30.1119995-3.0796356-37.297821
			c0.1710815-7.1858215,2.2241821-27.2034912,2.2241821-27.2034912"/>
	</g>
</g>
<g id="WOMAN_1_LEFT_UPPER_ARM">
	<g>
		<path class="st0" d="M199.9385986,228.9642029c0,0,13.1540222,21.7399902,27.1483307,55.1691895
			c1.2753906,3.0466309,0.8489075,6.5469055-1.1156464,9.2019348l0,0c0,0-10.40065,6.2798157-14.6714172,5.2836609
			c-4.2707672-0.9961853-18.739212-25.4481506-24.9310913-44.8647614
			C178.143631,227.9616089,199.9385986,228.9642029,199.9385986,228.9642029z"/>
	</g>
</g>
<g id="WOMAN_1_BODY">
	<g>
		<g>
			<path class="st3" d="M173.6333466,218.4421082L154.89888,234.7385254c0,0-19.2477264,95.2121277-18.477829,95.2121277
				c0.7699127,0,25.8347473,7.9557495,48.589859,3.592926s26.8612823-10.2654724,26.8612823-10.2654724l-11.0353699-61.5927429
				l-2.4380493-30.2831116L173.6333466,218.4421082z"/>
			<path class="st5" d="M136.421051,329.9506531c0.7699127,0,25.8347473,7.9557495,48.589859,3.592926
				s26.8612823-10.2654724,26.8612823-10.2654724"/>
			<path class="st5" d="M147.4564209,328.0686646c0,0,36.7845764,3.592926,60.5662231-7.1858215"/>
		</g>
		<path class="st0" d="M173.6333466,293.5082703c-2.2275848,38.834198-16.9380035,70.8316956-16.9380035,70.8316956
			c-14.5461426,8.2123718-35.7340698,3.9316101-35.7340698,3.9316101s13.8378296-55.7721863,17.2562408-78.3562012
			s6.0361023-55.9467621,6.0361023-55.9467621s14.17659-12.4314575,24.2675629-16.2502441
			c-0.4619598,4.7939606-2.1660614,24.6371002-0.4516907,38.8342438
			C170.0404358,272.8027954,173.6333466,293.5082703,173.6333466,293.5082703z"/>
		<g>
			<path class="st0" d="M203.1465454,270.7959595c0,0,2.6947021-11.1636963,2.4380493-14.3716431
				c-0.2566528-3.2080078-5.6459961-21.1725464-5.6459961-21.1725464v-6.2875977
				c-10.2654419-6.9291992-21.8140869-11.2457886-21.8140869-11.2457886s4.5766602,12.4862061,6.8864136,21.0407715
				c2.3096924,8.5545654,12.0618896,49.274231,12.0618896,49.274231s3.7409668,32.1096802,3.8046265,33.7597046
				l16.4430695,6.4968262C211.9645538,301.0958252,203.1465454,270.7959595,203.1465454,270.7959595z"/>
			<path class="st1" d="M199.9385986,230.8251648v4.4266357c0,0,5.3893585,17.9645538,5.6459961,21.1725159
				c0.2566376,3.2079468-2.4380493,14.3716431-2.4380493,14.3716431s2.4585876,9.5026245,5.5648193,22.7098083"/>
		</g>
		<g>
			<path class="st0" d="M171.751358,214.3786926c-5.1714172,0.809433-9.6666565,12.3185577-11.5914307,22.4984741
				l5.7957153,5.3038177l-5.7957153,10.2654572c0,0,8.6828766,21.7285461,13.4734192,41.0618286
				c0,0-2.2241821-31.4807434-3.7639923-48.8464661c0.299408-17.8362427,8.5117798-18.4855804,15.1415558-1.710907
				c6.4159088,18.5633545,12.0619049,45.082489,12.0619049,45.082489s0.6843719-26.5191345-0.6843567-40.8052216
				l-8.5545502-6.5870056l2.5663605-6.6725464C190.4002686,233.9686127,181.5890808,212.8388672,171.751358,214.3786926z"/>
			<path class="st1" d="M197.0728149,288.0333862c0,0,0.6843719-26.5191345-0.6843567-40.8052216l-8.5545502-6.5870056
				l2.5663605-6.6725464c0,0-2.9848785-7.1579132-7.419754-12.8378906"/>
			<path class="st1" d="M165.6378632,220.3430786c-2.4315186,4.442215-4.3759766,10.7059784-5.4779358,16.5340881
				l5.7957153,5.3038177l-5.7957153,10.2654572c0,0,6.6292877,16.5895386,11.4986725,33.6750793"/>
		</g>
	</g>
</g>
<g id="WOMAN_1_NECK">
	<g>
		<path class="st4" d="M185.0074921,242.9508972c-1.2831726,4.7015228-4.9582214,6.7546234-4.9582214,6.7546234
			c-5.4715118-0.4208527-10.1833191-5.0403137-10.1833191-5.0403137v-18.0569763
			c-0.0615997-4.9171295-1.2011108-16.7531738-1.6322479-21.064682c-0.1026306-1.0060577-0.1642151-1.6014099-0.1642151-1.6014099
			l8.4690094,1.8067322c0,0,0.1847687,3.9932251,0.5337524,8.4381866c0.3387909,4.2293549,0.8520508,8.8796387,1.5193329,10.8813629
			C179.9671173,229.1745911,185.0074921,242.9508972,185.0074921,242.9508972z"/>
		<path class="st2" d="M177.0722504,214.1870575c-4.8760834-1.5090027-7.48349-5.4509583-8.8385468-8.6435089
			c-0.1026306-1.0060577-0.1642151-1.6014099-0.1642151-1.6014099l8.4690094,1.8067322
			C176.5384979,205.7488708,176.7232666,209.7420959,177.0722504,214.1870575z"/>
	</g>
</g>
<g id="WOMAN_1_HEAD">
	<g>
		<g>
			<path class="st2" d="M168.1183929,181.1229401c0,0-1.3378296-7.9231262-6.4953461-11.1509247
				c-5.1575317-3.2278137-10.7634888,1.3592072-13.7761993,8.1382599
				c-3.0127258,6.7790527,0.2842865,14.4260559,10.2220001,10.2707367
				C165.8760223,185.1165466,168.1183929,181.1229401,168.1183929,181.1229401z"/>
			<path class="st2" d="M166.6143188,180.769043c0,0-10.5560303,1.9663239-12.23703,10.4599762
				c-1.6809998,8.4936371,10.5347595,19.4797974,19.7300873,17.341095s9.4653015-9.4043579,9.4653015-9.4043579
				s6.9712677,1.5910034,9.2151489-4.8982239c2.2438965-6.489212-0.7352905-8.7392273-4.431427-9.1983643
				c0,0,3.9188232-7.6989136-3.3483734-10.8702698C177.7408142,171.0275421,170.75737,173.2104797,166.6143188,180.769043z"/>
			<path class="st7" d="M166.6143188,180.769043c-0.0037994,0.0007019-7.7601929,1.4467926-11.0323792,7.2105713"/>
		</g>
		<g>
			<path class="st4" d="M184.5672302,191.123642c0,0,1.6947937,6.8247986-0.521637,14.2674255
				c-2.2164307,7.4426117-8.3319244,6.3321228-13.4375763,1.9068451
				c-5.1056671-4.4252777-6.0102844-14.0965424-6.0102844-14.0965424s-0.3051147-8.1946564,5.7279816-9.9443512
				C176.3588104,181.507309,182.7122803,184.5840912,184.5672302,191.123642z"/>
			<path class="st2" d="M170.3043671,185.8136444c0,0,5.8485718,8.7819214,16.9400177,7.8666229
				c0,0-2.7977142-15.88591-16.4107056-13.0241241c-13.6130066,2.8617706-11.1356506,13.9211884-5.3877869,17.4083099
				C165.4458923,198.0644531,170.1716919,195.1477966,170.3043671,185.8136444z"/>
			<g>
				<g>
					<path class="st4" d="M168.4617004,202.4851685l-1.5396881-5.0878448c0,0-2.1519012-3.7576447-5.6217651-2.9064484
						C157.8303986,195.3420868,158.2504272,204.4286194,168.4617004,202.4851685z"/>
					<path class="st5" d="M161.6101837,196.5817413c0,0,3.4345245,0.745163,5.4557343,3.7632446"/>
					<path class="st5" d="M163.1756744,200.3793182c0,0,0.1253357-1.3733368,0.8455963-2.8102722"/>
				</g>
				<path class="st8" d="M165.7545624,201.3355103c1.3142548,0.427124,1.7937012,2.5764008,1.0708771,4.8005371
					c-0.7228394,2.2241516-2.3742371,3.6809082-3.6885071,3.2537842c-1.3142548-0.4271393-1.7937012-2.576416-1.0708771-4.8005524
					c0.2789154-0.8582153,0.6960907-1.6021729,1.1788025-2.1677399"/>
			</g>
		</g>
	</g>
</g>
<g id="WOMAN_1_FACE">
	<g>
		<path class="st2" d="M170.8182831,193.7276917c0,0,1.5241852-3.1030273,3.8786469-1.9271545
			c0,0,0.0616913-0.704071,0.6768494-0.7213898s0.6819763,1.9071808,0.6819763,1.9071808
			S173.2319489,192.7616272,170.8182831,193.7276917z"/>
		<path class="st2" d="M184.0414734,195.1663208c0,0-0.1983948-3.1554718-2.0180054-2.2751312
			c0,0-0.0482941-0.5824585-0.4438477-0.6470947c-0.6841278-0.1117859-0.8188782,1.7010651-0.8188782,1.7010651
			S182.7265625,193.9753265,184.0414734,195.1663208z"/>
		<g>
			
				<ellipse transform="matrix(0.0285071 -0.9995936 0.9995936 0.0285071 -28.1026878 365.8326721)" class="st2" cx="174.1559143" cy="197.3741302" rx="1.6047732" ry="1.2979783"/>
			<circle class="st6" cx="174.4581757" cy="196.8131714" r="0.3451442"/>
		</g>
		<g>
			
				<ellipse transform="matrix(0.0285071 -0.9995936 0.9995936 0.0285071 -20.8952923 373.6845093)" class="st2" cx="181.7990723" cy="197.5921021" rx="1.6047732" ry="1.2979783"/>
			<circle class="st6" cx="182.1013336" cy="197.0311432" r="0.3451442"/>
		</g>
		<path class="st5" d="M178.4308014,197.1617432l-0.0656891,3.1381531c0,0,2.2449341,0.0819397,1.7068024,1.3469086
			c-0.5286255,1.242569-2.2658539,0.7558136-2.2658539,0.7558136"/>
		<path class="st5" d="M178.6603241,205.8463593c0,0-2.9398041,0.9430542-5.6466675-2.0229797"/>
	</g>
</g>
<g id="WOMAN_1_LEFT_ARM">
	<g>
		<path class="st2" d="M202.7253418,283.9820251c-7.1607513,10.0135498,9.0471344,32.7839661,22.3009949,21.537262
			s4.3766479-21.5588989-2.309433-25.5001526C216.0308228,276.0778503,207.8165283,276.8625183,202.7253418,283.9820251z"/>
		<g>
			<path class="st4" d="M212.7207947,275.6534729c-0.5175781-0.0211182-4.6981506,4.6195374-5.2175598,6.1332703
				c0.1289673,0.5626221,0.2672119,1.1380005,0.4122314,1.7136841l-0.0088501,0.0027466
				c1.7912598,6.9793701,4.3092041,15.0610352,4.3092041,15.0610352s3.8153687,6.7625732,11.1103516,2.444397
				c7.2949829-4.3181152,1.8753052-10.4123535,1.8753052-10.4123535L212.7207947,275.6534729z"/>
			<path class="st5" d="M199.0319061,269.4440613c0,0,2.5070343,3.480835,3.2841797,5.4730225"/>
			<path class="st5" d="M201.6322479,267.8444519c0,0,2.3937988,3.5257874,3.1321106,5.5194702"/>
			<path class="st5" d="M204.2944641,266.7513733c0,0,1.9664001,3.5795288,2.5740662,5.7144165"/>
		</g>
		<path class="st2" d="M173.2481995,259.0412598L173.2481995,259.0412598
			c0.8694153-0.6844177,1.9437561-1.0565491,3.0502472-1.0565491h3.8931427c1.367218,0,2.6730499,0.5675964,3.6056976,1.5673218
			l0.0823517,0.0882568h13.4257507l0.7305145-0.7305298c0.7849884-0.7849731,1.8496552-1.2259827,2.9597931-1.2259827h3.505661
			c0.9559631,0,1.8831329,0.32724,2.6273193,0.9272766l2.3466034,1.8920288
			c1.5932312,1.2846375,2.0239258,3.532959,1.018219,5.3154297l0,0l-0.8299255,13.6659241
			c-0.134491,2.2145996-1.9697418,3.9417725-4.1884155,3.9417725h-0.0000153c-1.6707306,0-3.1822815-0.9911499-3.8482971-2.523407
			l-3.2521515-7.4819031h-13.5286407l-6.7816162,7.8405762c-1.1890564,1.3746948-2.9169006,2.1647339-4.7344971,2.1647339
			h-0.0000153c-4.2070923,0-7.2164307-4.0671997-5.9861298-8.0903625l4.2390289-13.8619995
			C171.8769073,260.512146,172.4580078,259.6633301,173.2481995,259.0412598z"/>
		<g>
			<path class="st4" d="M203.3435669,261.7723999L203.3435669,261.7723999
				c-0.0271149-1.0714111,0.8196411-1.9618835,1.8910675-1.988678l4.4227753-0.1105652
				c0.661377-0.0165405,1.3027191,0.2277222,1.785553,0.6799927l1.9765625,1.8514709
				c0.5967255,0.55896,0.9877777,1.3026123,1.1100769,2.1110229l0.3658142,2.4180603l0.0462494,0.0707397
				c0.9252777,1.4154358,0.7584381,3.2808533-0.4033508,4.509613l0,0l0.1956329,0.3562317
				c0.7360992,1.3403015,0.5608521,2.9970703-0.4393768,4.153717l0,0l0.1374512,0.9449768
				c0.196991,1.3542786-0.4052124,2.7006226-1.5460663,3.4564514l0,0c-0.697464,0.4620972-1.5361786,0.6618958-2.3670502,0.5638733
				l-3.804245-0.448761l-1.834137,0.2789307c-0.9349976,0.1421814-1.848587-0.362793-2.2256012-1.2301331l0,0
				c-0.4871368-1.120697,0.0895844-2.4181824,1.2479095-2.8074951l1.9798889-0.6654053l-3.1746979-0.2514648
				c-0.8957977-0.0709534-1.6505585-0.6968384-1.8860779-1.5640259l0,0
				c-0.3328247-1.2253418,0.4743347-2.4676819,1.7292023-2.6615295l3.3315735-0.5146484l-3.5177612-0.3577271
				c-1.0874634-0.1105957-1.9005737-1.0491333-1.8550568-2.1412659l0,0
				c0.0430145-1.0325317,0.8423615-1.8744202,1.8712616-1.9708557l5.072998-0.4755554l1.8487549,0.0462036l-1.2941284-2.0798645
				l-2.9187164-0.2918701C204.1169128,263.5565491,203.3683319,262.7501221,203.3435669,261.7723999z"/>
			<polyline class="st5" points="206.8596039,270.9808044 209.9842529,270.9808044 213.3692932,271.5743408 			"/>
			<polyline class="st5" points="207.1720581,275.5876465 210.4638062,275.111145 213.3692932,275.8480225 			"/>
		</g>
	</g>
</g>
<g id="WOMAN_1_RIGHT_ARM">
	<g>
		<g>
			<g>
				<path class="st0" d="M144.2536163,233.9686127c7.4923859-0.1092834,20.7762909,8.5961609,20.8540649,24.4233856
					c0.0695648,14.1555481-4.4427185,46.2399292-7.8325806,50.3921814c-0.8474579,1.0380859-2.0025024,1.7060852-3.2583618,2.124176
					c-5.9313049,1.9746094-12.2345886-1.9823303-13.5087738-8.102478c-0.7207184-3.461731-0.8082428-7.6799011-0.4928589-12.3793945
					c0,0-0.0345154-32.8486023,0.9854431-43.8743286C142.0204926,235.526413,144.2536163,233.9686127,144.2536163,233.9686127z"/>
			</g>
			<g>
				<g>
					<path class="st1" d="M148.7309418,234.7495728c7.3525848,2.4590759,16.3128967,10.6519012,16.3767395,23.6424255
						c0.0695648,14.1555481-4.4427185,46.2399292-7.8325806,50.3921814
						c-0.8474579,1.0380859-2.0025024,1.7060852-3.2583618,2.124176c-5.9313049,1.9746094-12.2345886-1.9823303-13.5087738-8.102478
						c-0.7207184-3.461731-0.8082428-7.6799011-0.4928589-12.3793945c0,0-0.0021362-2.0376587,0.0104065-5.2683105"/>
				</g>
			</g>
		</g>
		<path class="st2" d="M171.0269012,287.8554688c6.084198,10.7018738-12.3967133,31.6695557-24.4133606,19.1095581
			s-2.1183319-21.8964233,4.9402771-25.1233826C158.6124268,278.6146545,166.7011261,280.246582,171.0269012,287.8554688z"/>
		<g>
			<path class="st4" d="M181.9299927,262.4299927l-4.2999878,1.039978c0,0,0.0200195,0,0.0700073,0l1.8699951,0.1900024
				c1.0999756,0.1199951,2.0100098,0.9100342,2.2700195,1.9899902l0.7099609,2.9700317
				c0.1500244,0.6499634,0.0499878,1.3399658-0.289978,1.9199829L182,270.9899902l0.5,1.0899658
				c0.4699707,1.0400391,0.3599854,2.25-0.2999878,3.1700439l-0.0800171,0.1300049
				c-0.210022,0.2999878-0.5499878,0.4699707-0.9099731,0.4699707c-0.5100098,0-0.9500122-0.3599854-1.0599976-0.8499756
				l-1.8000488-2.6799927v-0.0100098c-0.0899658,0-0.1699829-0.0100098-0.2599487-0.0200195
				c-0.6500244-0.1099854-1.2300415-0.2000122-1.5300293-0.1799927l1.4799805,1.3400269
				c0.5800171,0.5199585,0.9800415,1.2199707,1.1500244,1.9699707l0.5700073,2.6900024
				c0.1400146,0.6599731-0.1600342,1.3400269-0.7399902,1.6799927C178.7600098,279.9400024,178.4899902,280,178.2199707,280
				c-0.5599976,0-1.0899658-0.2999878-1.3699951-0.8200073l-0.7299805-1.3699951
				c-0.2299805,0.0700073-0.4400024,0.1599731-0.6500244,0.2799683c-2.1199951,1.2200317-2.0999756,4.1400146-4.2199707,5.3400269
				c-0.789978,0.4400024-2.1400146,0.6699829-3.4000244,0.789978c0,0-4.2099609,14.960022-6.4299927,16.4800415
				c-2.2299805,1.5299683-7.0199585,1.6399536-10.1199951-2.4100342c-3.0999756-4.0599976,0-8.3300171,0-8.3300171l11.25-13.9899902
				l7.5499878-14c0.460022-0.3800049,0.8699951-0.6799927,1.1700439-0.8699951
				c1.9699707-1.1799927,7.4199829-1.8499756,10.1799927-2.1099854c1.0100098-0.0999756,1.9099731,0.6799927,1.8999634,1.7399902
				C183.3599854,261.5599976,182.7299805,262.25,181.9299927,262.4299927z"/>
			<path class="st5" d="M174.4330139,274.6217346c0,0-1.0218811-1.4368286-0.1503448-2.1525269
				c0.871521-0.7157288-2.1636963-1.9151306-1.2410736-3.5115051c0.9226074-1.596344-1.8663635-2.0761414-1.0915985-3.7955017
				c0.6653137-1.4765015-1.5278015-1.0409851-0.931488-3.0698853"/>
			<line class="st5" x1="173.5438538" y1="264.0552673" x2="176.3559265" y2="263.5477295"/>
			<path class="st5" d="M174.6100769,267.8239136l1.9759064-0.1765137l1.4335785,0.010437
				c0.701889,0.005127,1.3612061,0.3374329,1.7828369,0.8986206l1.342514,1.7868652"/>
		</g>
	</g>
</g>
<g id="RIGHT_REST_ARM">
	<g>
		<path class="st2" d="M171.7427216,461.8414001H85.0382767c-12.0511017,0-21.8204536-9.7693787-21.8204536-21.8204651v-99.2851868
			c0-12.0510864,9.769352-21.8204651,21.8204536-21.8204651h86.7044449c12.0511017,0,21.8204651,9.7693787,21.8204651,21.8204651
			v99.2851868C193.5631866,452.0720215,183.7938232,461.8414001,171.7427216,461.8414001z"/>
		<path class="st7" d="M74.7899094,321.4668274c3.0555878-1.62854,6.5441895-2.5515442,10.2483673-2.5515442h86.7044449"/>
		<path class="st3" d="M171.7427216,461.8414001h-0.0000458c-12.0511017,0-21.8204498-9.7693787-21.8204498-21.8204651v-99.2851868
			c0-12.0510864,9.7693481-21.8204651,21.8204498-21.8204651h0.0000458c12.0511017,0,21.8204651,9.7693787,21.8204651,21.8204651
			v99.2851868C193.5631866,452.0720215,183.7938232,461.8414001,171.7427216,461.8414001z"/>
		<path class="st5" d="M171.7427216,318.9152832c12.0511017,0,21.8204651,9.7693787,21.8204651,21.8204651v99.2851868
			c0,6.1451111-2.5402222,11.6968994-6.6278839,15.6626587"/>
		<circle class="st6" cx="171.7427063" cy="340.4957581" r="12.8985691"/>
	</g>
</g>
<g id="PLANT">
	<g>
		<g>
			<g>
				<path class="st0" d="M74.078392,400.7287903c0,0,15.5961227-24.1811523,9.2161026-58.184906
					s-25.1606445-36.1611328-33.8273773-30.0316772c-8.6667366,6.1294861-10.2626839,24.6928406-1.43573,41.9987488
					C56.8583412,371.8168335,71.1819,391.3340759,74.078392,400.7287903z"/>
				<path class="st1" d="M57.3401947,321.0325928c0,0,16.9588394,21.5547791,17.5899506,70.9534912"/>
			</g>
			<g>
				<path class="st3" d="M72.1989441,398.2849426c0,0-11.1048203-6.555542-26.8441696-13.2002869
					s-25.8534031-19.9533386-24.3955841-31.4806519c1.4578171-11.5273132,16.2230797-16.2254028,32.2125626-0.3560486
					C68.6617889,368.6216431,72.1989441,398.2849426,72.1989441,398.2849426z"/>
				<path class="st9" d="M69.7482224,394.2889709c-9.0506668-14.41922-21.681469-30.9092102-37.7389793-43.3254089"/>
			</g>
			<g>
				<path class="st3" d="M77.7871857,400.3080444c0,0,8.9039078-9.328064,22.2434769-20.0021057
					c13.3395767-10.6740723,19.4538345-26.2313538,14.9165573-36.927948s-20.023674-11.2028809-31.0956955,8.4162598
					C73.125351,370.8005676,77.7871857,400.3080444,77.7871857,400.3080444z"/>
				<path class="st9" d="M79.059021,395.7962341c4.7889481-16.3368835,12.4600906-35.6400146,24.5365219-51.9545898"/>
			</g>
		</g>
		<g>
			<path class="st3" d="M113.763588,393.8214417c-0.2399902,13.5100098-2.1399536,25.3899536-4.5999756,35.2799683
				c-1.7199707,6.960022-3.7299805,12.9299927-5.6300049,17.7999878c-2.6199951,6.7200317-5.0499878,11.3200073-6.2799683,13.5
				c-0.5,0.9000244-1.4400024,1.4400024-2.460022,1.4400024H57.9436378c-1.0200195,0-1.960022-0.539978-2.460022-1.4400024
				c-3.4000244-6-15.8699951-30.4899902-16.5100098-66.5799561c-0.0299683-1.6000366,1.2399902-2.9100342,2.8300171-2.9100342
				h69.1300049C112.5235977,390.9114075,113.7936172,392.221405,113.763588,393.8214417z"/>
			<path class="st10" d="M109.1636124,429.1014099c-1.7199707,6.960022-3.7299805,12.9299927-5.6300049,17.7999878
				c-4.3800049-6.8399658-13.289978-15.6999512-31.4400024-22.7599487
				c-15.3399696-5.9800415-20.8999672-21.8500366-22.8900185-33.2300415h16.910038
				c2.7299805,8.1199951,8.9500122,18.2200317,23.1099854,24.0200195
				C98.4436417,418.7113953,104.8136368,423.9814148,109.1636124,429.1014099z"/>
			<path class="st10" d="M66.6258926,429.7720642c-16.2528572-9.2640076-12.1188164,12.1118469,5.9405899,21.3791504
				C90.6258926,460.4185486,85.3981705,440.4721069,66.6258926,429.7720642z"/>
		</g>
	</g>
</g>
<g id="TV">
	<g>
		<g>
			<g>
				<path class="st3" d="M561.7712402,326.1059265H379.62854c-2.6393433,0-4.7789307-2.1396179-4.7789307-4.7789307V187.6071777
					c0-2.639328,2.1395874-4.7789307,4.7789307-4.7789307h182.1427002c2.6393433,0,4.7789307,2.1396027,4.7789307,4.7789307
					v133.7198181C566.5501709,323.9663086,564.4105835,326.1059265,561.7712402,326.1059265z"/>
				<path class="st2" d="M380.460144,326.1059265h-0.831604c-2.6393433,0-4.7789307-2.1396179-4.7789307-4.7789307V187.6071777
					c0-2.639328,2.1395874-4.7789307,4.7789307-4.7789307h0.831604c2.6393127,0,4.7789307,2.1396027,4.7789307,4.7789307
					v133.7198181C385.2390747,323.9663086,383.0994568,326.1059265,380.460144,326.1059265z"/>
			</g>
			<g>
				<g>
					<rect x="468.127594" y="305.068512" class="st2" width="8.0198021" height="36.5346718"/>
					
						<rect x="476.1473694" y="305.068512" transform="matrix(-1 -1.224647e-16 1.224647e-16 -1 970.4135742 646.6716919)" class="st2" width="18.1188126" height="36.5346718"/>
					<line class="st7" x1="476.1473694" y1="305.068512" x2="476.1473694" y2="340.0645142"/>
				</g>
				<g>
					<path class="st3" d="M515.7756958,349.9703064h-69.1576233c-2.3105164,0-4.1835632-1.8730469-4.1835632-4.1835632l0,0
						c0-2.3105164,1.8730469-4.1835632,4.1835632-4.1835632h69.1576233c2.3105469,0,4.1835938,1.8730469,4.1835938,4.1835632l0,0
						C519.9592896,348.0972595,518.0862427,349.9703064,515.7756958,349.9703064z"/>
					<path class="st2" d="M469.6172791,349.9703064h-22.9992065c-2.3105164,0-4.1835632-1.8730469-4.1835632-4.1835632l0,0
						c0-2.3105164,1.8730469-4.1835632,4.1835632-4.1835632h22.9992065c2.3105164,0,4.1835632,1.8730469,4.1835632,4.1835632l0,0
						C473.8008423,348.0972595,471.9277954,349.9703064,469.6172791,349.9703064z"/>
				</g>
			</g>
			<g>
				<path class="st3" d="M536.4124756,305.068512H425.9813232c-2.4783325,0-4.4873962-2.0090637-4.4873962-4.4873962v-80.2696228
					c0-2.4783173,2.0090637-4.487381,4.4873962-4.487381h110.4311523c2.4783325,0,4.4873657,2.0090637,4.4873657,4.487381
					v80.2696228C540.8998413,303.0594482,538.8908081,305.068512,536.4124756,305.068512z"/>
				<path class="st5" d="M536.4124756,305.068512H425.9813232c-2.4783325,0-4.4873962-2.0090637-4.4873962-4.4873962v-80.2696228
					c0-2.4783173,2.0090637-4.487381,4.4873962-4.487381h110.4311523c2.4783325,0,4.4873657,2.0090637,4.4873657,4.487381
					v80.2696228C540.8998413,303.0594482,538.8908081,305.068512,536.4124756,305.068512z"/>
				<g>
					<path class="st2" d="M447.6919556,293.2415771h-0.0000305c-1.5256042,0-2.7623596-1.2367859-2.7623596-2.7623901v-60.0657501
						c0-1.5256195,1.2367554-2.7623749,2.7623596-2.7623749h0.0000305c1.5256042,0,2.7623596,1.2367554,2.7623596,2.7623749
						v60.0657501C450.4543152,292.0047913,449.2175598,293.2415771,447.6919556,293.2415771z"/>
					<path class="st2" d="M467.1176758,293.2415771L467.1176758,293.2415771c-1.5256042,0-2.7623596-1.2367859-2.7623596-2.7623901
						v-60.0657501c0-1.5256195,1.2367554-2.7623749,2.7623596-2.7623749l0,0c1.5256348,0,2.7623901,1.2367554,2.7623901,2.7623749
						v60.0657501C469.8800659,292.0047913,468.6433105,293.2415771,467.1176758,293.2415771z"/>
					<path class="st2" d="M486.5434265,293.2415771L486.5434265,293.2415771c-1.5256348,0-2.7623901-1.2367859-2.7623901-2.7623901
						v-60.0657501c0-1.5256195,1.2367554-2.7623749,2.7623901-2.7623749l0,0c1.5256042,0,2.7623596,1.2367554,2.7623596,2.7623749
						v60.0657501C489.3057861,292.0047913,488.0690308,293.2415771,486.5434265,293.2415771z"/>
					<path class="st2" d="M505.9691772,293.2415771L505.9691772,293.2415771c-1.5256348,0-2.7623901-1.2367859-2.7623901-2.7623901
						v-60.0657501c0-1.5256195,1.2367554-2.7623749,2.7623901-2.7623749l0,0c1.5256042,0,2.7623596,1.2367554,2.7623596,2.7623749
						v60.0657501C508.7315369,292.0047913,507.4947815,293.2415771,505.9691772,293.2415771z"/>
					<path class="st2" d="M525.3948975,293.2415771L525.3948975,293.2415771c-1.5256348,0-2.7623901-1.2367859-2.7623901-2.7623901
						v-60.0657501c0-1.5256195,1.2367554-2.7623749,2.7623901-2.7623749l0,0c1.5256348,0,2.7623901,1.2367554,2.7623901,2.7623749
						v60.0657501C528.1572876,292.0047913,526.9205322,293.2415771,525.3948975,293.2415771z"/>
				</g>
				<path class="st2" d="M425.9813232,305.068512L425.9813232,305.068512c-2.4783325,0-4.4873962-2.0090637-4.4873962-4.4873962
					v-80.2696228c0-2.4783173,2.0090637-4.487381,4.4873962-4.487381l0,0c2.478302,0,4.4873962,2.0090637,4.4873962,4.487381
					v80.2696228C430.4687195,303.0594482,428.4596252,305.068512,425.9813232,305.068512z"/>
			</g>
		</g>
	</g>
</g>
<g id="TABLE">
	<g>
		<g>
			<g>
				<rect x="475.7643433" y="367.1702271" class="st2" width="14.859271" height="94.6711884"/>
				
					<rect x="490.6235962" y="367.1702271" transform="matrix(-1 -1.224647e-16 1.224647e-16 -1 990.1580811 829.0116577)" class="st3" width="8.9108915" height="94.6711884"/>
			</g>
			<rect x="470.5731201" y="419.1996155" class="st3" width="77.9040756" height="17.1999187"/>
			<g>
				<rect x="539.5662842" y="367.1702271" class="st2" width="14.859271" height="94.6711884"/>
				
					<rect x="554.4255981" y="367.1702271" transform="matrix(-1 -1.224647e-16 1.224647e-16 -1 1117.762085 829.0116577)" class="st3" width="8.9108915" height="94.6711884"/>
			</g>
		</g>
		<g>
			<path class="st0" d="M530.6113281,419.1996155h-106.816864c-2.9175415,0-5.2826843-2.3651428-5.2826843-5.2827148v-18.5599365
				c0-2.9175415,2.3651428-5.2827148,5.2826843-5.2827148h106.816864c2.9175415,0,5.2827148,2.3651733,5.2827148,5.2827148
				v18.5599365C535.894043,416.8344727,533.5288696,419.1996155,530.6113281,419.1996155z"/>
			<path class="st4" d="M530.6113281,419.1996155H482.184967c-2.9175415,0-5.2826843-2.3651428-5.2826843-5.2827148v-18.5599365
				c0-2.9175415,2.3651428-5.2827148,5.2826843-5.2827148h48.4263611c2.9175415,0,5.2827148,2.3651733,5.2827148,5.2827148
				v18.5599365C535.894043,416.8344727,533.5288696,419.1996155,530.6113281,419.1996155z"/>
			<g>
				<path class="st2" d="M511.1829529,398.4260559h-22.1185303c-0.929657,0-1.6833191-0.7536621-1.6833191-1.6833191l0,0
					c0-0.9296875,0.7536621-1.6833191,1.6833191-1.6833191h22.1185303c0.929657,0,1.6833191,0.7536316,1.6833191,1.6833191l0,0
					C512.866272,397.6723938,512.1126099,398.4260559,511.1829529,398.4260559z"/>
				<path class="st2" d="M511.1829529,405.7329712h-22.1185303c-0.929657,0-1.6833191-0.7536316-1.6833191-1.6833191l0,0
					c0-0.929657,0.7536621-1.6833191,1.6833191-1.6833191h22.1185303c0.929657,0,1.6833191,0.7536621,1.6833191,1.6833191l0,0
					C512.866272,404.9793396,512.1126099,405.7329712,511.1829529,405.7329712z"/>
				<path class="st2" d="M511.1829529,413.039917h-22.1185303c-0.929657,0-1.6833191-0.7536621-1.6833191-1.6833191l0,0
					c0-0.9296875,0.7536621-1.6833191,1.6833191-1.6833191h22.1185303c0.929657,0,1.6833191,0.7536316,1.6833191,1.6833191l0,0
					C512.866272,412.2862549,512.1126099,413.039917,511.1829529,413.039917z"/>
			</g>
			<circle class="st2" cx="525.3518677" cy="410.6236267" r="2.4162822"/>
		</g>
		<rect x="382.7672424" y="349.9703064" class="st3" width="188.5544586" height="17.1999187"/>
		<rect x="382.7672424" y="349.9703064" class="st2" width="105.8613892" height="17.1999187"/>
		<line class="st9" x1="488.6286316" y1="349.9703064" x2="566.5501709" y2="349.9703064"/>
		<g>
			<g>
				<rect x="391.9118652" y="367.1702271" class="st2" width="14.859271" height="94.6711884"/>
				
					<rect x="406.7711487" y="367.1702271" transform="matrix(-1 -1.224647e-16 1.224647e-16 -1 822.453186 829.0116577)" class="st3" width="8.9108915" height="94.6711884"/>
			</g>
			<rect x="406.7711487" y="419.1996155" class="st3" width="57.8535995" height="17.1999187"/>
			<g>
				<rect x="455.7138672" y="367.1702271" class="st2" width="14.859271" height="94.6711884"/>
				
					<rect x="470.5731201" y="367.1702271" transform="matrix(-1 -1.224647e-16 1.224647e-16 -1 950.0571289 829.0116577)" class="st3" width="8.9108915" height="94.6711884"/>
			</g>
		</g>
	</g>
</g>
<g id="GROUND">
	<g>
		<g>
			<line class="st11" x1="388.1716614" y1="461.7119446" x2="491.3962708" y2="461.7119446"/>
			<line class="st11" x1="39.6965485" y1="461.7119446" x2="363.3978271" y2="461.7119446"/>
		</g>
		<g>
			<line class="st11" x1="142.2692108" y1="479.4401245" x2="90.6848907" y2="479.4401245"/>
			<line class="st11" x1="455.2433167" y1="479.4401245" x2="159.0654144" y2="479.4401245"/>
		</g>
		<g>
			<line class="st11" x1="311.4246216" y1="497.168335" x2="346.384491" y2="497.168335"/>
			<line class="st11" x1="142.6720581" y1="497.168335" x2="299.8871765" y2="497.168335"/>
		</g>
	</g>
</g>
<g id="ORNAMENT_8">
	<g>
		<line class="st11" x1="36.4211578" y1="270.3852234" x2="36.4211578" y2="275.9250793"/>
		<line class="st11" x1="36.4211578" y1="281.8384399" x2="36.4211578" y2="287.3783264"/>
		<line class="st11" x1="44.9177132" y1="278.8817749" x2="39.3778343" y2="278.8817749"/>
		<line class="st11" x1="33.4644814" y1="278.8817749" x2="27.9246044" y2="278.8817749"/>
	</g>
</g>
<g id="ORNAMENT_7">
	<g>
		<line class="st11" x1="397.4051819" y1="144.5009613" x2="397.4051819" y2="150.0408325"/>
		<line class="st11" x1="397.4051819" y1="155.9541931" x2="397.4051819" y2="161.4940643"/>
		<line class="st11" x1="405.9017334" y1="152.9975128" x2="400.3618774" y2="152.9975128"/>
		<line class="st11" x1="394.4485168" y1="152.9975128" x2="388.9086304" y2="152.9975128"/>
	</g>
</g>
<g id="ORNAMENT_6">
	<g>
		<line class="st11" x1="126.1296234" y1="121.0341568" x2="126.1296234" y2="123.8040924"/>
		<line class="st11" x1="126.1296234" y1="126.7607727" x2="126.1296234" y2="129.5307159"/>
		<line class="st11" x1="130.3778992" y1="125.2824326" x2="127.6079636" y2="125.2824326"/>
		<line class="st11" x1="124.6512833" y1="125.2824326" x2="121.8813477" y2="125.2824326"/>
	</g>
</g>
<g id="ORNAMENT_5">
	<circle class="st11" cx="331.125" cy="159.2111206" r="4.3902001"/>
</g>
<g id="ORNAMENT_4">
	<circle class="st12" cx="44.9177132" cy="164.1970825" r="4.9859543"/>
</g>
<g id="ORNAMENT_3">
	<circle class="st12" cx="467.1176758" cy="131.9745178" r="4.9859543"/>
</g>
<g id="ORNAMENT_2">
	<circle class="st12" cx="99.3065338" cy="181.1826324" r="2.4443207"/>
</g>
<g id="ORNAMENT_1">
	<circle class="st12" cx="548.4772339" cy="337.9015503" r="3.8478177"/>
</g>
</svg>
