<?xml version="1.0" encoding="utf-8"?>
<!-- Generator: Adobe Illustrator 25.2.3, SVG Export Plug-In . SVG Version: 6.00 Build 0)  -->
<svg version="1.1" xmlns="http://www.w3.org/2000/svg" xmlns:xlink="http://www.w3.org/1999/xlink" x="0px" y="0px"
	 viewBox="0 0 600 600" style="enable-background:new 0 0 600 600;" xml:space="preserve">
<style type="text/css">
	.st0{fill:#9AB3DA;}
	.st1{fill:#F68D88;}
	.st2{fill:#FFABAB;}
	.st3{fill:none;stroke:#ECBDBB;stroke-width:1.0433227;stroke-linecap:round;stroke-linejoin:round;stroke-miterlimit:10;}
	.st4{fill:#B0C8EA;}
	.st5{fill:none;stroke:#D4E6FC;stroke-width:1.0433227;stroke-linecap:round;stroke-linejoin:round;stroke-miterlimit:10;}
	.st6{fill:none;stroke:#6B81BE;stroke-width:1.0433227;stroke-linecap:round;stroke-linejoin:round;stroke-miterlimit:10;}
	.st7{fill:#E9F3FF;}
	.st8{fill:#404B7C;}
	.st9{fill:#ECBDBB;}
	.st10{fill:none;stroke:#404B7C;stroke-width:1.0401611;stroke-linecap:round;stroke-linejoin:round;stroke-miterlimit:10;}
	.st11{fill:none;stroke:#9AB3DA;stroke-width:1.0361407;stroke-linecap:round;stroke-linejoin:round;stroke-miterlimit:10;}
	.st12{fill:none;stroke:#404B7C;stroke-width:1.0361407;stroke-linecap:round;stroke-linejoin:round;stroke-miterlimit:10;}
	.st13{fill:none;stroke:#ECBDBB;stroke-width:0.8894239;stroke-linecap:round;stroke-linejoin:round;stroke-miterlimit:10;}
	.st14{fill:none;stroke:#F68D88;stroke-width:1.0401611;stroke-linecap:round;stroke-linejoin:round;stroke-miterlimit:10;}
	.st15{fill:#FFFFFF;}
	.st16{fill:none;stroke:#ECBDBB;stroke-width:1.096442;stroke-linecap:round;stroke-linejoin:round;stroke-miterlimit:10;}
	.st17{fill:none;stroke:#404B7C;stroke-width:1.096442;stroke-linecap:round;stroke-linejoin:round;stroke-miterlimit:10;}
	.st18{fill:none;stroke:#9AB3DA;stroke-width:1.096442;stroke-linecap:round;stroke-linejoin:round;stroke-miterlimit:10;}
</style>
<g id="PLANTS">
	<g>
		<g>
			<path class="st0" d="M292.8942261,588.9266357c0,0-2.6116333-31.6269531-31.339447-38.3425293
				c-28.7278137-6.7156372,0,29.7185059,0,29.7185059S237.677124,561.4036255,223.1266632,567
				c-14.5504456,5.5963135-2.611618,17.2600708,20.8929596,22.2477417L292.8942261,588.9266357z"/>
			<path class="st0" d="M235.2213745,550.9571533c10.6066437,8.524292,7.0886688,13.6444092-1.865448,6.0760498
				C224.4017944,549.4647827,229.1309509,546.0625,235.2213745,550.9571533z"/>
		</g>
		<g>
			<path class="st1" d="M496.3321838,555.8377686c-1.1800537,0.9799805-2.4000244,1.9500122-3.6500244,2.9299927
				c-2.2200317,1.7299805-4.5200195,3.4500122-6.8599854,5.1500244
				c-13.6500244,9.9599609-28.3500366,19.1799927-33.6199951,25.3299561c0,0-4.8800049-29.6199951,15.3599854-59.5099487
				c2.4099731-3.5599976,4.9099731-6.7000122,7.4699707-9.4500122c6.3800049-6.8800049,13.0800171-11.3899841,19.5200195-14.1999817
				c12.6400146-5.5300293,24.2200623-4.5,30.1800232-2C527.5822144,517.1577759,511.9721375,542.9477539,496.3321838,555.8377686z"
				/>
			<path class="st2" d="M492.6821594,558.7677612c-2.2200317,1.7299805-4.5200195,3.4500122-6.8599854,5.1500244
				c2.0299683-8.4100342,2.4099731-19.7399902-6-28.3500366c-4.6700439-4.7699585-5.6600342-10.1399536-4.7900391-15.2799683
				c6.3800049-6.8800049,13.0800171-11.3899841,19.5200195-14.1999817
				c-2.4199829,5.9099731-3.3900146,13.7099915,1.9000244,21.7599792
				C502.0821838,536.4277954,497.992157,548.777771,492.6821594,558.7677612z"/>
			<path class="st3" d="M517.6035767,507.8868103c0,0-41.584198,20.6732483-62.5841675,72.6401062"/>
		</g>
		<g>
			<path class="st0" d="M132.6040344,572.5361328c0.5902557,0.4901733,1.2004852,0.9754028,1.8257294,1.4655762
				c1.1104584,0.8653564,2.26091,1.725708,3.4313507,2.5760498c6.8277283,4.9819336,14.1806488,9.593811,16.8166656,12.6699829
				c0,0,2.440979-14.8158569-7.6830292-29.7667847c-1.2054749-1.7807007-2.4559631-3.3513184-3.7364655-4.7268677
				c-3.1912689-3.4413452-6.5426025-5.6972656-9.7638855-7.1027832c-6.3225174-2.7661133-12.1148224-2.2509155-15.0959854-1.0004272
				C116.9728317,553.1884766,124.7809525,566.088562,132.6040344,572.5361328z"/>
			<path class="st4" d="M134.4297638,574.001709c1.1104584,0.8653564,2.26091,1.725708,3.4313507,2.5760498
				c-1.0153809-4.206665-1.2054596-9.8739014,3.0011902-14.1806641c2.3359528-2.3859253,2.8311462-5.0719604,2.3959808-7.6430054
				c-3.1912689-3.4413452-6.5426025-5.6972656-9.7638855-7.1027832c1.2104645,2.9561157,1.6956787,6.8577271-0.9503937,10.8842773
				C129.72789,562.8273315,131.7737122,569.0047607,134.4297638,574.001709z"/>
			<path class="st5" d="M121.9641342,548.5511475c0,0,20.8003311,10.3407593,31.3044815,36.3344727"/>
		</g>
		<g>
			<path class="st0" d="M482.3164062,589.2477417c0,0,9.5528259-15.8779297,22.3366394-27.2233276
				c9.8610535-8.7514648,26.4950867-11.6029663,32.9109192-10.6524658
				c-0.5940552,6.7722778-6.2268066,17.2590332-15.2441406,24.4215698
				C511.7817688,584.1640625,495.2695007,588.678894,482.3164062,589.2477417z"/>
		</g>
	</g>
</g>
<g id="ORNAMENT_9">
	<g>
		<line class="st6" x1="101.564415" y1="363.2757874" x2="101.564415" y2="369.0556641"/>
		<line class="st6" x1="101.564415" y1="375.2252197" x2="101.564415" y2="381.0050964"/>
		<line class="st6" x1="110.4290619" y1="372.1404419" x2="104.6491852" y2="372.1404419"/>
		<line class="st6" x1="98.4796524" y1="372.1404419" x2="92.6997681" y2="372.1404419"/>
	</g>
</g>
<g id="ORNAMENT_8">
	<g>
		<line class="st6" x1="520.3322144" y1="357.3348999" x2="520.3322144" y2="363.1147766"/>
		<line class="st6" x1="520.3322144" y1="369.2843018" x2="520.3322144" y2="375.0641785"/>
		<line class="st6" x1="529.1968384" y1="366.1995239" x2="523.4169922" y2="366.1995239"/>
		<line class="st6" x1="517.2474365" y1="366.1995239" x2="511.4675598" y2="366.1995239"/>
	</g>
</g>
<g id="ORNAMENT_7">
	<g>
		<line class="st6" x1="251.382309" y1="299.5227966" x2="251.382309" y2="304.2766724"/>
		<line class="st6" x1="251.382309" y1="309.3510742" x2="251.382309" y2="314.10495"/>
		<line class="st6" x1="258.6734009" y1="306.8138733" x2="253.9194946" y2="306.8138733"/>
		<line class="st6" x1="248.8451233" y1="306.8138733" x2="244.091217" y2="306.8138733"/>
	</g>
</g>
<g id="ORNAMENT_6">
	<circle class="st6" cx="171.5947876" cy="183.7838287" r="4.5803947"/>
</g>
<g id="ORNAMENT_5">
	<circle class="st6" cx="367.4100342" cy="548.6717529" r="4.5803947"/>
</g>
<g id="ORNAMENT_4">
	<circle class="st7" cx="95.5897064" cy="460.6618958" r="5.2019591"/>
</g>
<g id="ORNAMENT_3">
	<circle class="st7" cx="482.563385" cy="160.7106018" r="7.8395782"/>
</g>
<g id="ORNAMENT_2">
	<circle class="st7" cx="110.6748581" cy="205.0042419" r="7.8395782"/>
</g>
<g id="ORNAMENT_1">
	<circle class="st7" cx="489.1078796" cy="298.5592346" r="5.5169287"/>
</g>
<g id="WOMAN_1_LEFT_ARM">
	<g>
		<path class="st1" d="M227.5440979,66.4460983l48.7912292-6.1689491l3.3085327,19.7026253l-44.7763977,9.0554962
			c-7.5018921,1.5171661-14.7371674-3.9359894-15.08815-11.5817108c-0.0575714-1.2538834,0.0188599-2.5934601,0.2694702-4.0171127
			C220.7027283,69.7215729,223.8018951,66.9192429,227.5440979,66.4460983z"/>
		<path class="st8" d="M270.8814697,58.4955177l7.8738403-1.9757919c0,0,8.8658142,3.0459518,10.6611328,11.7658272
			c1.7952881,8.7198792-4.1206665,12.8838654-4.1206665,12.8838654l-10.5971375,3.3162384
			C274.6986389,84.4856567,262.8477783,72.1360779,270.8814697,58.4955177z"/>
		<g>
			<path class="st9" d="M296.0040894,32.4496307c-5.5346985,10.8105087-11.3248596,20.873539-17.7186279,29.1703377
				c-1.6889343,6.6436882,2.407074,14.5333824,7.7964172,15.0174446c0,0,10.5381775-11.1811066,15.0377808-41.9265556
				c0,0,3.3872986-1.6354561,4.1625061-2.9484806c0.7413025-1.2555313,0.0064392-5.4975109,5.616394-11.5942383
				c0.4606018-0.5005417,0.4894409-1.2652798,0.0637207-1.7957878v-0.0000019
				c-0.4681396-0.5833626-1.3156128-0.6912003-1.9094849-0.2364693c-1.2418213,0.9508801-3.2592468,2.6297646-4.4533997,4.3273811
				c0,0,1.1534424-3.691021,3.8897095-6.961154c0.577301-0.6899519,0.5262451-1.705492-0.1484985-2.3005142l-0.0141296-0.0124683
				c-0.6333923-0.5585566-1.5882874-0.5474272-2.199585,0.035243c-1.2761536,1.2164288-3.3029175,3.3982086-4.1598816,5.688488
				c0,0,0.6525574-3.1568165,2.4802246-5.8605003c0.501709-0.7421999,0.2266846-1.7564144-0.5783691-2.1494093v-0.0000019
				c-0.6260986-0.305624-1.3754578-0.1352434-1.8094177,0.4098034c-1.3192749,1.6570168-3.9205933,5.2750731-4.3491211,8.5212355
				c0,0,0.1634216-3.0040569,0.9625854-5.9357815c0.2248535-0.8249245-0.3929443-1.6397686-1.2477112-1.6602011l0,0
				c-0.5429993-0.0129805-1.0366516,0.3010025-1.2492371,0.800808c-0.7615967,1.7907352-2.4108887,6.2845945-2.2237549,11.249074
				c0,0-0.583313-0.9821014-1.2538757-2.3758602c-0.3406982-0.7080994-1.1853638-1.0188808-1.9046326-0.702467v0.0000019
				c-0.6913147,0.3041077-1.0407104,1.0819244-0.7998657,1.7977219
				C290.8153992,25.448885,292.8902588,30.7067032,296.0040894,32.4496307z"/>
			<path class="st10" d="M294.9981995,24.7238388C296.5310669,25.001791,300.300354,26.0674229,300,29.801981"/>
			<path class="st10" d="M296.2821655,20.8910885c0,0,5.8811951,0.4455452,9.668335,3.7425747"/>
		</g>
	</g>
</g>
<g id="WOMAN_1_BACK_SHIRT">
	<path class="st0" d="M293.2271729,203.6400146c0,0,70.486084-24.2054443,79.967865-61.0691833
		c9.4818115-36.8637314-31.3433228-76.6032944-31.3433228-76.6032944l-18.9309387,18.4070206l-15.0391846,76.4603424
		L293.2271729,203.6400146z"/>
</g>
<g id="WOMAN_1_LEFT_LEG">
	<g>
		<g>
			<path class="st9" d="M460.4456787,68.7466583L474.1357422,72.1222c0,0,1.4382019,3.5017853-1.3789368,6.8624649
				l-15.0469055-1.9525452L460.4456787,68.7466583z"/>
			<g>
				<path class="st8" d="M483.817688,86.5618515c3.5418396,1.0962219,8.1265869,1.549324,13.4558411,1.5436172l0.603241-3.0023651
					c0,0-7.8090515-2.9970322-11.101593-5.2650146C483.4826355,77.5700989,480.9368896,84.4658203,483.817688,86.5618515z"/>
				<path class="st1" d="M470.4912415,79.6003571c0,0,2.2848206-2.9321747,1.792572-8.9212036
					c0,0,17.4736633-6.1272964,20.9421997-8.7323799c3.4685059-2.6050873,7.9527588-8.9328232,9.7221069-11.0761375
					c1.7693176-2.1433182-0.9756775,16.4033813-2.6095276,20.5373001
					c-1.6338501,4.1339111-7.7619934,6.6508102-11.4024658,9.6675644s-5.1184082,5.4863586-5.1184082,5.4863586
					S476.0296936,84.015274,470.4912415,79.6003571z"/>
			</g>
		</g>
		<g>
			<g>
				<path class="st8" d="M458.8102112,80.1999207C462.1675415,76.1864243,462.300293,66.1791,462.300293,66.1791
					l-56.9826355-17.797821c-4.5985413-1.4363022-9.5808411-0.9705887-13.8335266,1.2930717l-7.3988953,3.9383278
					c0,0-47.3348389,23.6993256-58.0072937,29.943634c-10.6610413,6.2451019-32.2203369,27.6405869-32.2203369,27.6405869
					s-6.515686,11.1535034,2.2059326,21.7328339c8.7155457,10.5846252,27.4613342,3.6391296,55.7408752-17.3378143
					c20.492981-15.1941757,41.5304565-34.0042496,51.5686035-43.2090836
					c6.2851257,1.7885208,13.1242676,3.3501968,20.3613281,3.8432312
					C435.8849182,77.0632858,458.8102112,80.1999207,458.8102112,80.1999207z"/>
			</g>
			<polyline class="st11" points="345.9950867,105.407341 402.5126343,63.3094101 454.7903137,73.6962891 			"/>
		</g>
	</g>
</g>
<g id="WOMAN_1_RIGHT_LEG">
	<g>
		<g>
			<path class="st9" d="M421.9116516,167.9785614l3.0747986,13.7607422c0,0-2.494812,2.84729-6.7584229,1.8216858
				l-4.953186-14.3418427L421.9116516,167.9785614z"/>
			<g>
				<path class="st8" d="M416.3699036,196.8389435c0.5959167,3.6594086,2.2321167,7.9661407,4.6106873,12.7351532
					l2.9568176-0.7970428c0,0-0.7944946-8.3265991-0.2302246-12.2846527S416.9635925,193.3261414,416.3699036,196.8389435z"/>
				<path class="st1" d="M416.6677551,181.8067169c0,0,3.6428833,0.7398224,8.7859497-2.3681946
					c0,0,13.268219,12.9161377,17.1454163,14.8614655c3.8772278,1.9453125,11.5398865,3.1421509,14.2469177,3.771759
					c2.7070007,0.6296234-15.1213074,6.4319153-19.5502625,6.8101501s-9.4117126-3.9876404-13.7341003-5.903595
					c-4.3223877-1.9159393-7.1917725-2.139328-7.1917725-2.139328S415.181488,188.7318268,416.6677551,181.8067169z"/>
			</g>
		</g>
		<g>
			<g>
				<path class="st8" d="M416.5730896,115.6523514l8.4671326,52.8427353c0,0-9.0248413,4.3387299-14.1144714,3.1246948
					c0,0-7.3994141-21.9273987-12.0629578-33.1746521c-1.2576599-3.0376587-2.281189-6.108551-3.1404114-9.1508026
					c-14.7281494,2.8703766-36.4529724,6.6952515-56.6920166,8.714325
					c-35.0378113,3.5210724-54.6899719-0.1166534-56.7536621-13.6764374
					c-2.0617676-13.5509796,9.2457581-19.7883453,9.2457581-19.7883453s29.4771423-7.3245163,41.8341675-7.2270813
					c12.3609009,0.1151733,65.1591797,4.0223541,65.1591797,4.0223541l2.1923218,0.1068192
					C408.6901245,101.8348618,415.3087158,107.7615204,416.5730896,115.6523514z"/>
			</g>
			<polyline class="st11" points="339.2583923,126.2909927 403.6320801,118.2164459 415.2796936,162.2681732 			"/>
		</g>
	</g>
</g>
<g id="WOMAN_1_BODY">
	<g>
		<g>
			<path class="st0" d="M212.9837341,89.3416519l9.7761383,23.4394608c0,0,86.2081451,49.3866882,86.4564362,48.6394043
				c0.248291-0.7472992,16.0533142-22.5102386,19.1567993-46.0038376s-1.3015747-29.3826675-1.3015747-29.3826675
				l-63.3421631-9.1514664l-30.1797638-7.3993835L212.9837341,89.3416519z"/>
			<path class="st12" d="M309.2163086,161.420517c0.248291-0.7472992,16.0533142-22.5102386,19.1567993-46.0038376
				s-1.3015747-29.3826675-1.3015747-29.3826675"/>
			<path class="st12" d="M310.9483032,150.1024017c0,0,15.3497925-34.5453415,12.5568848-61.1043625"/>
		</g>
		<path class="st1" d="M285.8447876,113.5492783c31.5517883,18.878624,43.6357117,51.2999191,43.6357117,51.2999191
			c-6.6940002,16.126709-36.2533264,38.7908173-36.2533264,38.7908173s-10.3717041-53.0805969-31.1899109-63.6815796
			s-61.7275391-23.2791214-61.7275391-23.2791214s6.9102325-16.1125183,10.322937-22.6090469
			c4.5041504,1.9943619,23.214859,10.047493,37.547821,12.9618301
			C264.5888977,110.3594589,285.8447876,113.5492783,285.8447876,113.5492783z"/>
		<g>
			<path class="st1" d="M213.7295837,84.749054c0,0,1.674942-4.17453,5.5671234-12.0007553
				c1.6713562-3.3607178,5.2972717-5.2932281,9.0171204-4.7926178l9.468811,1.2743149c0,0,14.6919556-0.4165497,17.888443,0.3688736
				c3.1964722,0.7854156,17.6460876,7.9798203,17.6460876,7.9798203s47.8461304,2.4320526,68.5345459-11.6111526
				c0,0,7.0039062,8.6148682,11.3139954,18.6338959c-20.0161133,4.2315826-41.6167908,5.8588409-65.0761414,4.4313507
				c0,0-42.6684265-3.6657181-51.7165375-4.1825409C227.3249359,84.3334198,213.7295837,84.749054,213.7295837,84.749054z"/>
			<path class="st13" d="M227.4082642,67.7610703l10.3743744,1.4689255c0,0,14.6919556-0.4165497,17.888443,0.3688736
				c3.1964722,0.7854156,17.6460876,7.9798203,17.6460876,7.9798203s10.2891541,0.286293,24.9379272,0.5157318"/>
		</g>
		<g>
			<path class="st1" d="M208.4327698,89.8579865c-0.8820343,5.2805252,8.8393555,13.3552094,18.0995178,18.5063019
				l7.0170441-3.915062l8.0948792,8.9358978c0,0,23.8903656-1.4206924,44.2005768,0.1641541
				c0,0-31.2732391-7.993187-48.625412-12.0987701c-17.2157288-6.042511-15.1976318-14.2230301,3.2222595-15.248497
				c20.0870819-0.2410583,47.647934,2.8307724,47.647934,2.8307724s-25.5194092-9.2162399-39.82724-12.494751l-9.1522064,6.1790543
				l-5.6489258-4.6427689C233.4611969,78.0743179,210.1106873,79.8126755,208.4327698,89.8579865z"/>
			<path class="st13" d="M284.1569214,87.7990265c0,0-21.5867615-7.9824829-35.8945923-11.260994l-9.1522064,6.1790543
				l-5.6489258-4.6427689c0,0-7.9102325,0.5888824-14.8535156,3.0617828"/>
			<path class="st13" d="M212.2504425,97.7153015c3.5276031,3.7926254,8.9803162,7.6999359,14.2818451,10.6489868
				l7.0170441-3.915062l8.0948792,8.9358978c0,0,18.2400665-1.0846863,36.3939972-0.3012238"/>
		</g>
	</g>
</g>
<g id="WOMAN_1_HAIR">
	<g>
		<path class="st8" d="M189.9436646,62.1692772c0,0-5.177597-6.382412-11.3943024-6.6619301
			c-6.2167053-0.2795143-8.9009857,6.6256523-8.1731415,14.1781158s7.5111389,12.7032928,14.2700043,4.0031815
			C189.9560852,66.8537369,189.9436646,62.1692772,189.9436646,62.1692772z"/>
		<path class="st8" d="M188.426239,62.6108627c0,0-8.4107971,7.0619125-5.6344299,15.471199
			s19.1817474,12.0464706,26.2941284,5.5156479s3.6973267-13.1366882,3.6973267-13.1366882s7.0083313-2.0905685,5.7416687-8.9981308
			c-1.2666473-6.9075584-5.0516205-7.4123039-8.5740204-5.9615822c0,0-0.3837433-8.8274536-8.4507141-7.9952888
			C193.4332275,48.3381882,188.3127747,53.7955589,188.426239,62.6108627z"/>
		<path class="st11" d="M188.4262238,62.6108627c-0.003006,0.002533-6.1824951,5.1926346-6.1965179,11.9715424"/>
	</g>
</g>
<g id="WOMAN_1_NECK">
	<g>
		<path class="st9" d="M240.4405365,86.2053146c0,0-14.9970245,0.4496384-19.4262085,0.4606018
			c-1.4034271,0.0013809-3.8746338-0.4226837-6.5892944-1.0033417c-4.4623871-1.0310211-7.5765076,5.6079178-2.045929,7.9788437
			c2.9027405,0.7262955,5.5763855,1.4365387,7.3159332,1.9904099l17.5265198,5.8230972c0,0,6.0032806-3.0837021,8.176239-8.2587738
			C245.3977966,93.1961517,244.5901337,88.9669647,240.4405365,86.2053146z"/>
		<g>
			<path class="st9" d="M217.7973633,87.4373627c-1.1629639-0.9358597-2.3676605-1.9426498-3.520752-2.9291992
				c-3.4604187-2.9700775-6.4758301-5.7312241-6.4758301-5.7312241l-7.4425201,4.8015823
				c0,0,0.4742889,0.3870926,1.2746277,1.0422974c2.1809998,1.7926483,6.7707214,5.5893784,10.7462158,9.0205994
				C217.6672211,92.986557,217.9958954,89.3272095,217.7973633,87.4373627z"/>
			<path class="st8" d="M214.2766113,84.508194c-4.6233215,2.4247742-9.3578033,1.4489365-12.6437225,0.1126175
				c-0.8003693-0.6551819-1.2746124-1.0422821-1.2746124-1.0422821l7.4424896-4.80159
				C207.800766,78.7769394,210.8161774,81.5380936,214.2766113,84.508194z"/>
		</g>
	</g>
</g>
<g id="WOMAN_1_HEAD">
	<g>
		<path class="st9" d="M209.6416016,62.698204c0,0,4.9620361,5.2450485,6.7397003,13.0178375
			c1.7776489,7.7727814-4.2501678,9.8687897-11.0494385,8.4915161c-6.7992706-1.3772659-12.4926147-9.5660095-12.4926147-9.5660095
			s-4.4116211-7.1715088,0.0979462-11.7827835C197.4467773,58.2474937,204.6804352,57.7890549,209.6416016,62.698204z"/>
		<path class="st8" d="M194.2093964,65.1550522c0,0,9.6637878,4.8966827,19.1167145-1.5234985
			c0,0-10.5244904-12.7881737-21.2484436-3.3543968s-2.9235535,18.0691185,3.9759827,18.2833748
			C196.0536499,78.5605316,198.8051758,73.5663376,194.2093964,65.1550522z"/>
		<g>
			<g>
				<path class="st9" d="M200.9823914,80.9892349l-3.946106-3.7706223c0,0-3.8215637-2.2723007-6.4935303,0.2411499
					S192.8356018,87.8839722,200.9823914,80.9892349z"/>
				<path class="st10" d="M191.8758392,79.1723633c0,0,3.4466553-1.0685349,6.7778625,0.6086197"/>
				<path class="st10" d="M195.1933441,81.7765198c0,0-0.5815735-1.2910004-0.6634521-2.9393311"/>
			</g>
			<path class="st14" d="M197.9816895,81.3287888c1.3906097-0.2819595,2.9047394,1.3972321,3.3819122,3.7505875
				c0.4771576,2.3533554-0.2633362,4.4896927-1.6539612,4.7716522c-1.3906097,0.2819595-2.9047546-1.3972321-3.3819122-3.7505875
				c-0.1841278-0.9080734-0.1869354-1.7838364-0.0410767-2.5332184"/>
		</g>
	</g>
</g>
<g id="WOMAN_1_FACE">
	<g>
		<path class="st8" d="M198.6335907,70.7761002c0,0-0.2039032-3.5300827,2.484314-3.6675339
			c0,0-0.2992859-0.6580124,0.2397919-0.982933s1.5668488,1.3552246,1.5668488,1.3552246
			S200.2968903,68.7014694,198.6335907,70.7761002z"/>
		<path class="st8" d="M211.1325684,65.4043808c0,0-1.7642517-2.7101135-2.9416809-1.010704
			c0,0-0.3360443-0.4943771-0.7208099-0.3529205c-0.665451,0.2446594,0.1266327,1.9267807,0.1266327,1.9267807
			S209.362442,65.0053635,211.1325684,65.4043808z"/>
		<g>
			
				<ellipse transform="matrix(0.8843186 -0.466884 0.466884 0.8843186 -10.8234711 103.5236816)" class="st8" cx="203.4962769" cy="73.6033173" rx="1.3275644" ry="1.6413523"/>
			<circle class="st15" cx="203.4832153" cy="72.9517212" r="0.3530114"/>
		</g>
		<g>
			
				<ellipse transform="matrix(0.8843186 -0.466884 0.466884 0.8843186 -8.3187027 106.3302002)" class="st8" cx="210.4121399" cy="69.9520187" rx="1.3275644" ry="1.6413523"/>
			<circle class="st15" cx="210.3990784" cy="69.3004227" r="0.3530114"/>
		</g>
		<path class="st12" d="M207.1961823,71.2634277l1.5203705,2.8275528c0,0,2.040329-1.056488,2.1975403,0.3406906
			c0.1544342,1.372467-1.6374512,1.8130417-1.6374512,1.8130417"/>
		<path class="st15" d="M212.5894318,79.3089523c0,0-2.9629059,1.891449-6.8656158,0.6120758
			c2.8023987-0.809761,5.2238464-1.8127136,6.5266266-3.3829956L212.5894318,79.3089523z"/>
	</g>
</g>
<g id="WOMAN_1_RIGHT_ARM">
	<g>
		<path class="st1" d="M207.3174438,100.9101715l-38.7313232,18.6400528l6.1418762,19.0109634l51.7210693-14.8339233
			C226.4490662,123.7272644,225.3176727,102.4606552,207.3174438,100.9101715z"/>
		<path class="st13" d="M226.4490662,123.7272644c0,0-0.3657379-6.8746948-3.9896698-13.0916748"/>
		<path class="st8" d="M172.6056366,115.4560394l-7.8986053,1.8744278c0,0-6.4651337,6.7883911-4.0407104,15.3546982
			s9.5935974,9.5360718,9.5935974,9.5360718l10.9332123-1.9395447
			C181.1931305,140.2816925,186.0207825,123.8607101,172.6056366,115.4560394z"/>
		<g>
			<path class="st9" d="M138.3077393,103.9153137c9.8932648,7.0443802,19.6688385,13.3076553,29.1663208,17.725235
				c4.5601196,5.1182327,4.5601196,14.0077972,0,16.920639c0,0-14.5047302-5.0678864-32.6646271-30.2819138
				c0,0-3.8827362-0.0552902-5.175766-0.8634338c-1.2364197-0.7727509-2.4158707-4.7116776-10.2039948-7.5377884
				c-0.6394043-0.2320251-1.0173798-0.8974533-0.8839798-1.5644455v-0.0000076
				c0.1466904-0.7334442,0.8491516-1.2196426,1.5857468-1.0896912c1.5402832,0.2717361,4.1043701,0.8322296,5.9464111,1.7886734
				c0,0-2.7243958-2.7443924-6.6596451-4.3859482c-0.8302841-0.3463364-1.2528992-1.2711792-0.9282227-2.1101685
				l0.0068054-0.0175781c0.3047867-0.7875748,1.1574173-1.2176895,1.9684143-0.9822083
				c1.6930923,0.4916077,4.4971924,1.4941177,6.3130417,3.1319351c0,0-2.0337143-2.5010681-4.9015503-4.0585327
				c-0.7872696-0.4275436-1.0105057-1.4543991-0.477066-2.1741409h0.0000076
				c0.4148407-0.5597229,1.1584396-0.7537994,1.7947235-0.4700089c1.9343796,0.8627701,5.9101639,2.8752899,7.7862167,5.558876
				c0,0-1.5292053-2.5908661-3.5893097-4.8246155c-0.5796661-0.6285248-0.4068069-1.6363831,0.3424149-2.0483704l0,0
				c0.4759293-0.2617035,1.0587387-0.2105026,1.4776993,0.1351395c1.5010529,1.2383957,5.0354462,4.4668655,7.1568146,8.9591751
				c0,0,0.0651703-1.1403961,0.0181274-2.6863632c-0.0238953-0.7854309,0.5825653-1.4504471,1.3667297-1.5010376l0,0
				c0.7536621-0.0486298,1.4221649,0.4807053,1.5382233,1.2269745
				C139.6871185,95.3112335,140.2682648,100.9336777,138.3077393,103.9153137z"/>
			<path class="st10" d="M136.0494995,96.4851456c0,0-3.3267212,2.257431-2.9702911,6.5940628"/>
			<path class="st10" d="M125.8316803,100.9101715c0,0,2.3168335-4.4095078,6.5346527-7.2687531"/>
		</g>
	</g>
</g>
<g id="WOMAN_2_HAIR">
	<path class="st8" d="M407.2474365,231.9714355c0,0-2.3064575,19.700882-16.1451111,25.5631104
		c0,0,3.1713562,15.0879822,23.160553,15.0879822s26.0436096-11.0517273,26.0436096-11.0517273
		s-10.7634277-6.5349121-8.3608704-22.5839233S410.226593,219.9586945,407.2474365,231.9714355z"/>
</g>
<g id="WOMAN_2_RIGHT_ARM">
	<g>
		<g>
			<path class="st9" d="M319.9784546,222.0016632l-1.6617432-3.1967926l1.0517273-16.9774017
				c0.1607971-0.7608185-0.217041-1.533432-0.9163208-1.8736267v-0.0000153
				c-0.7630005-0.3712006-1.6829529-0.1206665-2.1523438,0.5861816l-4.2252197,8.1427307l-10.9543152-3.2970123
				l-10.361145-4.9562225c-0.7088928-0.3391113-1.5590515-0.1156311-2.0095825,0.5282288l0,0
				c-0.497406,0.7108765-0.3405457,1.6882629,0.3543396,2.2077789l0.9746094,0.728653l0,0
				c-0.3799744,1.1033173-0.1251526,2.3261108,0.6638489,3.1858368l0.365509,0.3982697l-0.0817871,0.6056366
				c-0.0766296,0.5671997,0.0012512,1.144577,0.2254028,1.6712189l2.0979309,4.9287872
				c0.7395325,1.737442,2.1674805,3.0896606,3.942627,3.7335052l3.0431213,1.103714l8.2893372,0.6680298l3.6913452,6.4406128
				L319.9784546,222.0016632z"/>
		</g>
		<g>
			<path class="st10" d="M293.8756409,210.9891815l0.4512939-0.1128082c0.9384766-0.2346191,1.9157104,0.202774,2.3659363,1.0589752
				l0.6994324,1.3300171c0.3069763,0.583786,0.8706055,0.9892426,1.5217285,1.0946503l2.3294067,0.3771515"/>
			<line class="st10" x1="300" y1="206.1485138" x2="303.3366394" y2="214.7371674"/>
			<path class="st10" d="M292.8825684,207.2091827l1.01828-0.0915222c1.0487366-0.0942841,2.0049133,0.6033783,2.2352295,1.6308594
				l0,0c0.0093079,0.0415649,0.0198975,0.08284,0.0317078,0.1237488l1.167511,4.0389557"/>
			<path class="st10" d="M291.4090271,203.6534119l0.5667419-0.0536041
				c1.0361023-0.0980225,1.9874573,0.5782623,2.2353821,1.5890198l0.4012756,1.9203033"/>
		</g>
		<path class="st1" d="M308.0625916,227.4650269l12.0473328-8.0018463l40.5776062,44.2661896l35.1220703,3.3266907
			c0,0,12.8231506,1.9628296,10.6246948,15.6766968s-16.2214661,11.2430115-16.2214661,11.2430115l-36.4601746-10.555542
			c-4.7843933-1.3851013-8.9598694-4.3473206-11.8480225-8.405304L308.0625916,227.4650269z"/>
	</g>
</g>
<g id="WOMAN_2_RIGHT_LEG">
	<g>
		<polygon class="st9" points="328.924408,544.9752808 324.8881226,562.2736206 332.9606934,562.2736206 337.9579773,545.7440796 		
			"/>
		<g>
			<path class="st1" d="M337.3762512,553.9169312v35.3308105h-27.9972534
				c-0.5284424-3.8393555-0.4961243-7.4199219,0.7117615-10.4396362c0,0,0.9490662-0.9598389,2.3942566-2.8255615
				c2.9010925-3.7531128,7.7865601-11.2161255,10.86026-22.0656128H337.3762512z"/>
			<path class="st0" d="M337.3762512,582.5827637v6.664978h-27.9972534
				c-0.5284424-3.8393555-0.4961243-7.4199219,0.7117615-10.4396362c0,0,0.7010193-1.3588867,2.3942566-2.8255615
				c1.9628296-1.6932373,5.26297-3.5266724,10.3533325-3.5266724c9.4798584,0,10.7632446,10.1268921,10.7632446,10.1268921
				H337.3762512z"/>
			<path class="st16" d="M333.6013489,557.3403931c0,0-1.5376282,9.225769-4.9972839,13.9667969"/>
			<path class="st16" d="M325.5288086,557.3403931c0,0-1.5376282,9.225769-4.9973145,13.9667969"/>
		</g>
		<g>
			<polygon class="st0" points="411.7593994,375.6477966 392.3793945,422.8478088 340.2693481,549.777771 323.3493652,545.5477905 
				365.6394043,368.3377991 380.1193848,370.6377869 			"/>
			<polygon class="st8" points="411.7593994,375.6477966 392.3793945,422.8478088 380.1193848,382.297821 380.1193848,370.6377869 
							"/>
			<line class="st5" x1="387.5361938" y1="412.3196411" x2="338.7268066" y2="543.6298218"/>
			
				<ellipse transform="matrix(0.2051781 -0.9787247 0.9787247 0.2051781 -178.7935944 718.2504883)" class="st5" cx="352.8214417" cy="469.2063293" rx="11.9466124" ry="7.6206937"/>
			<line class="st5" x1="326.4257507" y1="541.9000244" x2="340.6488342" y2="545.5518799"/>
		</g>
	</g>
</g>
<g id="WOMAN_2_LEFT_LEG">
	<g>
		<g>
			<path class="st9" d="M423.3461609,542.6688232c0.3843994,0.3843994,4.5167847,8.0725708,4.5167847,8.0725708l-5.958313,3.7479858
				l-6.4388123-9.5140991L423.3461609,542.6688232z"/>
			<path class="st1" d="M441.5055847,566.6968384l-11.8201294,22.5509033h-20.6635742
				c0,0-3.6452637-16.4143677,9.1346741-16.7918701c0,0,1.2510681-8.8326416-1.1539917-17.6762085l11.4318848-7.3012695
				l10.3210449,15.1741943L441.5055847,566.6968384z"/>
			<path class="st16" d="M423.7946472,553.9169312c0,0,2.306427,9.958374,0.640686,17.3902588"/>
			<path class="st0" d="M441.5055847,566.6968384l-11.8201294,22.5509033h-20.6635742
				c0,0-3.6452637-16.4143677,9.1346741-16.7918701c0,0,7.9807434-0.765686,10.9573364,7.7866211l9.6416016-17.5899048
				L441.5055847,566.6968384z"/>
		</g>
		<g>
			<path class="st0" d="M396.2258911,374.874939v32.4183655l-10.7238464,78.7665405
				c-1.0091553,7.4124146,0.4978638,14.9490662,4.2798462,21.4034424l24.1463013,41.2084656l14.223053-4.7080078
				l-18.4515381-51.4601135l27.5286865-80.1468506c1.8616943-5.4200745,2.2982483-11.2278442,1.2677307-16.8653259
				l-4.9631653-27.1514587L396.2258911,374.874939z"/>
			<path class="st5" d="M389.8282471,380.7943726l1.4294128,21.3722839
				c0.1181641,1.7670288,1.2022705,3.3244019,2.8183594,4.0487366l2.9560242,1.3248901l0.2850952-29.2063293"/>
			
				<ellipse transform="matrix(0.9822901 -0.1873664 0.1873664 0.9822901 -85.5532455 82.7625656)" class="st5" cx="395.0270996" cy="493.9473267" rx="7.6206937" ry="11.9466124"/>
			<path class="st5" d="M421.6643677,538.5043945l-16.9619751-46.1288757l28.3576965-86.6759033
				c0.7288513-2.2278137,0.8435059-4.6109009,0.3318176-6.8983765l-3.5748901-15.9818726"/>
			<line class="st5" x1="413.8320923" y1="543.6298218" x2="425.0232544" y2="539.9779663"/>
			<path class="st5" d="M419.2043152,384.741394l2.4726257,7.6026306c1.0986023,3.3780212,4.3247681,5.600708,7.8725281,5.4238281
				l3.5714722-0.1780396"/>
		</g>
	</g>
</g>
<g id="WOMAN_2_BODY">
	<g>
		<path class="st1" d="M409.265564,266.6642151c-13.6464539,0.3843994-23.2380981-0.5346985-23.2380981-0.5346985
			s-17.5090942,40.7052917-16.9324646,44.9337769c0.5765991,4.2284851,6.9193115,14.4152832,6.9193115,14.4152832
			l-20.7579956,50.1651611c0,0,14.2230835,13.262085,37.2875366,13.6464844s53.8170471-11.3400269,53.8170471-11.3400269
			s-15.7607117-43.0536499-15.9529114-47.8587341s11.916626-30.1759949,12.4932556-40.9393921
			C443.4778442,278.3886414,409.265564,266.6642151,409.265564,266.6642151z"/>
		<path class="st16" d="M361.7912598,372.5684814c0,0,14.0308533,8.2647705,29.7915649,9.610199
			s48.8197632-9.4179993,48.8197632-9.4179993"/>
		<path class="st0" d="M411.3798218,265.3187866c-11.9474182-2.3356018-15.1200256,8.2006836-15.1200256,14.6074829
			c0,0,4.2284851-2.306427,11.6603699-2.6908569c0,0,3.9721985,1.9220581,7.944397,7.6881714
			C415.864563,284.923584,428.421875,268.6503296,411.3798218,265.3187866z"/>
	</g>
</g>
<g id="WOMAN_2_NECK">
	<g>
		<polygon class="st9" points="418.8120422,250.9727936 418.2404175,255.1572876 416.1158447,270.5686951 408.6851501,274.6777039 
			405.1045837,269.9324341 407.736084,260.3016357 409.2027893,254.9415741 		"/>
		<path class="st8" d="M418.8120422,250.9727936l-0.5716248,4.184494c-3.612854,4.2276001-8.4121094,5.0148926-10.5043335,5.1443481
			l1.4667053-5.3600616L418.8120422,250.9727936z"/>
	</g>
</g>
<g id="WOMAN_2_HEAD">
	<g>
		<path class="st9" d="M404.1474609,231.755188c0,0-4.0497131,7.5711212-3.6546631,17.0447083
			c0.3950806,9.4735718,7.9665527,9.9902649,15.3352356,6.2807922c7.3687134-3.7094421,11.3353882-14.8865662,11.3353882-14.8865662
			s2.8149414-9.6087494-3.8026123-13.4863892C416.7432861,222.8300934,408.3013306,224.5696869,404.1474609,231.755188z"/>
		<path class="st8" d="M422.6205444,229.740448c0,0-9.5525818,8.6440125-22.4076233,4.2394257
			c-5.0743103-10.2732086,10.5518494-24.6964569,23.3254089-10.5029144
			c18.4979858,4.8426056,11.6747437,23.7746735,1.1649475,22.219696
			C424.7032776,245.6966553,419.982666,240.8291168,422.6205444,229.740448z"/>
		<g>
			<g>
				<path class="st9" d="M419.8097534,250.0264587l3.3460083-5.5614929c0,0,3.6723938-3.8036346,7.5248108-1.7570648
					C434.53302,244.7544708,431.3150024,255.3845215,419.8097534,250.0264587z"/>
				<path class="st10" d="M429.6876526,245.0900879c0,0-4.2886047-0.146347-7.5848694,2.8209534"/>
				<path class="st10" d="M426.6974487,249.1165619c0,0,0.2628479-1.6631775-0.1594543-3.5797577"/>
			</g>
			<path class="st14" d="M423.3584595,249.4761963c-1.6835938,0.1120758-2.8946838,2.5126343-2.7050171,5.3618164
				c0.1896362,2.8491821,1.7082214,5.0680542,3.3918152,4.9559937c1.6835938-0.1120911,2.8946838-2.5126343,2.7050476-5.3618164
				c-0.0731812-1.0993958-0.3442383-2.10495-0.7462769-2.9189453"/>
		</g>
	</g>
</g>
<g id="WOMAN_2_FACE">
	<g>
		<path class="st8" d="M419.305603,237.5744629c0,0-0.8716431-4.1135254-3.9985962-3.4292908
			c0,0,0.1372681-0.8486023-0.5829163-1.0525055c-0.7202148-0.2039185-1.3730469,2.0454102-1.3730469,2.0454102
			S416.7477417,235.7153931,419.305603,237.5744629z"/>
		<path class="st8" d="M403.2845764,235.3266449c0,0,1.1751404-3.6615601,3.0581055-2.08078
			c0,0,0.2306824-0.6723785,0.7163696-0.6306152c0.8400269,0.0722656,0.4581909,2.2500305,0.4581909,2.2500305
			S405.1902771,234.3144989,403.2845764,235.3266449z"/>
		<g>
			
				<ellipse transform="matrix(0.2174993 -0.9760605 0.9760605 0.2174993 87.895462 594.3188477)" class="st8" cx="414.6126709" cy="242.340744" rx="1.9518486" ry="1.578701"/>
			<circle class="st15" cx="414.423584" cy="241.5891571" r="0.419791"/>
		</g>
		<g>
			
				<ellipse transform="matrix(0.2174993 -0.9760605 0.9760605 0.2174993 82.7667465 583.8759766)" class="st8" cx="405.5353088" cy="240.3180084" rx="1.9518486" ry="1.578701"/>
			<circle class="st15" cx="405.3462219" cy="239.5664062" r="0.419791"/>
		</g>
		<path class="st12" d="M409.6353455,240.8152313l-0.8585815,3.7198944c0,0-2.6715393-0.5729675-2.4143066,1.0790863
			c0.2526855,1.6228485,2.4462891,1.5670624,2.4462891,1.5670624"/>
		<path class="st15" d="M405.9680481,251.7340698c0,0,3.991394,1.2418976,8.0678406-1.4480743
			c-3.4684753-0.0512695-6.5604553-0.4434662-8.5467834-1.8368683L405.9680481,251.7340698z"/>
	</g>
</g>
<g id="WOMAN_2_LEFT_ARM">
	<g>
		<g>
			<path class="st9" d="M357.6568909,230.1855927l-1.4567566-3.2952576l4.5253601-16.2615356
				c0.2084961-0.7491608-0.1198425-1.5440674-0.7962646-1.9277039l0,0c-0.7380676-0.4186096-1.6719971-0.226593-2.1850281,0.449234
				l-5.6229858,7.4069824l-12.2367859-4.1441803l-10.027832-5.5999756
				c-0.6860962-0.3831482-1.5486755-0.2137451-2.0389099,0.4004211l0,0
				c-0.5412903,0.6780701-0.4463806,1.6634064,0.2143555,2.2257233l0.9266968,0.7886963l0,0
				c-0.4487915,1.0771484-0.271637,2.3135681,0.4615784,3.2213593l0.3396606,0.4205322l-0.119873,0.5992737
				c-0.1122437,0.5612488-0.0709534,1.1423798,0.1195374,1.6820984l1.7828369,5.0513306
				c0.6284485,1.7806396,1.9682617,3.2202454,3.6992493,3.974762l2.9674377,1.2935028l8.2306824,1.1896057l3.27771,6.6606445
				L357.6568909,230.1855927z"/>
			<line class="st10" x1="330.7068481" y1="210.9017487" x2="339.6659241" y2="217.5664215"/>
			<line class="st10" x1="331.1438904" y1="214.780365" x2="337.2076416" y2="219.8608093"/>
			<line class="st10" x1="332.7827454" y1="218.7682495" x2="335.1864014" y2="222.3190918"/>
		</g>
		<path class="st1" d="M345.4201355,234.8863983l12.5281067-7.2259369l37.7043762,46.7377625l34.8422241,5.535675
			c0,0,12.6738281,2.7678528,9.614624,16.3157043c-3.0592041,13.5478821-16.898407,10.1973267-16.898407,10.1973267
			l-36.6170349-13.0383606c-5.5626831-1.9807129-10.2501831-5.8570862-13.2400208-10.9489746L345.4201355,234.8863983z"/>
		<line class="st16" x1="350.0914612" y1="237.5744629" x2="358.5567932" y2="232.6133881"/>
		<path class="st16" d="M389.8756104,267.2371521l5.7770081,7.1610718l34.8422241,5.535675
			c0,0,12.6738281,2.7678528,9.614624,16.3157043c-3.0592041,13.5478821-16.898407,10.1973267-16.898407,10.1973267
			l-36.6170349-13.0383606c-5.5626831-1.9807129-10.2501831-5.8570862-13.2400208-10.9489746l-5.3382568-9.0914001"/>
	</g>
</g>
<g id="MAN_LEFT_ARM">
	<g>
		<g>
			<path class="st9" d="M249.2484436,196.1516113l0.9846497-7.3794098l-3.1637115-3.657196
				c-0.7499847-0.8669739-1.254715-1.9185944-1.4619904-3.0460663l-0.9793701-5.3275146l-2.5603485-4.5681305
				c-0.4837494-0.8631287-0.2766418-1.9491272,0.4908295-2.5736237l0,0
				c0.9059906-0.7371979,2.2452087-0.5622559,2.9314117,0.3829346l3.7277679,5.1346893l1.7731323,1.4716949l-0.2452545-7.5435181
				l-6.0129547-7.1471558c-0.6268616-0.7451172-0.6173248-1.8358765,0.0224915-2.5699158l0,0
				c0.7224731-0.8288879,1.9826813-0.9083862,2.8035889-0.1768646l4.1921692,3.7357025l-2.0652466-2.9516296
				c-0.5741272-0.8205414-0.3881378-1.9493713,0.4188843-2.5423584l0,0c0.7306976-0.5368958,1.7433472-0.4626923,2.38797,0.1750031
				l3.7759094,3.7352905l2.8226624,1.9858856c0.5062256,0.3561554,0.8887939,0.8612976,1.0944214,1.4450836l0.3254089,0.9239044
				l0.1740723,0.1499481c1.7122803,1.4752502,2.5249023,3.7407837,2.1407166,5.9680481l-2.5496521,14.7807159l-1.1732178,12.7953949
				L249.2484436,196.1516113z"/>
			<path class="st10" d="M259.2233887,165.2333527l-3.0574036-0.7675476
				c-0.6663818-0.1672974-1.3434906,0.2320404-1.5195312,0.8961792l0,0
				c-0.1643372,0.6200562,0.1650848,1.2643127,0.7639771,1.4940948l2.583252,0.9911346l-0.1782227,6.7128601"/>
			<path class="st10" d="M255.1421967,161.1937408l-1.2004852-0.2053223
				c-0.8889923-0.1520538-1.7442169,0.4092255-1.9584351,1.2853088l0,0
				c-0.1996307,0.816391,0.2206726,1.6573486,0.9934387,1.9877319l1.761795,0.7532349"/>
		</g>
		<g>
			<polygon class="st15" points="261.9663086,206.8826904 263.9296265,199.1394196 247.0966492,193.7766418 
				244.7854004,201.3139343 			"/>
			<path class="st0" d="M194.5152893,269.5270996l38.5126038-35.0105133l11.4715881-36.3391571l19.6443481,7.313324
				c0,0-11.668335,42.1609039-13.2004089,44.3455048c-1.532074,2.1846161-47.1552582,50.0279083-47.1552582,50.0279083
				C190.4628143,309.2143555,173.024353,281.4552612,194.5152893,269.5270996z"/>
			<circle class="st8" cx="258.6734009" cy="209.3637238" r="2.0120339"/>
			<line class="st17" x1="233.9538727" y1="235.7644958" x2="242.8560181" y2="241.9007568"/>
		</g>
	</g>
</g>
<g id="MAN_LEFT_LEG">
	<g>
		<g>
			<g>
				<path class="st9" d="M193.016449,539.7165527c0,0-3.9674835,9.2542725-5.0481873,11.8560791
					c-1.7661285,4.319519-4.1357269,10.0824585-4.1711884,10.2418213c-0.0554199,0.2489014-5.2683563,0.5722656-5.2683563,0.5722656
					l-4.6942139-3.1347656l2.3239136-7.8108521l4.2644348-14.4921875L193.016449,539.7165527z"/>
				<path class="st8" d="M193.016449,539.7165527c0,0-3.9674835,9.2542725-5.0481873,11.8560791
					c-2.7404175-0.0354004-7.7055359-0.074707-11.809845-0.1315308l4.2644348-14.4921875L193.016449,539.7165527z"/>
			</g>
			<g>
				<path class="st8" d="M209.5648346,589.2477417h-20.0431061l-29.3099976-12.1099854
					c0,0,5.1499634-16.0999756,13.2999878-22.2099609c0,0,6.2000122,4.7299805,12.5900269,5.1699829
					c0,0,4.4299927,6.75,8.9799805,11.9599609c1.7000122,0.9000244,3.3699951,1.6900024,4.8499756,2.2300415
					C206.7317505,576.7477417,209.5648346,578.5377808,209.5648346,589.2477417z"/>
				<path class="st18" d="M189.1005249,573.3776245c0,0-4.3476715-5.4128418-7.7414246-11.8944092"/>
				<polygon class="st1" points="161.7010193,570.6140747 159.3363647,576.8078613 189.5217285,589.2477417 
					189.5186768,582.6137695 				"/>
				<path class="st1" d="M206.5461578,577.3864746c-3.8248901-2.1674194-9.2501984-5.227356-9.2501984-5.227356
					c-5.3548584,2.6774292-7.7772827,10.4546509-7.7772827,10.4546509v6.6298218h21.1073761
					C210.6260529,584.2712402,210.371048,579.553894,206.5461578,577.3864746z"/>
			</g>
		</g>
		<g>
			<path class="st1" d="M205.9477539,383.4477844c-9.950119,0-17.8313904,8.4015198-17.1912231,18.3310242
				c1.5487823,24.0221863,4.06633,63.1498718,4.050293,63.5661316c-0.0397339,0.802063-21.2120361,78.8274841-21.2120361,78.8274841
				l18.6595459,5.6848145c0,0,30.8886108-70.7628479,32.7276611-78.5348206
				c1.7485504-7.4239502,7.1294556-39.7904968,10.760376-72.8948669c0.8764648-7.9911499-5.36409-14.9797668-13.4031525-14.9797668
				H205.9477539z"/>
			
				<ellipse transform="matrix(0.3448208 -0.9386685 0.9386685 0.3448208 -303.4421692 507.4216309)" class="st16" cx="211.7677765" cy="471.0800476" rx="12.898921" ry="8.3509874"/>
			<polyline class="st16" points="195.7236481,394.3079224 199.2286072,464.2457886 176.8224792,540.1220703 			"/>
		</g>
	</g>
</g>
<g id="MAN_RIGHT_LEG">
	<g>
		<g>
			<g>
				<path class="st9" d="M100.0568161,534.5561523c0,0-1.0612717,1.9805908-2.3884888,4.4656982
					c-2.221283,4.1040649-5.1764069,9.5897827-5.277153,9.7182007c-0.1573868,0.2006226,2.8969803,4.437439,2.8969803,4.437439
					l5.4001312,1.6434937l4.5679626-6.7485352l4.2223816-6.2418213L100.0568161,534.5561523z"/>
				<g>
					<path class="st8" d="M97.6683273,572.7283936c2.0455093-5.3734741,4.6921234-17.8005981,4.6921234-17.8005981
						c-5.2254715-3.7025757-9.3062057-9.2885132-9.3062057-9.2885132
						c-5.5331421,0.8911133-11.7628784,5.4614868-16.4110718,8.7317505
						c-3.1701355,2.2148438-5.2646866,4.0281982-5.2646866,4.0281982l6.5646896,8.5020142l13.6663666,15.7182617
						L97.6683273,572.7283936z"/>
					<path class="st18" d="M90.1150589,566.3869019c0,0,1.9252396-6.6704102,5.2734833-13.1755981"/>
					<polygon class="st1" points="76.0499954,553.6028442 70.8031387,557.6541138 87.5211029,587.4910889 93.054245,583.8106079 
											"/>
					<path class="st1" d="M99.0063248,570.6970215c-10.6334991-0.2808838-10.8419113,10.1798706-10.8419113,10.1798706
						l-0.6433105,6.6141968l23.1325607,0.6110229C110.8671341,580.0202026,109.6398849,570.9779053,99.0063248,570.6970215z"/>
				</g>
				<path class="st8" d="M100.0568161,534.5561523c0,0-1.0612717,1.9805908-2.3884888,4.4656982
					c1.7644882,2.0970459,4.9422836,5.9122314,7.5879211,9.0505981l4.2223816-6.2418213L100.0568161,534.5561523z"/>
			</g>
		</g>
		<g>
			<path class="st1" d="M162.6145172,360.9491577c0,0-24.4825439,90.4239807-29.0144501,103.528656
				c-4.5456543,13.1084595-38.211525,66.9350281-38.211525,66.9350281s6.1547089,8.1763306,16.6558151,12.2684326
				c0.5161819-0.8796997,45.6124878-57.401062,48.5895081-63.1399536
				c1.6912079-3.2651062,14.7939301-24.1244507,25.9355011-41.7826538
				c5.6365356-8.9207458,8.8854523-23.7420349,11.5470886-28.4855652
				c1.6367798-10.281189,3.0527039-29.6086731,10.4696503-53.545929
				C202.6339417,336.2286682,175.8974915,335.6306763,162.6145172,360.9491577z"/>
			<path class="st16" d="M215.9903564,367.8155212c0,0-7.0956116,34.7262878-9.0437317,36.9665527
				s-8.8301697,5.4910278-8.8301697,5.4910278l6.962738-43.7353516"/>
			
				<ellipse transform="matrix(0.338802 -0.9408577 0.9408577 0.338802 -350.3694763 455.46875)" class="st16" cx="148.8719635" cy="477.0151062" rx="12.898921" ry="8.3509874"/>
			<path class="st16" d="M166.5033417,369.8241882c0,0-25.7670288,97.8988647-28.7180939,104.400238
				c-2.9510651,6.5013428-36.9781799,57.1884155-36.9781799,57.1884155"/>
		</g>
	</g>
</g>
<g id="MAN_BODY">
	<g>
		<g>
			<g>
				<path class="st0" d="M158.1496124,358.6663818c-0.527359-3.5128784-7.4641876-37.7504272-11.6725311-58.4355469
					c-1.9740448-9.7029114,2.7633209-19.5599976,11.6178741-23.9916992
					c7.3548584-3.6810608,16.1329346-7.3568115,23.0969849-8.1373291
					c13.1601715-4.492218,25.3383942-8.2941895,25.3383942-8.2941895
					c11.8465118,25.9310913,33.1186523,132.2027588,33.1186523,132.2027588
					c-10.3297729,12.7436218-15.8009338,14.2579956-27.8812103,18.2627258
					c-2.7895813-11.4476318-5.1566467-23.4216003-5.1566467-23.4216003l-9.4818115,24.884491
					c-20.0766754-0.4517822-50.4801788-10.743042-50.4801788-10.743042S158.9105072,363.7348633,158.1496124,358.6663818z"/>
				<path class="st17" d="M206.5303345,259.8076172c6.1751556,14.4863281,14.2617798,42.4813232,17.0494995,58.2663269"/>
			</g>
			<polygon class="st8" points="233.1689911,361.338562 236.7583008,367.5303955 222.1384125,376.857605 218.4458008,370.6043091 
							"/>
			<polygon class="st8" points="170.7725677,372.4189758 169.4817657,379.4585571 189.3431854,382.6826782 190.710495,375.5503845 
							"/>
			<path class="st17" d="M207.0423737,384.0606079l1.8162842-7.3276367c0,0-3.7065277-15.5325012-11.9868927-47.1047058"/>
		</g>
		<g>
			<path class="st8" d="M179.1717072,265.3262329c0,0,6.6160736-0.364624,18.9968262,2.8055115
				c0,0,7.1637878,5.591095,12.7654572,15.2182007l-10.0767365,4.8189087l6.7103729,10.2424927l-11.3288879,26.5942078
				l-33.947525-17.0262146l3.6984863-14.4442139l-12.6136169,0.7475891c0,0,2.6601868-13.6982117,4.9957733-17.6237183
				C160.7074432,272.7335205,174.0613861,265.9223633,179.1717072,265.3262329z"/>
			<g>
				<path class="st15" d="M180.2504272,268.5381775c3.7932892-0.1946716,11.9609833,1.1989746,16.0929718,1.9652405
					c2.1717072,7.0296326,5.2609711,33.2072754-2.0448914,49.5577087c0,0-24.1120605-27.1304626-32.1190796-43.4915466
					C166.6013336,274.0410156,176.3003998,268.7409363,180.2504272,268.5381775z"/>
				<g>
					<path class="st8" d="M182.7652893,306.3518677c-0.5368805-5.3244934-1.5366058-11.7135925-4.8703766-26.7141113
						l3.4879761-1.7187805l2.9824677,0.9526978c0,0,8.1708374,10.1486511,14.7929382,27.2861633
						c-1.3119812,7.2070923-2.1452026,8.9613037-4.5684509,14.3843079
						C194.5898438,320.5421448,187.5592041,315.5024109,182.7652893,306.3518677z"/>
					<path class="st18" d="M186.9024353,285.0676575c0,0-3.8631439,0.5863342-6.0561066,1.2747498"/>
				</g>
			</g>
			<g>
				<path class="st15" d="M180.9023132,279.5756836c0,0,5.4463348,1.0724487,11.7268677,4.7392883
					c0,0-3.3234863-17.92276-13.072052-17.2888489c-9.7485504,0.6339111-7.5745392,19.9009094-7.5745392,19.9009094
					S173.7440948,283.848877,180.9023132,279.5756836z"/>
				<path class="st18" d="M173.687149,271.4646301c-2.7868347,5.8708191-1.7045593,15.4624023-1.7045593,15.4624023
					s1.7615051-3.0781555,8.9197235-7.3513489c0,0,5.4463348,1.0724487,11.7268677,4.7392883
					c0,0-1.7105103-9.2243652-6.2767334-14.2037964"/>
			</g>
		</g>
	</g>
</g>
<g id="MAN_NECK">
	<g>
		<path class="st9" d="M177.490448,273.1268921c0,0,2.6846466,1.9895325,6.478775,0.7064819l1.5735474-9.1669006
			l1.7335205-10.059967l-8.837738-8.0638733l-0.0792389-0.0738373l-0.0191498,0.6320801l-0.1677094,5.1991882
			L177.490448,273.1268921z"/>
		<path class="st8" d="M178.1724548,252.3000641c0.2952881,4.0600433,1.7527161,9.8492584,7.3703156,12.3664093l1.7335205-10.059967
			l-8.837738-8.0638733c-0.0471802,0.2128906-0.0731506,0.3957672-0.0983887,0.5582428
			c-0.0766602,0.5079041-0.0859375,0.813736-0.0865479,0.8341522
			C178.2536163,247.9350281,177.9935608,249.7843475,178.1724548,252.3000641z"/>
	</g>
</g>
<g id="MAN_HEAD">
	<g>
		<g>
			<path class="st9" d="M186.8888702,239.6321716c0,0-0.2016602-3.7843933,2.746994-4.0743561
				c2.9486389-0.2899628,5.3926392,6.2665863,1.4373169,10.2033386L186.8888702,239.6321716z"/>
			<path class="st17" d="M190.0378113,237.7444763c0,0-0.9684143,1.7005157-0.1407776,4.9396057"/>
		</g>
		<path class="st9" d="M171.5252686,233.8895874c5.7736511-5.7725525,14.9571228,1.9050751,19.8758698,9.1124878
			c4.9187622,7.2073975,3.0643311,16.1648254-6.8148956,15.8832703
			C174.7070312,258.6037903,159.7196808,245.6929474,171.5252686,233.8895874z"/>
		<path class="st8" d="M177.8527069,262.0641479l0.2569275-4.8408813l-4.176651-4.3417358l-1.788147-2.5755615
			c0,0,5.0413208-4.0677795-1.7470856-8.0579834c0,0,12.0834045,1.3760834,17.5595093-4.4806671
			c5.4841766-5.8503265,3.4733887-16.6745758,0.5938873-17.7264099c-2.7505188-1.0151825-3.5494995,3.6336517-3.6096344,4.007431
			c-0.0920715-0.6793823-1.7821503-13.7787323-9.7033997-15.0196381
			c-8.1225586-1.2694244-10.6228943,16.6668091-11.8466492,27.3162994
			c-0.1888885,1.6289062-0.4084473,3.1804962-0.6298676,4.6516113c-0.7315216-1.8469696-1.9522858-4.7685852-3.4161682-7.6329803
			c-2.4240723-4.7221069-7.0177155,1.665329,2.7595062,11.3408661c0,0-9.0013733-1.6390839-10.0512543,1.9667511
			c-0.8952332,3.030365,5.3919983,2.8134155,9.6711121,0.946228c-0.6746368,4.7741241-0.7774658,8.3822479,1.2620544,10.8875275
			C166.3999786,262.696106,177.8527069,262.0641479,177.8527069,262.0641479z"/>
		<g>
			<path class="st9" d="M173.9329834,252.8815308c0,0-3.3131561-1.702179-5.6596222,1.5926208
				c-2.3464813,3.2947693,5.1969299,8.3072205,10.0442505,1.7306519L173.9329834,252.8815308z"/>
			<path class="st17" d="M175.5509033,255.5413208c0,0-3.2191467-1.682312-5.8575439,0.3918915"/>
			<path class="st17" d="M173.079895,257.4741211c0,0-0.884079-1.0132446-0.8134613-2.5544586"/>
		</g>
	</g>
</g>
<g id="MAN_FACE">
	<g>
		<path class="st8" d="M175.7321472,247.2204742c0,0-0.9556122-3.4413147,1.6688385-4.1514435
			c0,0-0.4360809-0.5856476,0.0266724-1.0215912c0.4627533-0.4359589,1.83638,1.003067,1.83638,1.003067
			S176.9308472,244.8169708,175.7321472,247.2204742z"/>
		<path class="st8" d="M186.3123779,237.3190765c0,0-2.8618774-1.574295-3.1016998,0.5001373
			c0,0-0.534729-0.2804108-0.8101349,0.0287781c-0.4763184,0.5347595,1.0301056,1.6561432,1.0301056,1.6561432
			S184.5455322,237.8063507,186.3123779,237.3190765z"/>
		<g>
			
				<ellipse transform="matrix(0.7655308 -0.6433992 0.6433992 0.7655308 -117.0714569 174.844986)" class="st8" cx="181.3574982" cy="248.0484772" rx="1.3409228" ry="1.6578683"/>
			<circle class="st15" cx="181.205368" cy="247.40802" r="0.3565636"/>
		</g>
		<g>
			
				<ellipse transform="matrix(0.7655308 -0.6433992 0.6433992 0.7655308 -112.3835983 177.5440369)" class="st8" cx="187.4046173" cy="242.9661102" rx="1.3409228" ry="1.6578683"/>
			<circle class="st15" cx="187.2524872" cy="242.3256378" r="0.3565636"/>
		</g>
		<path class="st17" d="M187.4672089,247.3950958c0,0,1.6006317-0.5798645,2.0747681,0.5267639
			c0.5493927,1.2822723-1.2290802,2.1397247-1.2290802,2.1397247"/>
		<circle class="st17" cx="181.3128052" cy="248.1520996" r="3.7169533"/>
		<circle class="st17" cx="188.1865234" cy="242.0604706" r="3.7169533"/>
		<path class="st15" d="M190.6531525,251.0728912c0,0-1.6204834,2.7471771-5.7466278,2.3181305
			c0,0,1.5237732,2.8347473,4.5044861,1.7952118S190.6531525,251.0728912,190.6531525,251.0728912z"/>
	</g>
</g>
<g id="MAN_RIGHT_ARM">
	<g>
		<g>
			<path class="st9" d="M259.2233887,236.8769073l4.8118896-6.4158325l-1.0467529-5.102951
				c-0.2481384-1.2097015-0.1685791-2.4637451,0.2304688-3.6323853l1.8855896-5.5220947v-5.6411743
				c0-1.0658722,0.7666016-1.9772949,1.8167114-2.1599274l0,0c1.239624-0.2155762,2.4059753,0.6541595,2.5529785,1.9037781
				l0.798645,6.7884064l0.8910828,2.3168335l3.7425842-7.2178192l-1.8861084-9.8831024
				c-0.1966248-1.0303497,0.3868408-2.0503235,1.3746643-2.4031219l0,0
				c1.1154785-0.3983917,2.3415527,0.1906433,2.7276917,1.3104095l1.9718628,5.718399l-0.3861389-3.8613892
				c-0.1073608-1.0734558,0.6619568-2.0362549,1.7326355-2.1684418l0,0c0.9694214-0.1196747,1.8819275,0.4833984,2.151825,1.4221497
				l1.5808716,5.498764l1.6065674,3.3527985c0.2881165,0.6012878,0.3815613,1.2774506,0.2673035,1.9343567l-0.1807861,1.0395813
				l0.0845642,0.2325745c0.8320618,2.2881317,0.4024658,4.845047-1.1316223,6.735672l-10.1806641,12.5466003l-7.8415833,11.4059448
				L259.2233887,236.8769073z"/>
			<path class="st10" d="M279.3055725,208.1392822c0,0,0.9801941,4.2326813,0.9801941,4.4554443
				c0,0.2227783-0.9801941,3.3861389-0.9801941,3.3861389"/>
			<path class="st10" d="M284.1132507,210.4561157c0,0,0.2715149,2.7623749,0.2715149,3.0297089
				c0,0.2673187-1.2920837,4.0805969-1.2920837,4.0805969"/>
			<line class="st10" x1="285.586792" y1="215.6244354" x2="284.6520996" y2="219.0105743"/>
		</g>
		<g>
			<polygon class="st15" points="265.522522,253.6592102 271.4457092,247.4169006 258.4522095,233.5118408 252.3105621,239.3773499 
							"/>
			<path class="st0" d="M169.1449738,277.000946l54.629776-12.6154785l29.9190826-28.1060791l14.608017,17.2186737
				c0,0-33.170166,33.4731598-35.7604675,34.7191315c-2.5902863,1.2459412-70.6607056,22.175415-70.6607056,22.175415
				C144.4342651,312.1607666,142.6675415,276.8909607,169.1449738,277.000946z"/>
			<path class="st17" d="M214.9753723,293.9218445c-20.9511108,6.5876465-53.094696,16.4707642-53.094696,16.4707642"/>
			<polyline class="st17" points="213.4123993,266.7784119 223.7747498,264.3854675 253.6938324,236.2793884 			"/>
			<circle class="st8" cx="261.12146" cy="254.2563171" r="2.1674318"/>
			<line class="st17" x1="223.9876404" y1="266.0458069" x2="229.1211395" y2="276.5006714"/>
		</g>
	</g>
</g>
</svg>
