<svg id="RIGHT_FEET" data-name="RIGHT FEET" xmlns="http://www.w3.org/2000/svg" viewBox="0 0 1600 1400"><defs><style>.cls-1{fill:#fff;}.cls-2{fill:#262424;}.cls-3{fill:#de9244;}.cls-4{fill:#88c0c2;}</style></defs><title>Giveaway</title><polygon class="cls-1" points="692.3 1086.31 681.94 1127.08 669.74 1175.11 643.59 1179.15 649.41 1103.95 651.41 1078.26 692.3 1086.31"/><path class="cls-2" d="M643.59,1181.26a2.12,2.12,0,0,1-2.11-2.28l7.82-100.89a2.12,2.12,0,0,1,.83-1.52,2.18,2.18,0,0,1,1.69-.39l40.89,8a2.12,2.12,0,0,1,1.64,2.6l-22.56,88.8a2.12,2.12,0,0,1-1.73,1.57l-26.15,4Zm9.75-100.47-7.43,95.85,22.12-3.41L689.7,1088Z"/><polygon class="cls-2" points="692.3 1086.31 681.94 1127.08 649.41 1103.95 651.41 1078.26 692.3 1086.31"/><path class="cls-2" d="M681.94,1129.2a2.11,2.11,0,0,1-1.23-.39l-32.53-23.13a2.12,2.12,0,0,1-.88-1.89l2-25.69a2.12,2.12,0,0,1,.83-1.52,2.18,2.18,0,0,1,1.69-.39l40.89,8a2.12,2.12,0,0,1,1.64,2.6L684,1127.6a2.12,2.12,0,0,1-1.32,1.47A2.15,2.15,0,0,1,681.94,1129.2Zm-30.32-26.28,29,20.64L689.7,1088l-36.36-7.16Z"/><path class="cls-3" d="M725.52,1223.85l-24.46,27c-10-13.12-23.57-23.81-23.57-23.81s5.29,25.68,5.75,43.47l-66.65,73.6a150.29,150.29,0,0,1-13.49-12.75c-3.75-4.12-6.8-8.32-6.78-11.06,0.05-7.06,10.39-22.15,14.47-47.16s15.6-107.92,15.6-107.92l54.48-13.35s8.7,10.91,18.51,25C709.95,1192,721.78,1210.86,725.52,1223.85Z"/><path class="cls-1" d="M725.52,1223.85l-24.46,27c-10-13.12-23.57-23.81-23.57-23.81s5.29,25.68,5.75,43.47l-66.65,73.6a150.29,150.29,0,0,1-13.49-12.75L660.26,1264a13.9,13.9,0,0,0,3.28-9.87c-0.53-8.36-1.71-23.27-2.39-31.76a13.91,13.91,0,0,1,4-10.9l34.25-34.56C709.95,1192,721.78,1210.86,725.52,1223.85Z"/><path class="cls-2" d="M616.59,1346.24a2.12,2.12,0,0,1-1.35-.48,151.36,151.36,0,0,1-13.71-13,2.12,2.12,0,0,1,0-2.79l57.15-67.42a11.71,11.71,0,0,0,2.78-8.36c-0.53-8.41-1.72-23.49-2.38-31.72a16,16,0,0,1,4.6-12.56l34.25-34.56a2.12,2.12,0,0,1,3.24.28c9.89,14.19,22.5,34,26.43,47.6a2.12,2.12,0,0,1-.46,2l-24.46,27a1.9,1.9,0,0,1-1.66.69,2.11,2.11,0,0,1-1.6-.83,146.42,146.42,0,0,0-18.67-19.6c1.59,8.68,4.32,25.16,4.65,37.92a2.12,2.12,0,0,1-.55,1.48l-66.65,73.6A2.12,2.12,0,0,1,616.59,1346.24Zm-10.65-14.93c3.87,4.08,8.21,7.93,10.46,9.87l64.7-71.45c-0.59-17.37-5.63-42-5.68-42.26a2.12,2.12,0,0,1,3.39-2.09,158.46,158.46,0,0,1,22.37,22.19l22-24.26c-3.16-10-11.44-24.84-24.05-43.15l-32.45,32.75a11.78,11.78,0,0,0-3.38,9.24c0.66,8.25,1.85,23.35,2.39,31.79a15.94,15.94,0,0,1-3.77,11.37Z"/><path class="cls-4" d="M851.35,599.42c-12.91,87.44-149.44,475.13-149.44,475.13l-53.59-8.39c3.12-40,8.52-101.39,16.54-174,3-26.66,6.25-54.08,9.55-81,13.94-112.42,29.16-215.71,29.16-215.71C722.38,476.09,864.23,512,851.35,599.42Z"/><path class="cls-2" d="M702.15,637.63h-0.37a2.12,2.12,0,0,1-2-2.27,2.09,2.09,0,0,1,2.26-2c0.72,0.06,17.09.71,20.53-26.86a2.12,2.12,0,1,1,4.2.53C723.13,636.46,705,637.63,702.15,637.63Z"/><path class="cls-2" d="M689.83,1056.83a2,2,0,0,1-.58-0.08,2.12,2.12,0,0,1-1.45-2.62c59.23-207,107.83-388,108.31-389.77a2.12,2.12,0,0,1,4.09,1.1c-0.49,1.8-49.09,182.77-108.33,389.84A2.12,2.12,0,0,1,689.83,1056.83Z"/><path class="cls-1" d="M704.94,857.75c-4.12,22.36-21.46,37.9-38.72,34.73-0.45-.09-0.9-0.18-1.35-0.29,3-26.66,6.25-54.08,9.55-81a23.41,23.41,0,0,1,6.72.28C698.4,814.67,709.06,835.39,704.94,857.75Z"/><path class="cls-1" d="M642.05,1055.53c0.45-4.23,70.87,10.41,73.33,11.49s-8.41,39.12-9.83,40.16-61.37-6.46-64.17-8.95S641.67,1059.06,642.05,1055.53Z"/><path class="cls-2" d="M704.31,1109.17c-12,0-61.62-6.94-64.34-9.35-4.2-3.74-.07-44.09,0-44.51h0a2.61,2.61,0,0,1,1.33-2c6.4-3.69,74.41,11.52,75,11.75a2.79,2.79,0,0,1,1.59,2.48c0.61,5.45-8.44,39.44-11,41.33A6,6,0,0,1,704.31,1109.17Zm-0.41-3.29h0Zm-61-9.17c4.71,2.12,53.57,8.37,61.32,8.46,2.19-5.18,9.34-30.84,9.41-36.49-8.86-2.5-61.35-12.66-69.61-11.79C643.09,1066.54,641.41,1092.79,642.92,1096.72Zm0.08,0.19h0Zm1.16-41.15h0Zm-2.11-.23h0Z"/><polygon class="cls-1" points="993.61 950.72 990.14 976.95 953.35 963.76 914.66 949.92 933.89 912.96 953.35 925.27 993.61 950.72"/><path class="cls-2" d="M990.14,979.06a2.13,2.13,0,0,1-.71-0.12l-75.47-27a2.12,2.12,0,0,1-1.16-3L932,912a2.12,2.12,0,0,1,3-.81l59.72,37.75a2.11,2.11,0,0,1,1,2.07l-3.47,26.23A2.11,2.11,0,0,1,990.14,979.06Zm-72.47-30.32,70.72,25.32,3-22.29L934.71,916Z"/><polygon class="cls-2" points="953.35 925.27 953.35 963.76 914.66 949.92 933.89 912.96 953.35 925.27"/><path class="cls-2" d="M953.35,965.88a2.13,2.13,0,0,1-.71-0.12l-38.68-13.84a2.12,2.12,0,0,1-1.16-3L932,912a2.12,2.12,0,0,1,3-.81l19.46,12.31a2.12,2.12,0,0,1,1,1.79v38.49A2.12,2.12,0,0,1,953.35,965.88Zm-35.68-17.13,33.57,12V926.44L934.71,916Z"/><path class="cls-3" d="M1070.24,981.84l-9.46,35.19c-14.91-7.11-31.83-10.46-31.83-10.46s16.41,20.45,24.92,36.08l-25.8,95.88a150.29,150.29,0,0,1-17.82-5.21c-5.22-2-9.85-4.31-11.08-6.76-3.17-6.31-.84-24.45-8.61-48.57s-35.28-103.17-35.28-103.17l42.42-36.7s12.71,5.75,27.86,13.81C1041.87,960.6,1061,972,1070.24,981.84Z"/><path class="cls-1" d="M1070.24,981.84l-9.46,35.19c-14.91-7.11-31.83-10.46-31.83-10.46s16.41,20.45,24.92,36.08l-25.8,95.88a150.29,150.29,0,0,1-17.82-5.21l20.16-86.05a13.9,13.9,0,0,0-1.58-10.28c-4.28-7.2-12.12-19.94-16.59-27.18a13.91,13.91,0,0,1-1.42-11.52l14.74-46.36C1041.87,960.6,1061,972,1070.24,981.84Z"/><path class="cls-2" d="M1028.07,1140.65a2.17,2.17,0,0,1-.46,0,151.32,151.32,0,0,1-18.11-5.29,2.12,2.12,0,0,1-1.32-2.47l20.16-86.05a11.72,11.72,0,0,0-1.34-8.71c-4-6.76-11.23-18.5-16.57-27.16a16,16,0,0,1-1.63-13.28l14.74-46.36a2.12,2.12,0,0,1,3-1.23c15.27,8.13,35.51,20,45.22,30.33a2.12,2.12,0,0,1,.5,2l-9.46,35.18a2.13,2.13,0,0,1-1.16,1.38,2.09,2.09,0,0,1-1.8,0,146.17,146.17,0,0,0-25.55-8.94c5.37,7,15.31,20.43,21.41,31.64a2.12,2.12,0,0,1,.19,1.57l-25.8,95.88A2.12,2.12,0,0,1,1028.07,1140.65Zm-15.33-8.67c5.31,1.87,10.92,3.32,13.81,4l25-93.08c-8.44-15.19-24.15-34.83-24.31-35a2.12,2.12,0,0,1,2.06-3.4,157.85,157.85,0,0,1,30,9.56l8.5-31.6c-7.37-7.45-21.5-16.9-41.07-27.45l-14,43.94a11.79,11.79,0,0,0,1.2,9.77c5.35,8.67,12.58,20.43,16.61,27.21a15.94,15.94,0,0,1,1.82,11.84Z"/><path class="cls-2" d="M804.54,667.8a2.12,2.12,0,0,1-1.43-.55c-5.62-5.13-15.07-14.31-15.15-18.18-0.07-3.57,10.08-55.9,12.12-66.35a2.12,2.12,0,1,1,4.16.81c-4.83,24.78-12,62.66-12,65.47,0.36,1.82,7.41,9.32,13.77,15.12A2.12,2.12,0,0,1,804.54,667.8Z"/><path class="cls-4" d="M931.8,663.1c-7.51,49.47-86.74,179.7-86.74,179.7l82.68,59.95-26.32,48.54S826.54,924,794.57,907.71c-2.46-1.24-4.86-2.51-7.17-3.78-16.6-9.12-29.62-18.83-31.06-27.36-0.73-4.29.45-17.14,3.22-35.55,0.28-1.95.59-4,.93-6.07,14.71-93.52,63.7-306.73,102.61-310.74a36.76,36.76,0,0,1,12.37.79c34.59,8.22,54.58,65.93,57.23,110.52A133.43,133.43,0,0,1,931.8,663.1Z"/><path class="cls-1" d="M794.57,907.71c-2.46-1.24-4.86-2.51-7.17-3.78-16.6-9.12-29.62-18.83-31.06-27.36-0.73-4.29.45-17.14,3.22-35.55,0.28-1.95.59-4,.93-6.07a50.88,50.88,0,0,1,27.3,16C802.65,867.62,804.88,890.85,794.57,907.71Z"/><path class="cls-2" d="M770.3,895.38A2.1,2.1,0,0,1,769,895c-9-6.64-13.87-12.54-14.8-18-1-5.68,1.22-22.84,3.23-36.23C767.73,772.11,797,638,827.33,568.06a2.12,2.12,0,0,1,3.89,1.68C801.06,639.36,771.89,773,761.66,841.33c-2.74,18.23-3.92,30.95-3.24,34.9,0.72,4.24,5.26,9.54,13.14,15.33A2.12,2.12,0,0,1,770.3,895.38Z"/><path class="cls-2" d="M911.62,910.35a2.11,2.11,0,0,1-1.21-.38l-91.48-64.24a2.11,2.11,0,0,1-.76-2.48c21.4-56.49,77.17-204.38,78.25-210.2,0.89-5-2.76-37.31-5.43-57.85a2.12,2.12,0,0,1,4.2-.55c0.69,5.29,6.69,51.94,5.4,59.14-1.24,6.95-70.23,189.22-77.88,209.41l90.13,63.29A2.12,2.12,0,0,1,911.62,910.35Z"/><path class="cls-2" d="M932.7,635.51L844.58,578s13.07-27.16,25.55-46.59a33.51,33.51,0,0,1,5.34-6.38C910.06,533.21,930,590.93,932.7,635.51Z"/><path class="cls-2" d="M898.5,635.54a2.06,2.06,0,0,1-.44,0c-0.57-.12-13.94-3-19.89-8.63-8-7.58-10-35.8-10.16-39a2.12,2.12,0,0,1,2-2.24,2.09,2.09,0,0,1,2.25,2c0.51,8.21,3.09,30.72,8.85,36.18,4.22,4,14.32,6.81,17.85,7.55A2.12,2.12,0,0,1,898.5,635.54Z"/><path class="cls-2" d="M799.74,849.59a2.12,2.12,0,0,1-.25-4.22l40.15-4.81a2.15,2.15,0,0,1,2.35,1.85,2.12,2.12,0,0,1-1.85,2.35L800,849.57h-0.25Z"/><path class="cls-1" d="M883.9,952c-3.85-1.8,32.81-63.67,34.63-65.65s34.28,20.63,34.81,22.31-26,56-29.26,57.81S887.12,953.51,883.9,952Z"/><path class="cls-2" d="M923.5,968.63c-8.62,0-40.12-14.53-40.5-14.7h0a2.61,2.61,0,0,1-1.44-1.9c-1.44-7.28,35-66.66,35.4-67.1a2.79,2.79,0,0,1,2.85-.7c4.19,0.93,34.48,20.46,35.54,23.8,1,3.09-26.73,58.31-30.24,60.29A3.39,3.39,0,0,1,923.5,968.63Zm-37.67-18.06c8.75,4,32.74,14,37.21,14h0.1c3.53-3.77,25.28-48,27.88-55.27-4.19-3.76-26.15-18.84-31.47-20.72C914.31,896.1,887.66,942.48,885.84,950.57Zm37.51,13.94h0Zm28.23-54.7h0Z"/><path class="cls-1" d="M737.42,390.79c-2.26,7.85-5.2,16.38-8.7,25.33a562,562,0,0,1-26.09,56.39c-7.23,13.69-14.91,27.08-22.56,39.25-17.31,27.64-34.39,49.19-45.49,54.58C608.47,579,530.82,510.57,530.82,510.57l3.53-36L600,488.69l26.57-57,32.58-69.8a115.14,115.14,0,0,1,45.32-50.18C730.82,307.95,754.82,330.08,737.42,390.79Z"/><path class="cls-2" d="M627.1,570c-31.73,0-94.76-55.23-97.69-57.81a2.12,2.12,0,0,1-.71-1.8l3.53-36a2.12,2.12,0,0,1,2.55-1.86l64,13.76L657.23,361a116.88,116.88,0,0,1,46.15-51.1,2.1,2.1,0,0,1,.78-0.28c12.44-1.8,23.41,1.94,30.87,10.49,8.53,9.78,16.21,30.07,4.42,71.25h0c-2.25,7.83-5.2,16.41-8.76,25.51a563.92,563.92,0,0,1-26.19,56.6c-7.37,14-15,27.22-22.64,39.39-11,17.62-31.73,48.25-46.36,55.36A19.06,19.06,0,0,1,627.1,570ZM533,509.69c22,19.22,80.5,64.53,100.63,54.74,10-4.85,26.25-24.46,44.62-53.8,7.6-12.08,15.16-25.24,22.48-39.11a559.53,559.53,0,0,0,26-56.17c3.51-9,6.42-17.44,8.63-25.14h0c8.79-30.7,7.54-54.6-3.54-67.3-6.4-7.34-15.86-10.58-26.66-9.14a112.66,112.66,0,0,0-44.12,49L601.92,489.58a2.12,2.12,0,0,1-2.36,1.18l-63.33-13.62Zm204.39-118.9h0Z"/><path class="cls-2" d="M626.57,537.75a2.12,2.12,0,0,1-2-1.49c-6-19.43-23.47-38.9-23.65-39.09a2.12,2.12,0,0,1,3.14-2.84c0.74,0.82,18.23,20.34,24.55,40.67A2.12,2.12,0,0,1,626.57,537.75Z"/><path class="cls-3" d="M737.42,390.79c-6.78,23.55-19.82,53.34-34.79,81.72l-76.07-40.8,32.58-69.8a115.14,115.14,0,0,1,45.32-50.18C730.82,307.95,754.82,330.08,737.42,390.79Z"/><path class="cls-3" d="M702.64,474.62a2.13,2.13,0,0,1-1-.25l-76.07-40.8a2.12,2.12,0,0,1-.92-2.76L657.23,361a116.88,116.88,0,0,1,46.15-51.1,2.1,2.1,0,0,1,.78-0.28c12.44-1.8,23.41,1.94,30.87,10.49,8.53,9.78,16.21,30.07,4.42,71.25h0c-6.48,22.5-18.89,51.66-34.95,82.12A2.12,2.12,0,0,1,702.64,474.62Zm-73.3-43.84,72.42,38.84c15.45-29.52,27.37-57.66,33.63-79.43,8.79-30.69,7.54-54.59-3.54-67.29-6.4-7.34-15.86-10.58-26.66-9.14a112.66,112.66,0,0,0-44.12,49Zm108.09-40h0Z"/><path class="cls-2" d="M693.17,452.68a2.12,2.12,0,0,1-.95-0.22l-54.59-27.29a2.12,2.12,0,1,1,1.89-3.79l54.59,27.29A2.12,2.12,0,0,1,693.17,452.68Z"/><path class="cls-2" d="M728.73,416.12a562,562,0,0,1-26.09,56.39c-7.23,13.69-14.91,27.08-22.56,39.25l9.35-111.53S711.76,404.09,728.73,416.12Z"/><path class="cls-2" d="M680.08,513.87a2.15,2.15,0,0,1-.67-0.11,2.12,2.12,0,0,1-1.44-2.19L687.31,400a2.12,2.12,0,0,1,2.47-1.91c0.93,0.16,23,4.09,40.17,16.26a2.12,2.12,0,0,1,.75,2.5,563.79,563.79,0,0,1-26.19,56.6c-7.37,14-15,27.22-22.64,39.39A2.12,2.12,0,0,1,680.08,513.87Zm11.26-111.1L682.92,503.1c6-10,12-20.54,17.84-31.58a564.65,564.65,0,0,0,25.38-54.61C713.11,408.16,697.17,404.06,691.33,402.77Z"/><path class="cls-3" d="M408.78,629.46a5.71,5.71,0,0,1-1-.1,5.65,5.65,0,0,1-4.53-6.58l28.24-153.38a5.65,5.65,0,1,1,11.11,2L414.32,624.84A5.65,5.65,0,0,1,408.78,629.46Z"/><polygon class="cls-4" points="533.52 841.72 474.89 664.51 317.68 627.65 376.3 804.85 533.52 841.72"/><polygon class="cls-4" points="671.64 609.89 474.89 664.51 533.52 841.23 647.3 809.64 671.64 609.89"/><path class="cls-2" d="M470,692.79a2.11,2.11,0,0,1-.45,0L337.26,664a2.12,2.12,0,0,1,.9-4.14L470.4,688.61A2.12,2.12,0,0,1,470,692.79Z"/><path class="cls-2" d="M496.77,690.44a2.12,2.12,0,0,1-.56-4.16L660.45,641.1a2.12,2.12,0,1,1,1.12,4.08L497.34,690.36A2.14,2.14,0,0,1,496.77,690.44Z"/><polygon class="cls-1" points="317.68 627.65 514.42 573.02 671.64 609.89 474.89 664.51 317.68 627.65"/><path class="cls-2" d="M474.89,666.63a2.05,2.05,0,0,1-.48-0.06L317.19,629.71a2.12,2.12,0,0,1-.08-4.1L513.85,571a2.1,2.1,0,0,1,1.05,0l157.22,36.86a2.12,2.12,0,0,1,.08,4.1L475.46,666.55A2.13,2.13,0,0,1,474.89,666.63ZM326.21,627.48l148.63,34.85L663.1,610.06,514.46,575.21Z"/><path class="cls-2" d="M371.12,633.51a2.12,2.12,0,0,1-.56-4.16l140.12-38.48a2.15,2.15,0,0,1,1,0l102.45,22.94a2.12,2.12,0,0,1-.93,4.13L511.3,595.09,371.68,633.43A2.09,2.09,0,0,1,371.12,633.51Z"/><path class="cls-2" d="M509.13,645.26H509a2.12,2.12,0,0,1-2-2.21l2.12-50.24a2.14,2.14,0,0,1,2.21-2,2.12,2.12,0,0,1,2,2.21l-2.12,50.24A2.12,2.12,0,0,1,509.13,645.26Z"/><path class="cls-2" d="M530.18,833.3a2.12,2.12,0,0,1-2-1.45L476.8,677a2.12,2.12,0,0,1,4-1.33l51.38,154.87a2.12,2.12,0,0,1-1.34,2.68A2.09,2.09,0,0,1,530.18,833.3Z"/><path class="cls-3" d="M624.21,646.44a5.65,5.65,0,0,1-5.35-3.84L573.31,507.53a5.65,5.65,0,0,1,10.7-3.61L629.56,639A5.65,5.65,0,0,1,624.21,646.44Z"/><path class="cls-3" d="M550.43,664.76a5.71,5.71,0,0,1-1-.1,5.65,5.65,0,0,1-4.53-6.58l27.28-148.16-136.5-34a5.65,5.65,0,1,1,2.73-11L580,500.25a5.65,5.65,0,0,1,4.19,6.5L556,660.13A5.65,5.65,0,0,1,550.43,664.76Z"/><path class="cls-1" d="M492.54,444c-11.17-.11-14.6,17.12,12.59,19.89S541.63,444.53,492.54,444Z"/><path class="cls-2" d="M509.76,466.27a47.77,47.77,0,0,1-4.85-.25c-17.35-1.77-23.11-9.36-22.78-15.33,0.28-5,4.7-8.78,10.3-8.78h0.13c19.63,0.2,32.82,4,36.19,10.41a6.75,6.75,0,0,1-.46,7.19C525.4,463.78,518.38,466.27,509.76,466.27Zm-17.33-20.13c-3.37,0-5.91,2-6.07,4.78-0.25,4.43,5.52,9.51,19,10.88,10,1,17.35-1.58,19.44-4.68a2.55,2.55,0,0,0,.21-2.85c-1.9-3.62-11.55-7.93-32.48-8.14h-0.09Z"/><path class="cls-1" d="M477.4,451.51c-9.15,3.48-13.88,46.83-8.47,52.94s15.06,0.94,15.06.94,3.53,5.18,30.12,8,27.53-32.24,25.88-43.53-39.3-16.71-48.71-10.59C491.29,459.27,487.29,447.74,477.4,451.51Z"/><path class="cls-2" d="M517.09,515.67a30,30,0,0,1-3.2-.18c-20.05-2.13-27.54-5.63-30.26-7.6-3.17,1.33-11.11,3.81-16.28-2-4.56-5.15-2.87-27.13.3-40,2.32-9.44,5.35-14.94,9-16.33h0a11.24,11.24,0,0,1,9.05.1,15.26,15.26,0,0,1,6.61,6.78c9.23-3.6,29.25-1.37,40.17,3.57,5.84,2.64,9.07,5.87,9.61,9.58,1.06,7.27,1.49,28.56-9.11,39.58A21.19,21.19,0,0,1,517.09,515.67ZM485.74,504.2s4.45,4.52,28.59,7.09c6.46,0.68,11.69-1,15.59-5.08,9.38-9.75,8.88-29.79,8-36-0.31-2.13-2.86-4.38-7.17-6.33-11.49-5.2-32.25-6.71-38.29-2.79a2.12,2.12,0,0,1-3.15-1.08s-1.74-4.82-5.39-6.51a7.13,7.13,0,0,0-5.74,0h0c-1.66.63-4.21,4.48-6.4,13.38-3.66,14.87-3.8,33.28-1.24,36.18,4.23,4.78,12.4.52,12.48,0.48a2.12,2.12,0,0,1,2.75.68h0Zm-8.34-52.69h0Z"/><path class="cls-2" d="M828,145.84c-13.21,11.08,9.65,38.62,18.37,46.87s10.56,39.35,33.07,42.62-1.13,53.61,60.7,77.32c47.64,18.27,105.12-25.9,85.4-56.06s-77.48-28.28-95.18-56.1c-11.26-17.7-12.17-48.29-47.47-48C856.59,152.7,838.47,137.09,828,145.84Z"/><path class="cls-1" d="M1159.41,88.07c-8.64,26.18-17.45,51.87-32.81,53.31,0,0-34.59,119.3-51.53,144-5.42,7.93-40.18,31.17-83,51.45-41,19.4-89.34,36-126.61,34-76.24-4.24-62.57-81.63,3.3-93.41-2.54,2,44.53-13,89.62-28.38,29.51-10,58.17-20.16,71.55-25.75s61.41-96,61.41-96L1101.9,68Z"/><path class="cls-2" d="M871.75,373.09q-3.26,0-6.45-.17c-38-2.11-52.67-22-53.76-39.85-1.39-22.83,18.05-50.83,56.81-57.75a2.1,2.1,0,0,1,1,.06c5.85-1.17,43.26-13,88.33-28.35,19.77-6.72,55.33-19,71.41-25.7,9.32-3.88,41-58.67,60.2-94.75l10.53-59a2.12,2.12,0,0,1,2.78-1.63l57.52,20.1a2.11,2.11,0,0,1,1.31,2.66c-8.38,25.38-17,51.6-33.17,54.55-4,13.77-35.26,119.71-51.43,143.29-6,8.72-41.88,32.3-83.88,52.16C965.24,351.85,913.88,373.09,871.75,373.09Zm-3.47-93.46c-35.8,6.74-53.78,32.33-52.51,53.18s19.87,34.22,49.77,35.88c42.26,2.36,96.83-20.15,125.58-33.77,43.52-20.58,77.21-43.42,82.2-50.73,16.56-24.15,50.9-142.21,51.24-143.4a2.12,2.12,0,0,1,1.84-1.52c13.93-1.31,22.69-26.72,30.35-49.89l-53.2-18.6-10.15,56.85a2.07,2.07,0,0,1-.22.62c-4.95,9.32-48.73,91.25-62.47,97C1014.51,232,978.84,244.29,959,251c-21.39,7.27-43.66,14.63-61.09,20.19C876.89,277.92,870.59,279.81,868.28,279.63Z"/><path class="cls-3" d="M992,336.83c-13.89,6.58-28.63,12.82-43.48,18.13-29,10.39-58.48,17.2-83.13,15.84-1.24-.06-2.46-0.17-3.64-0.25-72.14-6.49-57.86-81.57,6.95-93.15-2.54,2,44.53-13,89.62-28.38Z"/><path class="cls-3" d="M871.86,373.09q-3.36,0-6.56-.18c-0.86,0-1.72-.11-2.57-0.17l-1.11-.08c-35.81-3.22-49.36-22.91-50.12-40.26-1-22.58,18.6-50.25,56.84-57.09a2.1,2.1,0,0,1,1,.06c5.85-1.17,43.26-13,88.33-28.35a2.11,2.11,0,0,1,2.66,1.25L994,336.07a2.12,2.12,0,0,1-1.07,2.67c-14.84,7-29.53,13.15-43.68,18.21C919.34,367.67,893.34,373.09,871.86,373.09Zm-3.58-93.46c-35.33,6.65-53.44,32-52.54,52.58,0.88,20.16,18.16,33.7,46.23,36.22l1.09,0.08c0.81,0.06,1.62.13,2.45,0.17,22.13,1.2,49.82-4.07,82.32-15.72,13.45-4.81,27.41-10.59,41.52-17.21L957.1,251.68c-20.79,7.06-42.25,14.14-59.16,19.53C876.89,277.92,870.59,279.81,868.28,279.63Z"/><path class="cls-2" d="M948.54,355c-29,10.39-58.48,17.2-83.13,15.84-1.24-.06-2.46-0.17-3.64-0.25-4.35-12.71-3.42-25.41-2-30.58,2.82-10.33,11.21-19.68,11.21-19.68C871,319.55,920.51,342.11,948.54,355Z"/><path class="cls-2" d="M871.86,373.09q-3.36,0-6.56-.18c-0.86,0-1.72-.11-2.57-0.17l-1.11-.08a2.12,2.12,0,0,1-1.86-1.43c-4.38-12.8-3.62-26-2-31.82,2.84-10.39,10.85-19.61,11.63-20.48a2.1,2.1,0,0,1,.56-0.48c1.35-.79,1.78-1,79.51,34.59a2.12,2.12,0,0,1-.17,3.92C919.34,367.67,893.34,373.09,871.86,373.09Zm-8.52-4.55c0.71,0.06,1.44.11,2.17,0.14,21,1.15,47-3.55,77.38-14-39.57-18.11-65.47-29.75-71.2-32-2.15,2.63-7.75,10-9.88,17.81C860.43,345.6,859.76,357.07,863.35,368.54Z"/><path class="cls-2" d="M967.42,335.15a2.12,2.12,0,0,1-2-1.36L940,267.44a2.12,2.12,0,1,1,4-1.51l25.41,66.36A2.12,2.12,0,0,1,967.42,335.15Z"/><path class="cls-1" d="M1101.19,59.14c-9.75,4.14-8.82,36.35-3.53,39.53S1110,96.56,1110,96.56s2,10.47,21.88,16.24c14.9,4.32,27.65-6.94,30.94-23.88,3.33-17.13-32-33.41-46.83-23.53C1116,65.38,1112.84,54.2,1101.19,59.14Z"/><path class="cls-2" d="M1138.25,115.84a24.89,24.89,0,0,1-6.95-1c-14.87-4.31-20.37-11.3-22.33-15.14-2.9,1.55-8,3.44-12.4.81S1091.23,85,1091.78,77c0.44-6.23,2.13-17.1,8.58-19.83h0c4.19-1.78,7.93-1.91,11.13-.37a12.63,12.63,0,0,1,5.53,5.56c10.18-4.85,25.62-.81,35.78,6,9.11,6.07,13.53,13.72,12.11,21-2,10.22-7.31,18.63-14.6,23.08A22.94,22.94,0,0,1,1138.25,115.84ZM1110,94.44a2.11,2.11,0,0,1,2.08,1.72c0,0.07,2.24,9.34,20.39,14.6a19.06,19.06,0,0,0,15.63-2c6.28-3.83,10.89-11.22,12.65-20.27,1.07-5.51-2.68-11.58-10.3-16.65-9.92-6.6-25.08-10.17-33.27-4.71A2.12,2.12,0,0,1,1114,66s-1.16-3.83-4.34-5.33c-2-1-4.61-.81-7.62.46h0c-3.08,1.31-5.38,7.48-6,16.12-0.77,10.7,1.33,18.8,2.73,19.65,4,2.38,9.93-2,10-2A2.12,2.12,0,0,1,1110,94.44Z"/><path class="cls-1" d="M1117.19,92c1.55-6.21-28.71-14.82-36-13.18s-6.59,42.82,10.12,48.47,21.88-13.88,9.18-28.94C1100.48,98.32,1114.84,101.38,1117.19,92Z"/><path class="cls-2" d="M1096.87,130.38a19.56,19.56,0,0,1-6.25-1.11c-12.81-4.33-16.54-25.86-15.89-38.41,0.25-4.83,1.36-13.09,6-14.13,7.17-1.62,30.77,4.76,36.83,11,1.9,1.95,2,3.68,1.69,4.79h0c-1.84,7.36-9.25,8.53-14.24,8.44,5.31,8.43,6.28,18.08,2.09,24.24A11.84,11.84,0,0,1,1096.87,130.38ZM1083.6,80.68a9.11,9.11,0,0,0-1.94.17c-0.64.18-2.55,3.42-2.74,11.7-0.32,13.61,4.16,29.69,13.07,32.7,5.2,1.76,9.32.87,11.6-2.49,3.2-4.69,2.63-14.37-4.72-23.08a2.12,2.12,0,0,1,2.06-3.44c0.12,0,12.35,2.51,14.2-4.76,0-.12-0.29-0.79-1.94-2C1106.86,85.11,1090.53,80.68,1083.6,80.68Zm31.54,10.77h0Z"/><path class="cls-3" d="M946.37,584.69s-68.73,24.93-129.43,30.13-120.46-5.65-120.46-5.65l24-130.37s-38.6-33.4-38.12-53.65,22.11-113.42,22.11-113.42a521.76,521.76,0,0,1,55.34-16.26c21.4-5.14,42-9,59.38-11.72,29.25-4.66,49.53-6.35,49.53-6.35s42.35,96.93,42.81,115.29S897,457.63,897,457.63Z"/><path class="cls-3" d="M782.6,618.32a548.16,548.16,0,0,1-86.5-7.07,2.12,2.12,0,0,1-1.71-2.47L718.18,479.6c-6-5.37-38.4-35-37.94-54.5,0.45-20.23,21.28-110,22.16-113.85a2.12,2.12,0,0,1,1.34-1.51,522.11,522.11,0,0,1,55.57-16.33C778,288.93,798,285,818.86,281.66c29-4.62,49.48-6.35,49.68-6.37a2.12,2.12,0,0,1,2.12,1.26c1.73,4,42.53,97.53,43,116.08,0.45,17.46-12.47,58.74-14.44,64.93l49.14,126.36a2.12,2.12,0,0,1-1.25,2.76c-0.69.25-69.69,25.09-130,30.25C805.46,617.92,793.81,618.32,782.6,618.32ZM699,607.44c11.09,1.82,64.39,9.81,117.8,5.27,53.94-4.62,115-25.16,126.85-29.29L895,458.39a2.12,2.12,0,0,1,0-1.42c0.15-.46,14.93-46.45,14.47-64.24-0.41-16.56-36.84-101.14-42-113.1-5.22.49-23.51,2.32-47.86,6.2-20.74,3.3-40.67,7.23-59.22,11.69a519.89,519.89,0,0,0-54,15.81C703.82,324,684.89,406.6,684.48,425.2c-0.45,19,37,51.67,37.39,52a2.12,2.12,0,0,1,.7,2Z"/><path class="cls-1" d="M794.83,316.45c-27.11,4.88-33.6-10.81-35-21,5.79-1.38,11.52-2.68,17.14-3.87v-30l22.59-5.39,2.68,16,2.34,13.95q7.62-1.36,14.63-2.46C821.65,294.62,820.95,311.73,794.83,316.45Z"/><path class="cls-2" d="M785.33,319.48c-7,0-12.82-1.65-17.35-4.94-7-5.1-9.46-13-10.26-18.79a2.12,2.12,0,0,1,1.6-2.35c5.36-1.28,10.57-2.47,15.51-3.52V261.61a2.12,2.12,0,0,1,1.63-2.06l22.59-5.39a2.12,2.12,0,0,1,2.58,1.71l4.67,27.88q6.51-1.14,12.56-2.09a2.11,2.11,0,0,1,2.4,1.62c1.38,6.08,2,14.91-3,22.39-4.34,6.55-12.1,10.87-23.07,12.86h0A55.93,55.93,0,0,1,785.33,319.48Zm9.5-3h0Zm-32.6-19.38c0.93,4.67,3.12,10.34,8.23,14,5.55,4,13.62,5.12,24,3.25h0c9.79-1.77,16.62-5.48,20.29-11s3.65-12.08,2.77-17.18q-6.05,1-12.58,2.13a2.11,2.11,0,0,1-2.46-1.73l-4.65-27.75-18.76,4.48V291.6a2.12,2.12,0,0,1-1.68,2.07C772.57,294.69,767.48,295.83,762.23,297.07Z"/><path class="cls-2" d="M802.22,272.26c-3.3,8.64-10.33,18.24-25.27,19.34v-30l22.59-5.39Z"/><path class="cls-2" d="M701.41,461.88a2.11,2.11,0,0,1-1.59-.72c-13.2-14.94-19.79-27.08-19.58-36.06,0.36-16.09,13.84-77.2,19.62-102.73a2.12,2.12,0,1,1,4.13.93c-5.75,25.4-19.17,86.19-19.51,101.89-0.19,7.77,6.22,19.24,18.52,33.16A2.12,2.12,0,0,1,701.41,461.88Z"/><path class="cls-2" d="M903.49,365.74a2.12,2.12,0,0,1-2-1.41c-9.9-28-26-65.89-32.46-80.89a2.12,2.12,0,1,1,3.89-1.68c6.48,15,22.62,53.06,32.57,81.15A2.12,2.12,0,0,1,903.49,365.74Z"/><path class="cls-2" d="M751.51,480a2.12,2.12,0,0,1-.71-4.11c0.47-.17,47.34-16.56,106.8-15.87a2.12,2.12,0,0,1,0,4.24h0c-58.72-.7-104.88,15.46-105.34,15.63A2.12,2.12,0,0,1,751.51,480Z"/><path class="cls-2" d="M769.29,600.21c-33.8,0-55.79-3-56.26-3.07a2.12,2.12,0,1,1,.6-4.19c1,0.15,105.34,14.36,210.44-20a2.12,2.12,0,0,1,1.32,4C867.5,595.88,809.87,600.21,769.29,600.21Z"/><path class="cls-1" d="M748.83,222.44s-9.37-13.92-19.44-9.19-6.69,38.3,18.11,33.72Z"/><path class="cls-2" d="M743,249.52c-9.35,0-16.53-5.45-19.67-15.22-2.76-8.59-1.59-19.81,5.12-23,11.6-5.45,21.68,9.29,22.1,9.92a2.12,2.12,0,0,1-3.51,2.37c-0.08-.12-8.5-12.36-16.79-8.46-3.92,1.84-5.3,10.34-2.89,17.83,1.42,4.41,6.16,14.38,19.72,11.89a2.12,2.12,0,1,1,.77,4.16A26.65,26.65,0,0,1,743,249.52Z"/><path class="cls-1" d="M818.64,158.66l5.74-2.72a5.58,5.58,0,0,1,5.65.49,18.8,18.8,0,0,1,5.73,6.19,13,13,0,0,1,.77,8.79,5.52,5.52,0,0,1-2.49,3.46l-6.16,3.84a5.6,5.6,0,0,1-8.2-2.77L815.8,165.7A5.6,5.6,0,0,1,818.64,158.66Z"/><path class="cls-2" d="M824.92,181.67a7.73,7.73,0,0,1-7.22-5l-3.87-10.23a7.76,7.76,0,0,1,3.91-9.71h0l5.74-2.72a7.7,7.7,0,0,1,7.78.68,21,21,0,0,1,6.38,6.93,15,15,0,0,1,1,10.24,7.59,7.59,0,0,1-3.44,4.79L829,180.5A7.69,7.69,0,0,1,824.92,181.67Zm-5.37-21.1a3.5,3.5,0,0,0-1.76,4.38l3.87,10.23a3.49,3.49,0,0,0,5.1,1.72l6.16-3.84a3.39,3.39,0,0,0,1.55-2.13,10.91,10.91,0,0,0-.58-7.33,16.81,16.81,0,0,0-5.09-5.45,3.48,3.48,0,0,0-3.51-.3Z"/><path class="cls-1" d="M742.52,228c1.14,20.77,10.37,44.73,35.49,44.06,18.47-.5,38.89-22.73,40.45-50.78s-3.33-52.06-37.08-50.38a81.53,81.53,0,0,0-10.73,1.42c-19.57,4.33-27,6.08-28.5,44.58C742,220.28,742.29,224.06,742.52,228Z"/><path class="cls-2" d="M777,274.16c-25.07,0-35.34-23.67-36.57-46.07l-0.09-1.56c-0.2-3.44-.39-6.69-0.28-9.74,1.44-38.29,8.88-41.87,30.16-46.57a83.82,83.82,0,0,1,11.08-1.46c12.74-.65,22.55,2.35,29.06,8.89,10.63,10.69,11.06,29,10.24,43.72-1.69,30.47-23.75,52.27-42.5,52.77Zm7.72-101.25q-1.56,0-3.22.08a80.07,80.07,0,0,0-10.38,1.37c-19,4.21-25.44,5.62-26.84,42.6-0.1,2.85.08,6,.28,9.33l0.09,1.56h0c0.55,10.06,4.63,42.71,33.32,42.06,16.87-.45,36.87-21.41,38.39-48.78,1.13-20.31-1.74-33.18-9-40.5C802.16,175.45,794.73,172.91,784.69,172.91Z"/><path class="cls-2" d="M809.57,224a20.11,20.11,0,0,1-12.71-16.18c-0.37-2.43-.59-5.7-1.3-8.67-14.29,15-41.27,24-53,27.46a9.16,9.16,0,0,1-10.16-3.43c-13.72-20.26,2.64-59.08,28.93-58.33C791.16,144.18,826,159.2,831,184.42,836.5,212.37,818,227.5,809.57,224Z"/><path class="cls-1" d="M809.83,222.44s13.63-14.07,28-9.49,6,38-29.41,33.8Z"/><path class="cls-2" d="M814.34,249.23a52.41,52.41,0,0,1-6.2-.38,2.12,2.12,0,0,1-1.85-2.35,2.1,2.1,0,0,1,2.35-1.85C828.35,247,839.75,237,842,226.72c1-4.75-.06-10.23-4.83-11.75-12.95-4.14-25.67,8.82-25.8,8.95a2.12,2.12,0,0,1-3-2.94c0.59-.61,14.71-15,30.13-10,6.32,2,9.4,8.72,7.67,16.68C843.75,238.54,832.9,249.23,814.34,249.23Z"/><polygon class="cls-4" points="522.96 225.18 504.15 231.34 503.91 210.38 510.77 208.14 522.96 225.18"/><path class="cls-4" d="M543.54,109.51C556.79,150,542.33,200,508,211.25s-75.55-20.56-88.8-61.07S425.67,75.77,460,64.54,530.29,69,543.54,109.51Z"/><path class="cls-2" d="M587.27,431.73a2.11,2.11,0,0,1-1.49-.45c-1-.77-23.91-19.08-31.6-42.6-4-12.35-3.26-24.34-2.5-35.94,1.2-18.48,2.24-34.43-15.28-49-30.41-25.24-22.19-67-22.11-67.45a2.12,2.12,0,0,1,4.15.85c-0.08.4-7.77,39.74,20.66,63.33,19.18,15.92,18,33.69,16.8,52.51-0.73,11.2-1.48,22.78,2.3,34.35,7.29,22.28,30,40.41,30.2,40.59A2.12,2.12,0,0,1,587.27,431.73Z"/><polygon class="cls-4" points="1179.32 408.84 1161.01 401.34 1174.4 385.22 1181.08 387.96 1179.32 408.84"/><path class="cls-4" d="M1269.94,334c-16.15,39.45-59.55,68.17-93,54.48s-44.24-64.6-28.09-104,53.14-52.49,86.57-38.8S1286.09,294.6,1269.94,334Z"/><path class="cls-2" d="M1095.75,608.24a2.12,2.12,0,0,1-2.07-1.7c-0.24-1.22-5.85-30,3.52-52.93,4.92-12,13.29-20.65,21.38-29,12.88-13.3,24-24.78,20.08-47.2-6.82-38.94,26.51-65.44,26.85-65.7a2.12,2.12,0,0,1,2.61,3.34c-0.32.25-31.66,25.24-25.29,61.63,4.3,24.55-8.09,37.34-21.21,50.88-7.81,8.06-15.89,16.39-20.5,27.66-8.9,21.73-3.34,50.2-3.29,50.49a2.12,2.12,0,0,1-1.66,2.49A2.18,2.18,0,0,1,1095.75,608.24Z"/><path class="cls-3" d="M1117.47,753.77l-56.31,13.41S1029,752.35,1038,731,1090.32,716,1117.47,753.77Z"/><path class="cls-3" d="M1117.47,753.77l56.31-13.41s22.06-27.75,4.33-42.76S1124.66,707.8,1117.47,753.77Z"/><path class="cls-1" d="M1131.55,750.42s13.85-74.77-30.19-64.29,2,71,2,71Z"/><path class="cls-2" d="M1103.38,759.24a2.11,2.11,0,0,1-1.68-.84c-1.14-1.5-28-37.1-20.06-59.21,2.73-7.65,9.2-12.74,19.23-15.13s18.1-.76,24,4.84c17,16.18,9.12,60,8.78,61.9a2.11,2.11,0,0,1-1.59,1.67l-28.17,6.71A2.13,2.13,0,0,1,1103.38,759.24Zm5.85-72a32,32,0,0,0-7.38.94c-8.55,2-14,6.22-16.22,12.43-6.42,17.95,14.22,48,18.63,54.12l25.43-6.06c1.18-7.45,6.06-43.58-7.76-56.71A17.73,17.73,0,0,0,1109.23,687.25Zm22.32,63.17h0Z"/><polygon class="cls-4" points="1225.92 887.59 1080.95 922.11 1033 773.89 1201.93 733.66 1225.92 887.59"/><polygon class="cls-1" points="1175.04 904.06 1133.79 913.88 1092.45 755.38 1140.52 743.93 1175.04 904.06"/><path class="cls-2" d="M1133.79,916a2.12,2.12,0,0,1-2-1.58L1090.4,755.91a2.12,2.12,0,0,1,1.56-2.59L1140,741.87a2.12,2.12,0,0,1,2.56,1.61l34.53,160.13a2.12,2.12,0,0,1-1.58,2.51l-41.25,9.82A2.17,2.17,0,0,1,1133.79,916ZM1095,756.93l40.27,154.41,37.22-8.86-33.63-156Z"/><path class="cls-3" d="M537.87,961.32S554,959.14,567,942.46l20.85,13.79s-17.3,28.45-45.53,28.8Z"/><path class="cls-4" d="M1222.17,594.65s6.8,14.8,26.55,22.35l-7.09,24s-32.27-8.22-40.86-35.12Z"/><path class="cls-4" d="M377.16,1063.65s3.54,13.53-6,27.74l15.17,11.84s21-18.9,10.53-44.4Z"/><path class="cls-4" d="M1268.26,173.85s-3.12,13.64-18.17,21.81l8,17.51s27.36-7.05,29.86-34.5Z"/><path class="cls-4" d="M678.21,95s-11.93-7.31-14.86-24.19l-19.14,2s-2.06,28.18,23.15,39.32Z"/><circle class="cls-4" cx="552.7" cy="1198.83" r="11.29"/><circle class="cls-3" cx="884.31" cy="1198.83" r="17.65"/><circle class="cls-3" cx="980.97" cy="800.17" r="8.1"/><circle class="cls-3" cx="330.35" cy="561.28" r="7.06"/><circle class="cls-3" cx="623.4" cy="228.29" r="10.59"/><circle class="cls-3" cx="1195.91" cy="116.82" r="14.82"/><circle class="cls-3" cx="993.61" cy="432.81" r="9.88"/><path class="cls-3" d="M410.66,287.9l13,26.25,29,4.21a5,5,0,0,1,2.74,8.44l-21,20.43,4.95,28.85a5,5,0,0,1-7.18,5.21l-25.91-13.62-25.91,13.62a5,5,0,0,1-7.18-5.21l4.95-28.85-21-20.43a5,5,0,0,1,2.74-8.44l29-4.21,13-26.25A5,5,0,0,1,410.66,287.9Z"/><path class="cls-3" d="M1133.9,1019.56l13,26.25,29,4.21a5,5,0,0,1,2.74,8.44l-21,20.43,4.95,28.85a5,5,0,0,1-7.18,5.21l-25.91-13.62L1103.55,1113a5,5,0,0,1-7.18-5.21l4.95-28.85-21-20.43a5,5,0,0,1,2.74-8.44l29-4.21,13-26.25A5,5,0,0,1,1133.9,1019.56Z"/></svg>